<?xml version="1.0" encoding="UTF-8" standalone="no"?>
<svg
   xmlns:dc="http://purl.org/dc/elements/1.1/"
   xmlns:cc="http://creativecommons.org/ns#"
   xmlns:rdf="http://www.w3.org/1999/02/22-rdf-syntax-ns#"
   xmlns:svg="http://www.w3.org/2000/svg"
   xmlns="http://www.w3.org/2000/svg"
   viewBox="0 0 337 601.66669"
   height="601.66669"
   width="337"
   xml:space="preserve"
   id="svg2"
   version="1.1"><metadata
     id="metadata8"><rdf:RDF><cc:Work
         rdf:about=""><dc:format>image/svg+xml</dc:format><dc:type
           rdf:resource="http://purl.org/dc/dcmitype/StillImage" /></cc:Work></rdf:RDF></metadata><defs
     id="defs6" /><g
     transform="matrix(1.3333333,0,0,-1.3333333,0,601.66667)"
     id="g10"><g
       transform="scale(0.1)"
       id="g12"><path
         id="path14"
         style="fill:#372767;fill-opacity:1;fill-rule:nonzero;stroke:none"
         d="m 1749.69,3751.95 -121.1,201.5 83.39,-213.6 c -103.6,-31.71 -258.39,-65 -434.5,-56.6 -319.695,-15.3 -569.292,107.1 -569.292,107.1 0,0 89.695,132.9 182.097,427.1 123.395,392.8 650.805,393.9 774.505,0 92.29,-294.2 182.1,-427.1 182.1,-427.1 0,0 -35.61,-17.5 -97.2,-38.4" /><path
         id="path16"
         style="fill:#f46b3e;fill-opacity:1;fill-rule:nonzero;stroke:none"
         d="m 370.395,2137.94 v 0 c 143.929,-36.87 290.496,49.93 327.355,193.87 L 856.633,2952.18 335.406,3085.67 176.527,2465.3 c -36.867,-143.93 49.93,-290.49 193.868,-327.36" /><path
         id="path18"
         style="fill:#f46b3e;fill-opacity:1;fill-rule:nonzero;stroke:none"
         d="m 208.453,2823.51 c 6.887,11.76 14.363,23.05 22.574,33.54 27.871,35.58 67.778,59.84 92.711,98.06 56.762,87.02 151.02,-86.39 84.532,-127.72 -12.274,-7.62 -22.317,-14.84 -30.582,-21.54 30.792,-21.17 56.445,-48.39 70.351,-83.5 10.227,-25.78 9.672,-60.96 -13.672,-71.38 28.141,-9.61 49.512,-40.34 48.988,-70.43 -0.527,-30.1 -22.894,-56.58 -51.269,-60.71 11.871,-42 35.871,-31.96 25.812,-72.76 -11.48,-46.56 -48.332,-54.6 -94.796,-59.11 -23.286,-2.26 -88.098,-5.81 -174.399,-8.49 -31.738,-0.99 -59.355,22.37 -63.008,53.9 -11.879,102.54 4.649,207.52 42.34,303.3 11.387,28.94 24.262,59.22 40.418,86.84" /><path
         id="path20"
         style="fill:#ffffff;fill-opacity:1;fill-rule:nonzero;stroke:none"
         d="m 227.199,2370.65 c -5.355,0 -9.793,4.24 -9.988,9.63 -0.203,5.52 4.113,10.16 9.633,10.36 75,2.71 121.629,5.62 138.773,7.28 49.84,4.83 76.832,14.13 86.059,51.54 4.59,18.65 1.574,22.22 -5.723,30.83 -6.082,7.19 -14.414,17.03 -20.004,36.82 -0.781,2.78 -0.332,5.75 1.235,8.17 1.57,2.42 4.101,4.04 6.953,4.45 23.508,3.42 42.265,25.81 42.707,50.98 0.449,25.85 -18.098,52.56 -42.223,60.8 -3.891,1.33 -6.57,4.9 -6.758,9.01 -0.183,4.11 2.164,7.91 5.918,9.58 16.617,7.42 17.324,36.18 8.449,58.57 -11.949,30.15 -34.402,56.71 -66.726,78.94 -2.598,1.79 -4.203,4.7 -4.324,7.84 -0.129,3.15 1.238,6.18 3.691,8.17 9.207,7.46 19.844,14.96 31.602,22.26 20.074,12.48 19.254,38.97 16.976,53.66 -5.699,36.8 -30.281,72.91 -53.679,78.85 -5.352,1.36 -8.59,6.81 -7.235,12.16 1.36,5.35 6.774,8.61 12.156,7.23 35.043,-8.9 62.356,-55.38 68.524,-95.18 5.156,-33.29 -4.387,-60.15 -26.188,-73.7 -6.824,-4.25 -13.226,-8.54 -19.144,-12.83 29.797,-22.87 50.937,-49.74 62.941,-80.03 9.805,-24.75 10.317,-55.09 -4.265,-73.01 24.25,-15.18 40.781,-43.87 40.285,-72.67 -0.547,-31.08 -20.578,-58.28 -48.235,-67.64 3.895,-9.2 8.465,-14.6 12.614,-19.51 10.211,-12.07 16.418,-21.96 9.875,-48.54 -13.219,-53.57 -56.524,-62.1 -103.547,-66.66 -22.938,-2.23 -77.891,-5.11 -139.985,-7.36 -0.121,0 -0.246,0 -0.367,0" /><path
         id="path22"
         style="fill:#ffffff;fill-opacity:1;fill-rule:nonzero;stroke:none"
         d="m 378.641,2519.74 c -0.563,0 -1.133,0.05 -1.703,0.15 -1.227,0.21 -123.036,21.11 -192.356,27.11 -5.496,0.47 -9.574,5.32 -9.098,10.82 0.477,5.5 5.219,9.68 10.829,9.1 70.156,-6.07 192.781,-27.11 194.011,-27.32 5.446,-0.94 9.098,-6.11 8.16,-11.55 -0.836,-4.88 -5.062,-8.31 -9.843,-8.31" /><path
         id="path24"
         style="fill:#ffffff;fill-opacity:1;fill-rule:nonzero;stroke:none"
         d="m 387.023,2659.68 c -1.285,0 -2.593,0.25 -3.851,0.77 -1.109,0.47 -110.832,46.09 -157.484,46.09 -0.317,0 -0.633,-0.02 -0.911,0 -5.472,0 -9.937,4.4 -10,9.89 -0.062,5.52 4.368,10.05 9.887,10.11 50.254,0.96 161.516,-45.67 166.223,-47.63 5.093,-2.13 7.5,-7.99 5.371,-13.08 -1.606,-3.84 -5.324,-6.15 -9.235,-6.15" /><path
         id="path26"
         style="fill:#f46b3e;fill-opacity:1;fill-rule:nonzero;stroke:none"
         d="m 2157.13,2137.94 v 0 c -143.93,-36.87 -290.5,49.93 -327.35,193.87 l -158.89,620.37 521.22,133.49 L 2351,2465.3 c 36.86,-143.93 -49.93,-290.49 -193.87,-327.36" /><path
         id="path28"
         style="fill:#372767;fill-opacity:1;fill-rule:nonzero;stroke:none"
         d="M 2527.52,27.6484 C 2527.52,12.3789 1961.72,0 1263.76,0 565.809,0 0.00390625,12.3789 0.00390625,27.6484 0.00390625,42.9219 565.809,55.2891 1263.76,55.2891 c 697.96,0 1263.76,-12.3672 1263.76,-27.6407" /><path
         id="path30"
         style="fill:#372767;fill-opacity:1;fill-rule:nonzero;stroke:none"
         d="m 1870.07,419.629 -18.85,216.269 -492.45,-1.148 -3.78,-595.2812 817.4,2.8515 c 0,0 26.95,369.6017 -332.32,377.3087" /><path
         id="path32"
         style="fill:#ffffff;fill-opacity:1;fill-rule:nonzero;stroke:none"
         d="m 1710.7,255.25 c -2.27,0 -4.55,0.77 -6.42,2.34 -4.23,3.539 -4.79,9.851 -1.24,14.09 133.43,159.218 314.61,47.121 316.42,45.98 4.65,-2.961 6.03,-9.129 3.08,-13.801 -2.96,-4.668 -9.14,-6.027 -13.8,-3.097 -6.8,4.308 -168.3,103.758 -290.37,-41.93 -1.98,-2.352 -4.81,-3.582 -7.67,-3.582" /><path
         id="path34"
         style="fill:#372767;fill-opacity:1;fill-rule:nonzero;stroke:none"
         d="m 650.129,419.629 18.844,216.269 492.457,-1.148 3.78,-595.2812 -817.401,2.8515 c 0,0 -26.942,369.6017 332.32,377.3087" /><path
         id="path36"
         style="fill:#ffffff;fill-opacity:1;fill-rule:nonzero;stroke:none"
         d="m 809.492,255.25 c -2.855,0 -5.691,1.23 -7.668,3.582 -122.324,145.988 -283.554,46.25 -290.355,41.93 -4.66,-2.961 -10.848,-1.571 -13.801,3.09 -2.957,4.668 -1.578,10.847 3.086,13.808 1.809,1.141 182.949,113.27 316.402,-45.98 3.543,-4.239 2.989,-10.551 -1.246,-14.09 -1.871,-1.57 -4.148,-2.34 -6.418,-2.34" /><path
         id="path38"
         style="fill:#775ab3;fill-opacity:1;fill-rule:nonzero;stroke:none"
         d="m 1917.69,463.148 c -86.98,1361.612 -136.7,1877.002 -136.7,1877.002 h -508.77 -24.23 -508.775 c 0,0 -49.727,-515.39 -136.699,-1877.002 L 1243.6,443.641 c -0.01,-0.231 -0.01,-0.403 -0.01,-0.403 l 674.1,19.91" /><path
         id="path40"
         style="fill:#f9b012;fill-opacity:1;fill-rule:nonzero;stroke:none"
         d="m 1181.76,3759.94 c 0,0 -556.768,10.99 -883.268,-709.8 l 598.035,-123.94 285.233,833.74" /><path
         id="path42"
         style="fill:#f9b012;fill-opacity:1;fill-rule:nonzero;stroke:none"
         d="m 1341.67,3759.94 c 0,0 556.77,10.99 883.27,-709.8 l -598.03,-123.94 -285.24,833.74" /><path
         id="path44"
         style="fill:#f9b012;fill-opacity:1;fill-rule:nonzero;stroke:none"
         d="m 1278.19,3769.95 h -31.15 c -305.153,0 -552.524,-240.32 -552.524,-536.77 L 684.359,2301.47 H 1830.71 v 931.71 c 0,296.45 -247.38,536.77 -552.52,536.77" /><path
         id="path46"
         style="fill:#372767;fill-opacity:1;fill-rule:nonzero;stroke:none"
         d="M 930.813,2367.35 H 794.684 c -5.524,0 -10,4.48 -10,10 0,5.53 4.476,10 10,10 h 136.129 c 5.523,0 10,-4.47 10,-10 0,-5.52 -4.477,-10 -10,-10" /><path
         id="path48"
         style="fill:#ffffff;fill-opacity:1;fill-rule:nonzero;stroke:none"
         d="m 748.746,2377.35 c 0,-25.36 20.567,-45.93 45.938,-45.93 25.371,0 45.937,20.57 45.937,45.93 0,25.38 -20.566,45.94 -45.937,45.94 -25.371,0 -45.938,-20.56 -45.938,-45.94" /><path
         id="path50"
         style="fill:#372767;fill-opacity:1;fill-rule:nonzero;stroke:none"
         d="m 794.684,2413.29 c -19.813,0 -35.938,-16.12 -35.938,-35.94 0,-19.81 16.125,-35.93 35.938,-35.93 19.816,0 35.937,16.12 35.937,35.93 0,19.82 -16.121,35.94 -35.937,35.94 z m 0,-91.87 c -30.844,0 -55.938,25.09 -55.938,55.93 0,30.85 25.094,55.94 55.938,55.94 30.847,0 55.937,-25.09 55.937,-55.94 0,-30.84 -25.09,-55.93 -55.937,-55.93" /><path
         id="path52"
         style="fill:#f46b3e;fill-opacity:1;fill-rule:nonzero;stroke:none"
         d="m 1011.78,4108.25 c 1.83,-21.04 6.05,-41.25 12.41,-60.43 37.76,-114.88 150.62,-192.91 276.38,-182 106.19,9.23 192.42,79.32 227.1,172.95 13.36,35.75 19.13,75.11 15.61,115.61 -12.71,146.52 -142,255.03 -288.78,242.3 -146.77,-12.74 -255.441,-141.91 -242.72,-288.43" /><path
         id="path54"
         style="fill:#ffffff;fill-opacity:1;fill-rule:nonzero;stroke:none"
         d="m 1275.14,3893.59 c -2.35,0 -4.69,0.2 -7,0.59 -18.23,3.14 -27.59,17.41 -28.6,19.03 -2.92,4.68 -1.49,10.85 3.19,13.78 4.66,2.91 10.8,1.51 13.74,-3.13 0.21,-0.31 5.73,-8.45 15.26,-10 7.93,-1.27 16.97,2.1 26.98,10.04 4.31,3.46 10.62,2.72 14.06,-1.6 3.43,-4.33 2.71,-10.62 -1.62,-14.05 -12.26,-9.75 -24.35,-14.66 -36.01,-14.66" /><path
         id="path56"
         style="fill:#f46b3e;fill-opacity:1;fill-rule:nonzero;stroke:none"
         d="m 2319.07,2823.51 c -6.88,11.76 -14.36,23.05 -22.57,33.54 -27.87,35.58 -67.78,59.84 -92.71,98.06 -56.77,87.02 -151.02,-86.39 -84.53,-127.72 12.27,-7.62 22.31,-14.84 30.58,-21.54 -30.79,-21.17 -56.45,-48.39 -70.36,-83.5 -10.22,-25.78 -9.67,-60.96 13.68,-71.38 -28.15,-9.61 -49.52,-40.34 -49,-70.43 0.53,-30.1 22.9,-56.58 51.27,-60.71 -11.86,-42 -35.86,-31.96 -25.81,-72.76 11.49,-46.56 48.33,-54.6 94.81,-59.11 23.28,-2.26 88.09,-5.81 174.39,-8.49 31.74,-0.99 59.36,22.37 63.01,53.9 11.87,102.54 -4.65,207.52 -42.34,303.3 -11.38,28.94 -24.26,59.22 -40.42,86.84" /><path
         id="path58"
         style="fill:#ffffff;fill-opacity:1;fill-rule:nonzero;stroke:none"
         d="m 2300.32,2370.65 c -0.12,0 -0.24,0 -0.37,0 -62.09,2.25 -117.03,5.13 -139.98,7.36 -47.03,4.56 -90.33,13.09 -103.53,66.66 -6.55,26.58 -0.35,36.48 9.86,48.55 4.15,4.9 8.72,10.3 12.62,19.5 -27.66,9.36 -47.69,36.56 -48.23,67.64 -0.51,28.8 16.03,57.49 40.27,72.67 -14.58,17.92 -14.07,48.26 -4.26,73.01 12,30.29 33.14,57.16 62.94,80.03 -5.91,4.29 -12.31,8.58 -19.14,12.82 -21.81,13.56 -31.35,40.42 -26.19,73.71 6.17,39.8 33.49,86.28 68.52,95.18 5.36,1.35 10.8,-1.87 12.16,-7.23 1.36,-5.35 -1.88,-10.8 -7.23,-12.16 -23.4,-5.94 -47.98,-42.05 -53.69,-78.85 -2.27,-14.68 -3.09,-41.18 16.99,-53.66 11.77,-7.32 22.41,-14.81 31.59,-22.27 2.45,-1.98 3.82,-5.01 3.69,-8.16 -0.13,-3.14 -1.73,-6.05 -4.33,-7.84 -32.32,-22.23 -54.77,-48.79 -66.71,-78.94 -8.88,-22.39 -8.18,-51.15 8.44,-58.57 3.76,-1.67 6.11,-5.48 5.92,-9.58 -0.19,-4.11 -2.87,-7.68 -6.76,-9.01 -24.13,-8.25 -42.67,-34.95 -42.21,-60.8 0.44,-25.17 19.2,-47.56 42.7,-50.98 2.85,-0.41 5.38,-2.03 6.95,-4.45 1.58,-2.42 2.03,-5.4 1.23,-8.17 -5.59,-19.79 -13.92,-29.63 -20,-36.82 -7.29,-8.61 -10.32,-12.18 -5.72,-30.83 9.22,-37.41 36.21,-46.71 86.06,-51.54 17.15,-1.66 63.78,-4.57 138.77,-7.28 5.51,-0.2 9.83,-4.84 9.63,-10.36 -0.2,-5.39 -4.63,-9.63 -9.99,-9.63" /><path
         id="path60"
         style="fill:#ffffff;fill-opacity:1;fill-rule:nonzero;stroke:none"
         d="m 2148.89,2519.74 c -4.78,0 -9,3.43 -9.84,8.3 -0.94,5.45 2.71,10.62 8.15,11.56 1.23,0.21 123.86,21.25 194.02,27.32 5.56,0.61 10.34,-3.6 10.82,-9.1 0.48,-5.5 -3.59,-10.35 -9.1,-10.82 -69.33,-6 -191.12,-26.9 -192.34,-27.11 -0.58,-0.1 -1.15,-0.15 -1.71,-0.15" /><path
         id="path62"
         style="fill:#ffffff;fill-opacity:1;fill-rule:nonzero;stroke:none"
         d="m 2140.5,2659.68 c -3.91,0 -7.63,2.31 -9.23,6.15 -2.13,5.09 0.28,10.95 5.37,13.08 4.68,1.95 114.54,47.63 165.29,47.63 0.31,0 0.62,0 0.93,0 5.52,-0.06 9.95,-4.59 9.89,-10.11 -0.07,-5.53 -4.88,-9.63 -10.12,-9.89 -0.26,0 -0.53,0 -0.79,0 -46.68,0 -156.38,-45.62 -157.48,-46.09 -1.26,-0.52 -2.57,-0.77 -3.86,-0.77" /><path
         id="path64"
         style="fill:#372767;fill-opacity:1;fill-rule:nonzero;stroke:none"
         d="m 1419.4,3174.97 c -5.53,0 -10,4.48 -10,10 v 332.45 c 0,5.53 4.47,10 10,10 5.52,0 10,-4.47 10,-10 v -332.45 c 0,-5.52 -4.48,-10 -10,-10" /><path
         id="path66"
         style="fill:#372767;fill-opacity:1;fill-rule:nonzero;stroke:none"
         d="m 1002.83,3121.28 c -2.55,0 -5.111,0.98 -7.064,2.93 L 838.031,3281.94 H 537.848 c -5.524,0 -10,4.48 -10,10 0,5.53 4.476,10 10,10 h 304.324 c 2.648,0 5.191,-1.05 7.066,-2.93 L 1009.9,3138.35 c 3.91,-3.91 3.91,-10.23 0,-14.14 -1.95,-1.95 -4.51,-2.93 -7.07,-2.93" /><path
         id="path68"
         style="fill:#372767;fill-opacity:1;fill-rule:nonzero;stroke:none"
         d="M 740.426,2915.16 H 537.848 c -5.524,0 -10,4.48 -10,10 v 204.57 c 0,5.52 4.476,10 10,10 5.523,0 10,-4.48 10,-10 v -194.57 h 192.578 c 5.523,0 10,-4.48 10,-10 0,-5.52 -4.477,-10 -10,-10" /><path
         id="path70"
         style="fill:#372767;fill-opacity:1;fill-rule:nonzero;stroke:none"
         d="M 740.426,2803.63 H 639.137 c -5.52,0 -10,4.48 -10,10 0,5.53 4.48,10 10,10 h 101.289 c 5.523,0 10,-4.47 10,-10 0,-5.52 -4.477,-10 -10,-10" /><path
         id="path72"
         style="fill:#372767;fill-opacity:1;fill-rule:nonzero;stroke:none"
         d="m 1728.79,2079.03 c -5.53,0 -10,4.48 -10,10 v 163.93 l -97.32,97.32 c -3.91,3.91 -3.91,10.24 0,14.14 3.9,3.91 10.23,3.91 14.14,0 l 100.25,-100.24 c 1.88,-1.88 2.93,-4.42 2.93,-7.07 v -168.08 c 0,-5.52 -4.47,-10 -10,-10" /><path
         id="path74"
         style="fill:#372767;fill-opacity:1;fill-rule:nonzero;stroke:none"
         d="m 1977.84,2645.89 h -206.28 c -5.52,0 -10,4.48 -10,10 0,5.53 4.48,10 10,10 h 196.28 v 147.74 c 0,5.53 4.48,10 10,10 5.53,0 10,-4.47 10,-10 v -157.74 c 0,-5.52 -4.47,-10 -10,-10" /><path
         id="path76"
         style="fill:#372767;fill-opacity:1;fill-rule:nonzero;stroke:none"
         d="m 1939.13,3008.34 h -136.12 c -5.53,0 -10,4.47 -10,10 0,5.52 4.47,10 10,10 h 136.12 c 5.53,0 10,-4.48 10,-10 0,-5.53 -4.47,-10 -10,-10" /><path
         id="path78"
         style="fill:#372767;fill-opacity:1;fill-rule:nonzero;stroke:none"
         d="m 1728.79,3055.9 c -2.56,0 -5.12,0.98 -7.07,2.93 -3.91,3.91 -3.91,10.24 0,14.14 l 126.22,126.22 c 1.88,1.88 4.42,2.93 7.07,2.93 h 214.41 c 5.52,0 10,-4.48 10,-10 0,-5.52 -4.48,-10 -10,-10 h -210.27 l -123.29,-123.29 c -1.95,-1.95 -4.51,-2.93 -7.07,-2.93" /><path
         id="path80"
         style="fill:#372767;fill-opacity:1;fill-rule:nonzero;stroke:none"
         d="M 981.043,2038.71 H 839.781 c -5.519,0 -10,4.47 -10,10 0,5.53 4.481,10 10,10 h 131.262 v 265.19 c 0,5.52 4.477,10 10,10 5.523,0 10,-4.48 10,-10 v -275.19 c 0,-5.53 -4.477,-10 -10,-10" /><path
         id="path82"
         style="fill:#372767;fill-opacity:1;fill-rule:nonzero;stroke:none"
         d="m 584.301,2347.35 c -5.524,0 -10,4.48 -10,10 v 158.6 c 0,5.53 4.476,10 10,10 h 238.621 c 5.523,0 10,-4.47 10,-10 0,-5.52 -4.477,-10 -10,-10 H 594.301 v -148.6 c 0,-5.52 -4.481,-10 -10,-10" /><path
         id="path84"
         style="fill:#372767;fill-opacity:1;fill-rule:nonzero;stroke:none"
         d="m 1550.6,3126.66 c -5.53,0 -10,4.48 -10,10 v 169.67 c 0,5.52 4.47,10 10,10 h 388.53 c 5.53,0 10,-4.48 10,-10 0,-5.52 -4.47,-10 -10,-10 H 1560.6 v -159.67 c 0,-5.52 -4.47,-10 -10,-10" /><path
         id="path86"
         style="fill:#372767;fill-opacity:1;fill-rule:nonzero;stroke:none"
         d="m 1157.38,3178.55 c -5.53,0 -10,4.48 -10,10 v 219.2 h -144.55 c -5.517,0 -9.994,4.48 -9.994,10 0,5.53 4.477,10 9.994,10 h 154.55 c 5.52,0 10,-4.47 10,-10 v -229.2 c 0,-5.52 -4.48,-10 -10,-10" /><path
         id="path88"
         style="fill:#372767;fill-opacity:1;fill-rule:nonzero;stroke:none"
         d="m 1411.72,1920 c -5.53,0 -10,4.47 -10,10 v 251.9 c 0,5.52 4.47,10 10,10 5.53,0 10,-4.48 10,-10 V 1930 c 0,-5.53 -4.47,-10 -10,-10" /><path
         id="path90"
         style="fill:#ffffff;fill-opacity:1;fill-rule:nonzero;stroke:none"
         d="m 1465.33,3542.34 c 0,-25.37 -20.56,-45.94 -45.93,-45.94 -25.37,0 -45.94,20.57 -45.94,45.94 0,25.37 20.57,45.93 45.94,45.93 25.37,0 45.93,-20.56 45.93,-45.93" /><path
         id="path92"
         style="fill:#372767;fill-opacity:1;fill-rule:nonzero;stroke:none"
         d="m 1419.4,3578.27 c -19.82,0 -35.94,-16.12 -35.94,-35.93 0,-19.82 16.12,-35.94 35.94,-35.94 19.81,0 35.93,16.12 35.93,35.94 0,19.81 -16.12,35.93 -35.93,35.93 z m 0,-91.87 c -30.84,0 -55.94,25.09 -55.94,55.94 0,30.84 25.1,55.93 55.94,55.93 30.84,0 55.93,-25.09 55.93,-55.93 0,-30.85 -25.09,-55.94 -55.93,-55.94" /><path
         id="path94"
         style="fill:#ffffff;fill-opacity:1;fill-rule:nonzero;stroke:none"
         d="m 1048.77,3420.44 c 0,-25.37 -20.57,-45.94 -45.94,-45.94 -25.365,0 -45.932,20.57 -45.932,45.94 0,25.37 20.567,45.94 45.932,45.94 25.37,0 45.94,-20.57 45.94,-45.94" /><path
         id="path96"
         style="fill:#372767;fill-opacity:1;fill-rule:nonzero;stroke:none"
         d="m 1002.83,3456.38 c -19.81,0 -35.932,-16.13 -35.932,-35.94 0,-19.81 16.122,-35.94 35.932,-35.94 19.82,0 35.94,16.13 35.94,35.94 0,19.81 -16.12,35.94 -35.94,35.94 z m 0,-91.88 c -30.842,0 -55.932,25.1 -55.932,55.94 0,30.84 25.09,55.94 55.932,55.94 30.84,0 55.94,-25.1 55.94,-55.94 0,-30.84 -25.1,-55.94 -55.94,-55.94" /><path
         id="path98"
         style="fill:#ffffff;fill-opacity:1;fill-rule:nonzero;stroke:none"
         d="m 1985.07,3309.51 c 0,-25.37 -20.57,-45.94 -45.94,-45.94 -25.36,0 -45.92,20.57 -45.92,45.94 0,25.37 20.56,45.93 45.92,45.93 25.37,0 45.94,-20.56 45.94,-45.93" /><path
         id="path100"
         style="fill:#372767;fill-opacity:1;fill-rule:nonzero;stroke:none"
         d="m 1939.13,3345.44 c -19.81,0 -35.92,-16.11 -35.92,-35.93 0,-19.81 16.11,-35.94 35.92,-35.94 19.82,0 35.94,16.13 35.94,35.94 0,19.82 -16.12,35.93 -35.94,35.93 z m 0,-91.87 c -30.84,0 -55.92,25.1 -55.92,55.94 0,30.84 25.08,55.93 55.92,55.93 30.84,0 55.94,-25.09 55.94,-55.93 0,-30.84 -25.1,-55.94 -55.94,-55.94" /><path
         id="path102"
         style="fill:#ffffff;fill-opacity:1;fill-rule:nonzero;stroke:none"
         d="m 2115.35,3192.12 c 0,-25.37 -20.56,-45.94 -45.93,-45.94 -25.37,0 -45.94,20.57 -45.94,45.94 0,25.37 20.57,45.94 45.94,45.94 25.37,0 45.93,-20.57 45.93,-45.94" /><path
         id="path104"
         style="fill:#372767;fill-opacity:1;fill-rule:nonzero;stroke:none"
         d="m 2069.42,3228.06 c -19.82,0 -35.94,-16.13 -35.94,-35.94 0,-19.81 16.12,-35.94 35.94,-35.94 19.81,0 35.93,16.13 35.93,35.94 0,19.81 -16.12,35.94 -35.93,35.94 z m 0,-91.88 c -30.84,0 -55.94,25.1 -55.94,55.94 0,30.84 25.1,55.94 55.94,55.94 30.84,0 55.93,-25.1 55.93,-55.94 0,-30.84 -25.09,-55.94 -55.93,-55.94" /><path
         id="path106"
         style="fill:#ffffff;fill-opacity:1;fill-rule:nonzero;stroke:none"
         d="m 1985.07,3018.34 c 0,-25.38 -20.57,-45.94 -45.94,-45.94 -25.36,0 -45.92,20.56 -45.92,45.94 0,25.36 20.56,45.93 45.92,45.93 25.37,0 45.94,-20.57 45.94,-45.93" /><path
         id="path108"
         style="fill:#372767;fill-opacity:1;fill-rule:nonzero;stroke:none"
         d="m 1939.13,3054.27 c -19.81,0 -35.92,-16.12 -35.92,-35.93 0,-19.82 16.11,-35.94 35.92,-35.94 19.82,0 35.94,16.12 35.94,35.94 0,19.81 -16.12,35.93 -35.94,35.93 z m 0,-91.87 c -30.84,0 -55.92,25.09 -55.92,55.94 0,30.84 25.08,55.93 55.92,55.93 30.84,0 55.94,-25.09 55.94,-55.93 0,-30.85 -25.1,-55.94 -55.94,-55.94" /><path
         id="path110"
         style="fill:#372767;fill-opacity:1;fill-rule:nonzero;stroke:none"
         d="m 1848.11,2475.95 h -136.14 c -5.52,0 -10,4.48 -10,10 0,5.53 4.48,10 10,10 h 136.14 c 5.53,0 10,-4.47 10,-10 0,-5.52 -4.47,-10 -10,-10" /><path
         id="path112"
         style="fill:#ffffff;fill-opacity:1;fill-rule:nonzero;stroke:none"
         d="m 1894.05,2485.95 c 0,-25.37 -20.57,-45.93 -45.94,-45.93 -25.37,0 -45.94,20.56 -45.94,45.93 0,25.37 20.57,45.94 45.94,45.94 25.37,0 45.94,-20.57 45.94,-45.94" /><path
         id="path114"
         style="fill:#372767;fill-opacity:1;fill-rule:nonzero;stroke:none"
         d="m 1848.11,2521.89 c -19.82,0 -35.94,-16.12 -35.94,-35.94 0,-19.81 16.12,-35.93 35.94,-35.93 19.81,0 35.94,16.12 35.94,35.93 0,19.82 -16.13,35.94 -35.94,35.94 z m 0,-91.87 c -30.84,0 -55.94,25.09 -55.94,55.93 0,30.85 25.1,55.94 55.94,55.94 30.84,0 55.94,-25.09 55.94,-55.94 0,-30.84 -25.1,-55.93 -55.94,-55.93" /><path
         id="path116"
         style="fill:#372767;fill-opacity:1;fill-rule:nonzero;stroke:none"
         d="m 1538.63,2146.01 c -5.53,0 -10,4.47 -10,10 v 136.12 c 0,5.53 4.47,10 10,10 5.52,0 10,-4.47 10,-10 v -136.12 c 0,-5.53 -4.48,-10 -10,-10" /><path
         id="path118"
         style="fill:#ffffff;fill-opacity:1;fill-rule:nonzero;stroke:none"
         d="m 1538.63,2110.07 c -25.38,0 -45.94,20.57 -45.94,45.94 0,25.37 20.56,45.93 45.94,45.93 25.36,0 45.92,-20.56 45.92,-45.93 0,-25.37 -20.56,-45.94 -45.92,-45.94" /><path
         id="path120"
         style="fill:#372767;fill-opacity:1;fill-rule:nonzero;stroke:none"
         d="m 1538.63,2191.94 c -19.82,0 -35.94,-16.12 -35.94,-35.93 0,-19.82 16.12,-35.94 35.94,-35.94 19.81,0 35.92,16.12 35.92,35.94 0,19.81 -16.11,35.93 -35.92,35.93 z m 0,-91.87 c -30.84,0 -55.94,25.1 -55.94,55.94 0,30.84 25.1,55.93 55.94,55.93 30.84,0 55.92,-25.09 55.92,-55.93 0,-30.84 -25.08,-55.94 -55.92,-55.94" /><path
         id="path122"
         style="fill:#ffffff;fill-opacity:1;fill-rule:nonzero;stroke:none"
         d="m 2021.01,2813.63 c 0,-25.37 -20.57,-45.93 -45.94,-45.93 -25.37,0 -45.94,20.56 -45.94,45.93 0,25.37 20.57,45.94 45.94,45.94 25.37,0 45.94,-20.57 45.94,-45.94" /><path
         id="path124"
         style="fill:#372767;fill-opacity:1;fill-rule:nonzero;stroke:none"
         d="m 1975.07,2849.57 c -19.81,0 -35.94,-16.12 -35.94,-35.94 0,-19.81 16.13,-35.93 35.94,-35.93 19.82,0 35.94,16.12 35.94,35.93 0,19.82 -16.12,35.94 -35.94,35.94 z m 0,-91.87 c -30.84,0 -55.94,25.09 -55.94,55.93 0,30.85 25.1,55.94 55.94,55.94 30.84,0 55.94,-25.09 55.94,-55.94 0,-30.84 -25.1,-55.93 -55.94,-55.93" /><path
         id="path126"
         style="fill:#ffffff;fill-opacity:1;fill-rule:nonzero;stroke:none"
         d="m 1457.65,1930 c 0,-25.37 -20.57,-45.94 -45.93,-45.94 -25.37,0 -45.94,20.57 -45.94,45.94 0,25.37 20.57,45.94 45.94,45.94 25.36,0 45.93,-20.57 45.93,-45.94" /><path
         id="path128"
         style="fill:#372767;fill-opacity:1;fill-rule:nonzero;stroke:none"
         d="m 1411.72,1965.94 c -19.81,0 -35.94,-16.12 -35.94,-35.94 0,-19.81 16.13,-35.94 35.94,-35.94 19.82,0 35.93,16.13 35.93,35.94 0,19.82 -16.11,35.94 -35.93,35.94 z m 0,-91.88 c -30.84,0 -55.94,25.1 -55.94,55.94 0,30.84 25.1,55.94 55.94,55.94 30.84,0 55.93,-25.1 55.93,-55.94 0,-30.84 -25.09,-55.94 -55.93,-55.94" /><path
         id="path130"
         style="fill:#ffffff;fill-opacity:1;fill-rule:nonzero;stroke:none"
         d="m 1774.73,2089.03 c 0,-25.37 -20.57,-45.93 -45.94,-45.93 -25.37,0 -45.94,20.56 -45.94,45.93 0,25.37 20.57,45.94 45.94,45.94 25.37,0 45.94,-20.57 45.94,-45.94" /><path
         id="path132"
         style="fill:#372767;fill-opacity:1;fill-rule:nonzero;stroke:none"
         d="m 1728.79,2124.97 c -19.81,0 -35.94,-16.12 -35.94,-35.94 0,-19.81 16.13,-35.93 35.94,-35.93 19.82,0 35.94,16.12 35.94,35.93 0,19.82 -16.12,35.94 -35.94,35.94 z m 0,-91.87 c -30.84,0 -55.94,25.09 -55.94,55.93 0,30.84 25.1,55.94 55.94,55.94 30.84,0 55.94,-25.1 55.94,-55.94 0,-30.84 -25.1,-55.93 -55.94,-55.93" /><path
         id="path134"
         style="fill:#ffffff;fill-opacity:1;fill-rule:nonzero;stroke:none"
         d="m 885.719,2048.71 c 0,-25.37 -20.567,-45.94 -45.938,-45.94 -25.371,0 -45.937,20.57 -45.937,45.94 0,25.37 20.566,45.94 45.937,45.94 25.371,0 45.938,-20.57 45.938,-45.94" /><path
         id="path136"
         style="fill:#372767;fill-opacity:1;fill-rule:nonzero;stroke:none"
         d="m 839.781,2084.65 c -19.812,0 -35.937,-16.12 -35.937,-35.94 0,-19.81 16.125,-35.94 35.937,-35.94 19.817,0 35.938,16.13 35.938,35.94 0,19.82 -16.121,35.94 -35.938,35.94 z m 0,-91.88 c -30.843,0 -55.937,25.1 -55.937,55.94 0,30.84 25.094,55.94 55.937,55.94 30.848,0 55.938,-25.1 55.938,-55.94 0,-30.84 -25.09,-55.94 -55.938,-55.94" /><path
         id="path138"
         style="fill:#ffffff;fill-opacity:1;fill-rule:nonzero;stroke:none"
         d="m 630.238,2357.35 c 0,-25.36 -20.566,-45.93 -45.937,-45.93 -25.371,0 -45.938,20.57 -45.938,45.93 0,25.38 20.567,45.94 45.938,45.94 25.371,0 45.937,-20.56 45.937,-45.94" /><path
         id="path140"
         style="fill:#372767;fill-opacity:1;fill-rule:nonzero;stroke:none"
         d="m 584.301,2393.29 c -19.817,0 -35.938,-16.12 -35.938,-35.94 0,-19.81 16.121,-35.93 35.938,-35.93 19.812,0 35.937,16.12 35.937,35.93 0,19.82 -16.125,35.94 -35.937,35.94 z m 0,-91.87 c -30.848,0 -55.938,25.09 -55.938,55.93 0,30.85 25.09,55.94 55.938,55.94 30.844,0 55.937,-25.09 55.937,-55.94 0,-30.84 -25.093,-55.93 -55.937,-55.93" /><path
         id="path142"
         style="fill:#ffffff;fill-opacity:1;fill-rule:nonzero;stroke:none"
         d="m 685.07,2813.63 c 0,-25.37 -20.566,-45.93 -45.933,-45.93 -25.371,0 -45.938,20.56 -45.938,45.93 0,25.37 20.567,45.94 45.938,45.94 25.367,0 45.933,-20.57 45.933,-45.94" /><path
         id="path144"
         style="fill:#372767;fill-opacity:1;fill-rule:nonzero;stroke:none"
         d="m 639.137,2849.57 c -19.813,0 -35.938,-16.12 -35.938,-35.94 0,-19.81 16.125,-35.93 35.938,-35.93 19.816,0 35.933,16.12 35.933,35.93 0,19.82 -16.117,35.94 -35.933,35.94 z m 0,-91.87 c -30.844,0 -55.938,25.09 -55.938,55.93 0,30.85 25.094,55.94 55.938,55.94 30.84,0 55.933,-25.09 55.933,-55.94 0,-30.84 -25.093,-55.93 -55.933,-55.93" /><path
         id="path146"
         style="fill:#ffffff;fill-opacity:1;fill-rule:nonzero;stroke:none"
         d="m 583.781,3147.17 c 0,-25.37 -20.566,-45.93 -45.933,-45.93 -25.371,0 -45.938,20.56 -45.938,45.93 0,25.37 20.567,45.94 45.938,45.94 25.367,0 45.933,-20.57 45.933,-45.94" /><path
         id="path148"
         style="fill:#372767;fill-opacity:1;fill-rule:nonzero;stroke:none"
         d="m 537.848,3183.11 c -19.813,0 -35.938,-16.12 -35.938,-35.94 0,-19.81 16.125,-35.93 35.938,-35.93 19.816,0 35.933,16.12 35.933,35.93 0,19.82 -16.117,35.94 -35.933,35.94 z m 0,-91.87 c -30.844,0 -55.938,25.09 -55.938,55.93 0,30.85 25.094,55.94 55.938,55.94 30.84,0 55.933,-25.09 55.933,-55.94 0,-30.84 -25.093,-55.93 -55.933,-55.93" /><path
         id="path150"
         style="fill:#372767;fill-opacity:1;fill-rule:nonzero;stroke:none"
         d="m 1537.34,4191.66 h -526.57 v 218.44 h 526.57 v -218.44" /><path
         id="path152"
         style="fill:#ffffff;fill-opacity:1;fill-rule:nonzero;stroke:none"
         d="m 583.781,3291.94 c 0,-25.37 -20.566,-45.93 -45.933,-45.93 -25.371,0 -45.938,20.56 -45.938,45.93 0,25.38 20.567,45.94 45.938,45.94 25.367,0 45.933,-20.56 45.933,-45.94" /><path
         id="path154"
         style="fill:#372767;fill-opacity:1;fill-rule:nonzero;stroke:none"
         d="m 537.848,3327.88 c -19.813,0 -35.938,-16.12 -35.938,-35.94 0,-19.81 16.125,-35.93 35.938,-35.93 19.816,0 35.933,16.12 35.933,35.93 0,19.82 -16.117,35.94 -35.933,35.94 z m 0,-91.87 c -30.844,0 -55.938,25.09 -55.938,55.93 0,30.85 25.094,55.94 55.938,55.94 30.84,0 55.933,-25.09 55.933,-55.94 0,-30.84 -25.093,-55.93 -55.933,-55.93" /><path
         id="path156"
         style="fill:#ffffff;fill-opacity:1;fill-rule:nonzero;stroke:none"
         d="m 1257.96,537.102 c -5.49,0 -9.95,4.418 -10,9.91 l -9.36,1090.178 c -0.38,51.69 -20.16,100.8 -55.7,138.32 -39.46,41.64 -61.18,96.17 -61.18,153.53 v 86.91 c 0,5.53 4.47,10 10,10 5.52,0 10,-4.47 10,-10 v -86.91 c 0,-52.22 19.78,-101.86 55.7,-139.78 39.04,-41.2 60.77,-95.16 61.18,-151.91 l 9.35,-1090.159 c 0.05,-5.531 -4.38,-10.043 -9.91,-10.089 -0.03,0 -0.05,0 -0.08,0" /><path
         id="path158"
         style="fill:#ffffff;fill-opacity:1;fill-rule:nonzero;stroke:none"
         d="m 1802.98,3055.35 v -186 c 0,-312.4 -198.5,-604.9 -531.3,-782.6 v 1138.3 l 531.3,-169.7" /><path
         id="path160"
         style="fill:#b0c2e8;fill-opacity:1;fill-rule:nonzero;stroke:none"
         d="m 1271.68,3225.05 v -1138.3 c -332.692,177.7 -531.297,470.2 -531.297,782.6 v 186 l 531.297,169.7" /><path
         id="path162"
         style="fill:#372767;fill-opacity:1;fill-rule:nonzero;stroke:none"
         d="m 750.426,3048.01 v -178.69 c 0,-307.07 194.754,-595.05 521.294,-771.27 326.54,176.22 521.29,464.2 521.29,771.27 v 178.69 l -521.29,166.58 z M 1271.72,2076.7 c -1.62,0 -3.24,0.39 -4.72,1.18 -335.98,179.52 -536.574,475.39 -536.574,791.44 v 185.99 c 0,4.35 2.812,8.21 6.961,9.53 l 531.283,169.77 c 2,0.64 4.11,0.64 6.1,0 l 531.29,-169.77 c 4.14,-1.32 6.95,-5.18 6.95,-9.53 v -185.99 c 0,-316.05 -200.59,-611.91 -536.57,-791.44 -1.48,-0.79 -3.1,-1.18 -4.72,-1.18" /><path
         id="path164"
         style="fill:#372767;fill-opacity:1;fill-rule:nonzero;stroke:none"
         d="m 1411.72,2802.35 c 0,82.63 -71.58,148.53 -156.11,139.1 -63.53,-7.09 -115.16,-58.21 -122.83,-121.67 -7.06,-58.35 21.89,-110.5 67.47,-137.66 v -161.91 c 0,-39.48 31.99,-71.47 71.47,-71.47 v 0 c 39.46,0 71.47,31.99 71.47,71.47 v 161.91 c 40.98,24.42 68.53,69.05 68.53,120.23" /><path
         id="path166"
         style="fill:#ffffff;fill-opacity:1;fill-rule:nonzero;stroke:none"
         d="m 1529.22,3965.06 h -503.37 c -30.565,0 -55.346,24.78 -55.346,55.35 v 153.61 c 0,30.57 24.781,55.35 55.346,55.35 h 503.37 c 30.56,0 55.33,-24.78 55.33,-55.35 v -153.61 c 0,-30.57 -24.77,-55.35 -55.33,-55.35" /><path
         id="path168"
         style="fill:#372767;fill-opacity:1;fill-rule:nonzero;stroke:none"
         d="m 1025.85,4219.37 c -25,0 -45.346,-20.35 -45.346,-45.35 v -153.61 c 0,-25 20.346,-45.35 45.346,-45.35 h 503.37 c 25,0 45.33,20.35 45.33,45.35 v 153.61 c 0,25 -20.33,45.35 -45.33,45.35 z m 503.37,-264.31 h -503.37 c -36.034,0 -65.346,29.32 -65.346,65.35 v 153.61 c 0,36.03 29.312,65.35 65.346,65.35 h 503.37 c 36.03,0 65.33,-29.32 65.33,-65.35 v -153.61 c 0,-36.03 -29.3,-65.35 -65.33,-65.35" /></g></g></svg>