<svg class="animated" id="freepik_stories-active-support" xmlns="http://www.w3.org/2000/svg" xmlns:xlink="http://www.w3.org/1999/xlink" viewBox="0 0 500 500" version="1.1" xmlns:svgjs="http://svgjs.com/svgjs"><style>svg#freepik_stories-active-support:not(.animated) .animable {opacity: 0;}svg#freepik_stories-active-support.animated #freepik--background-simple--inject-10 {animation: 1s 1 forwards cubic-bezier(.36,-0.01,.5,1.38) fadeIn;animation-delay: 0s;}svg#freepik_stories-active-support.animated #freepik--Device--inject-10 {animation: 1s 1 forwards cubic-bezier(.36,-0.01,.5,1.38) slideLeft;animation-delay: 0s;}svg#freepik_stories-active-support.animated #freepik--Character--inject-10 {animation: 1s 1 forwards cubic-bezier(.36,-0.01,.5,1.38) slideDown;animation-delay: 0s;}svg#freepik_stories-active-support.animated #freepik--Gears--inject-10 {animation: 1s 1 forwards cubic-bezier(.36,-0.01,.5,1.38) zoomOut,1.5s Infinite  linear wind;animation-delay: 0s,1s;}svg#freepik_stories-active-support.animated #freepik--speech-bubble--inject-10 {animation: 1s 1 forwards cubic-bezier(.36,-0.01,.5,1.38) fadeIn,1.5s Infinite  linear floating;animation-delay: 0s,1s;}            @keyframes fadeIn {                0% {                    opacity: 0;                }                100% {                    opacity: 1;                }            }                    @keyframes slideLeft {                0% {                    opacity: 0;                    transform: translateX(-30px);                }                100% {                    opacity: 1;                    transform: translateX(0);                }            }                    @keyframes slideDown {                0% {                    opacity: 0;                    transform: translateY(-30px);                }                100% {                    opacity: 1;                    transform: translateY(0);                }            }                    @keyframes zoomOut {                0% {                    opacity: 0;                    transform: scale(1.5);                }                100% {                    opacity: 1;                    transform: scale(1);                }            }                    @keyframes wind {                0% {                    transform: rotate( 0deg );                }                25% {                    transform: rotate( 1deg );                }                75% {                    transform: rotate( -1deg );                }            }                    @keyframes floating {                0% {                    opacity: 1;                    transform: translateY(0px);                }                50% {                    transform: translateY(-10px);                }                100% {                    opacity: 1;                    transform: translateY(0px);                }            }        </style><g id="freepik--background-simple--inject-10" class="animable" style="transform-origin: 245.37px 215.903px;"><path d="M321.06,338.34s39-2.43,65.84-50.39,22-121.12-11.38-161.76S290.17,71.72,240.59,84.73c-24.16,6.34-40.27,22.77-54.19,42.58-12.13,17.26-25.77,33.9-44.13,44.82-18.17,10.82-36.86,19.44-46,40-22.34,50-6,108.22,46.81,127.84C200,361.1,295.05,349.72,321.06,338.34Z" style="fill: #2E7D9D; transform-origin: 245.37px 215.903px;" id="elvlnhooj2f2j" class="animable"></path><g id="elrux4k51v3bo"><path d="M321.06,338.34s39-2.43,65.84-50.39,22-121.12-11.38-161.76S290.17,71.72,240.59,84.73c-24.16,6.34-40.27,22.77-54.19,42.58-12.13,17.26-25.77,33.9-44.13,44.82-18.17,10.82-36.86,19.44-46,40-22.34,50-6,108.22,46.81,127.84C200,361.1,295.05,349.72,321.06,338.34Z" style="fill: rgb(255, 255, 255); opacity: 0.7; transform-origin: 245.37px 215.903px;" class="animable" id="el39oxuh8ebl"></path></g></g><g id="freepik--Device--inject-10" class="animable animator-active" style="transform-origin: 247.643px 292.37px;"><path d="M130.66,169.11H364.48a6.42,6.42,0,0,1,6.42,6.42V338.13a0,0,0,0,1,0,0H124.24a0,0,0,0,1,0,0V175.54A6.42,6.42,0,0,1,130.66,169.11Z" style="fill: rgb(38, 50, 56); transform-origin: 247.57px 253.62px;" id="el4ftdnhih8l4" class="animable"></path><path d="M371.41,338.63H123.74V175.54a6.93,6.93,0,0,1,6.92-6.93H364.48a6.94,6.94,0,0,1,6.93,6.93Zm-246.67-1H370.41V175.54a5.94,5.94,0,0,0-5.93-5.93H130.66a5.93,5.93,0,0,0-5.92,5.93Z" style="fill: rgb(38, 50, 56); transform-origin: 247.575px 253.62px;" id="el03qbmgapk6c5" class="animable"></path><path d="M400.57,415.63h-306c-3.38,0-6.23-4.85-4.73-7.88l34.4-66.83H370.91l34.58,66.6C407,410.54,404,415.63,400.57,415.63Z" style="fill: rgb(38, 50, 56); transform-origin: 247.66px 378.275px;" id="eljl0ogmud4ts" class="animable"></path><path d="M400.57,416.13h-306A5.59,5.59,0,0,1,90,413.2a6,6,0,0,1-.63-5.67l34.54-67.11H371.21l.14.26,34.58,66.61a6.11,6.11,0,0,1-.7,5.77A5.88,5.88,0,0,1,400.57,416.13Zm-276-74.71L90.28,408a5,5,0,0,0,.59,4.69,4.67,4.67,0,0,0,3.7,2.46h306a4.88,4.88,0,0,0,3.81-2.6,5.16,5.16,0,0,0,.66-4.79L370.6,341.42Z" style="fill: rgb(38, 50, 56); transform-origin: 247.643px 378.275px;" id="el0hml2mpttpuo" class="animable"></path><path d="M400.57,412.84h-306a4.55,4.55,0,0,1-4.08-6.57l33.75-68.14H370.91l33.74,68.14A4.55,4.55,0,0,1,400.57,412.84Z" style="fill: rgb(255, 255, 255); transform-origin: 247.57px 375.485px;" id="elq4m4k8jckzr" class="animable"></path><path d="M400.57,413.34h-306A5.05,5.05,0,0,1,90,406.05l33.75-68.14a.48.48,0,0,1,.45-.28H370.91a.47.47,0,0,1,.44.28l33.75,68.14a5.05,5.05,0,0,1-4.53,7.29Zm-276-74.71L90.94,406.49a4.05,4.05,0,0,0,3.63,5.85h306a4.05,4.05,0,0,0,3.63-5.85l-33.6-67.86Z" style="fill: rgb(38, 50, 56); transform-origin: 247.55px 375.485px;" id="eluek4fani8es" class="animable"></path><rect x="139.18" y="182.49" width="216.79" height="142.25" style="fill: rgb(255, 255, 255); transform-origin: 247.575px 253.615px;" id="elbbmuaf9o3mf" class="animable"></rect><path d="M356.46,325.24H138.68V182H356.46Zm-216.78-1H355.46V183H139.68Z" style="fill: rgb(38, 50, 56); transform-origin: 247.57px 253.62px;" id="eleu3g2u6bgif" class="animable"></path><rect x="144.81" y="247.32" width="206.32" height="72.3" style="fill: #2E7D9D; transform-origin: 247.97px 283.47px;" id="elne5d48fsx3g" class="animable"></rect><g id="elmsdg8z1p75"><path d="M171.18,290.8V289a1,1,0,0,0-1-1H168.8a8.44,8.44,0,0,0-1.07-2.59l1-1a1,1,0,0,0,0-1.37l-1.29-1.29a1,1,0,0,0-1.38,0l-1,1a8.4,8.4,0,0,0-2.6-1.07v-1.41a1,1,0,0,0-1-1h-1.82a1,1,0,0,0-1,1v1.41a8.44,8.44,0,0,0-2.59,1.07l-1-1a1,1,0,0,0-1.37,0L152.44,283a1,1,0,0,0,0,1.37l1,1a8.44,8.44,0,0,0-1.07,2.59H151a1,1,0,0,0-1,1v1.82a1,1,0,0,0,1,1h1.41a8.4,8.4,0,0,0,1.07,2.6l-1,1a1,1,0,0,0,0,1.37l1.29,1.29a1,1,0,0,0,1.37,0l1-1a8.44,8.44,0,0,0,2.59,1.07v1.41a1,1,0,0,0,1,1h1.82a1,1,0,0,0,1-1v-1.41a8.4,8.4,0,0,0,2.6-1.07l1,1a1,1,0,0,0,1.38,0l1.29-1.29a1,1,0,0,0,0-1.37l-1-1a8.4,8.4,0,0,0,1.07-2.6h1.41A1,1,0,0,0,171.18,290.8ZM161,294a4.16,4.16,0,1,1,3.72-3.72A4.16,4.16,0,0,1,161,294Z" style="fill: rgb(255, 255, 255); opacity: 0.46; transform-origin: 160.59px 289.895px;" class="animable" id="elfwd8mi7fhje"></path></g><g id="els62onsqxc4g"><path d="M188.35,303.55v-1.82a1,1,0,0,0-1-1H186a8.42,8.42,0,0,0-1.08-2.6l1-1a1,1,0,0,0,0-1.38l-1.29-1.29a1,1,0,0,0-1.38,0l-1,1a8.5,8.5,0,0,0-2.6-1.07V293a1,1,0,0,0-1-1h-1.83a1,1,0,0,0-1,1v1.41a8.5,8.5,0,0,0-2.6,1.07l-1-1a1,1,0,0,0-1.38,0l-1.29,1.29a1,1,0,0,0,0,1.38l1,1a8.18,8.18,0,0,0-1.08,2.6h-1.4a1,1,0,0,0-1,1v1.82a1,1,0,0,0,1,1h1.4a8.13,8.13,0,0,0,1.08,2.59l-1,1a1,1,0,0,0,0,1.38l1.29,1.28a1,1,0,0,0,1.38,0l1-1a8.5,8.5,0,0,0,2.6,1.07v1.41a1,1,0,0,0,1,1h1.83a1,1,0,0,0,1-1v-1.41a8.5,8.5,0,0,0,2.6-1.07l1,1a1,1,0,0,0,1.38,0l1.29-1.28a1,1,0,0,0,0-1.38l-1-1a8.36,8.36,0,0,0,1.08-2.59h1.4A1,1,0,0,0,188.35,303.55Zm-10.18,3.24a4.17,4.17,0,1,1,3.72-3.72A4.17,4.17,0,0,1,178.17,306.79Z" style="fill: rgb(255, 255, 255); opacity: 0.46; transform-origin: 177.71px 302.65px;" class="animable" id="el6jlg17qkkl"></path></g><path d="M190.3,254.28H152.9a.43.43,0,0,1-.43-.43.44.44,0,0,1,.43-.44h37.4a.44.44,0,0,1,.44.44A.44.44,0,0,1,190.3,254.28Z" style="fill: rgb(38, 50, 56); transform-origin: 171.605px 253.845px;" id="elgs2alld9bss" class="animable"></path><path d="M190.3,259.68H152.9a.44.44,0,0,1-.43-.44.43.43,0,0,1,.43-.43h37.4a.44.44,0,0,1,.44.43A.44.44,0,0,1,190.3,259.68Z" style="fill: rgb(38, 50, 56); transform-origin: 171.605px 259.245px;" id="elaa662yiey2l" class="animable"></path><path d="M190.3,265.07H152.9a.43.43,0,0,1-.43-.43.44.44,0,0,1,.43-.44h37.4a.44.44,0,0,1,.44.44A.44.44,0,0,1,190.3,265.07Z" style="fill: rgb(38, 50, 56); transform-origin: 171.605px 264.635px;" id="ela8r843y9q6" class="animable"></path><path d="M190.3,270.47H152.9a.44.44,0,0,1-.43-.44.43.43,0,0,1,.43-.43h37.4a.44.44,0,0,1,.44.43A.44.44,0,0,1,190.3,270.47Z" style="fill: rgb(38, 50, 56); transform-origin: 171.605px 270.035px;" id="el9buak867nra" class="animable"></path><rect x="144.81" y="189.2" width="206.32" height="8.37" rx="3.96" style="fill: #2E7D9D; transform-origin: 247.97px 193.385px;" id="elo9l6vn95gas" class="animable"></rect><rect x="144.81" y="216.8" width="206.32" height="8.37" rx="3.96" style="fill: #2E7D9D; transform-origin: 247.97px 220.985px;" id="el1pmluzfse4a" class="animable"></rect><polygon points="237.28 361.78 237.71 352.67 224.68 352.67 223.81 361.78 237.28 361.78" style="fill: rgb(38, 50, 56); transform-origin: 230.76px 357.225px;" id="elf01f5cy7sl" class="animable"></polygon><path d="M237.76,362.28h-14.5l1-10.11h14Zm-13.4-1H236.8l.39-8.11H225.13Z" style="fill: rgb(255, 255, 255); transform-origin: 230.76px 357.225px;" id="el453lfupfpcl" class="animable"></path><polygon points="264.22 361.78 263.78 352.67 250.74 352.67 250.75 361.78 264.22 361.78" style="fill: rgb(38, 50, 56); transform-origin: 257.48px 357.225px;" id="eln13aveww2a" class="animable"></polygon><path d="M264.75,362.28h-14.5V352.17h14Zm-13.5-1h12.44l-.39-8.11H251.24Z" style="fill: rgb(255, 255, 255); transform-origin: 257.5px 357.225px;" id="elk9ao9psw408" class="animable"></path><polygon points="334.37 371.51 348.31 371.51 345.04 361.78 331.57 361.78 334.37 371.51" style="fill: rgb(38, 50, 56); transform-origin: 339.94px 366.645px;" id="elygjwwnl624e" class="animable"></polygon><path d="M349,372H334l-3.1-10.73h14.5Zm-14.25-1h12.86l-2.93-8.73H332.23Z" style="fill: rgb(255, 255, 255); transform-origin: 339.95px 366.635px;" id="el350l37kwx6h" class="animable"></path><polygon points="223.81 361.78 224.68 352.67 211.64 352.67 210.34 361.78 223.81 361.78" style="fill: rgb(38, 50, 56); transform-origin: 217.51px 357.225px;" id="elaaxc4jaci7" class="animable"></polygon><path d="M224.27,362.28h-14.5l1.44-10.11h14Zm-13.35-1h12.44l.77-8.11h-12Z" style="fill: rgb(255, 255, 255); transform-origin: 217.49px 357.225px;" id="el1jdvfbed0o6" class="animable"></path><polygon points="196.87 361.78 198.61 352.67 185.57 352.67 183.4 361.78 196.87 361.78" style="fill: rgb(38, 50, 56); transform-origin: 191.005px 357.225px;" id="elqr9o8hcg63" class="animable"></polygon><path d="M197.29,362.28H182.77l2.41-10.11h14Zm-13.25-1h12.42l1.54-8.11H186Z" style="fill: rgb(255, 255, 255); transform-origin: 190.975px 357.225px;" id="eljcjt0jbuvic" class="animable"></path><polygon points="318.1 361.78 315.91 352.67 302.88 352.67 304.63 361.78 318.1 361.78" style="fill: rgb(38, 50, 56); transform-origin: 310.49px 357.225px;" id="elhf6yn94k78f" class="animable"></polygon><path d="M318.73,362.28H304.21l-1.94-10.11h14Zm-13.69-1h12.42l-1.94-8.11h-12Z" style="fill: rgb(255, 255, 255); transform-origin: 310.5px 357.225px;" id="elokz4o03bv4" class="animable"></path><polygon points="331.57 361.78 328.94 352.67 315.91 352.67 318.1 361.78 331.57 361.78" style="fill: rgb(38, 50, 56); transform-origin: 323.74px 357.225px;" id="el8hrjq7fs0nr" class="animable"></polygon><path d="M332.23,362.28H317.7l-2.42-10.11h14Zm-13.74-1H330.9l-2.33-8.11h-12Z" style="fill: rgb(255, 255, 255); transform-origin: 323.755px 357.225px;" id="elvd8cagr69w" class="animable"></path><polygon points="183.4 361.78 185.57 352.67 172.54 352.67 169.93 361.78 183.4 361.78" style="fill: rgb(38, 50, 56); transform-origin: 177.75px 357.225px;" id="el1a0mnc4f7nv" class="animable"></polygon><path d="M183.8,362.28H169.27l2.89-10.11h14.05Zm-13.2-1H183l1.93-8.11h-12Z" style="fill: rgb(255, 255, 255); transform-origin: 177.74px 357.225px;" id="el38g6ro5sxqm" class="animable"></path><polygon points="277.69 361.78 276.81 352.67 263.78 352.67 264.22 361.78 277.69 361.78" style="fill: rgb(38, 50, 56); transform-origin: 270.735px 357.225px;" id="el3y2pvl4jubw" class="animable"></polygon><path d="M278.24,362.28h-14.5l-.49-10.11h14Zm-13.54-1h12.44l-.78-8.11H264.3Z" style="fill: rgb(255, 255, 255); transform-origin: 270.745px 357.225px;" id="el1do0loblsii" class="animable"></path><polygon points="345.04 361.78 341.98 352.67 328.94 352.67 331.57 361.78 345.04 361.78" style="fill: rgb(38, 50, 56); transform-origin: 336.99px 357.225px;" id="elau80o325l6m" class="animable"></polygon><path d="M345.73,362.28H331.19l-2.91-10.11h14.06Zm-13.79-1h12.4l-2.72-8.11h-12Z" style="fill: rgb(255, 255, 255); transform-origin: 337.005px 357.225px;" id="elqxeee9crc5q" class="animable"></path><polygon points="304.63 361.78 302.88 352.67 289.84 352.67 291.16 361.78 304.63 361.78" style="fill: rgb(38, 50, 56); transform-origin: 297.235px 357.225px;" id="ellavkufaosdi" class="animable"></polygon><path d="M305.23,362.28h-14.5l-1.46-10.11h14Zm-13.64-1H304l-1.56-8.11h-12Z" style="fill: rgb(255, 255, 255); transform-origin: 297.25px 357.225px;" id="elymzhxfi3b2g" class="animable"></path><polygon points="291.16 361.78 289.84 352.67 276.81 352.67 277.69 361.78 291.16 361.78" style="fill: rgb(38, 50, 56); transform-origin: 283.985px 357.225px;" id="el6qj0kl7929u" class="animable"></polygon><path d="M291.74,362.28h-14.5l-1-10.11h14Zm-13.6-1h12.44l-1.17-8.11H277.36Z" style="fill: rgb(255, 255, 255); transform-origin: 283.99px 357.225px;" id="elbdowrk9vp9f" class="animable"></path><polygon points="250.75 361.78 250.74 352.67 237.71 352.67 237.28 361.78 250.75 361.78" style="fill: rgb(38, 50, 56); transform-origin: 244.015px 357.225px;" id="elndbtrhh2uf" class="animable"></polygon><path d="M251.25,362.28H236.76l.47-10.11h14Zm-13.44-1h12.44v-8.11H238.19Z" style="fill: rgb(255, 255, 255); transform-origin: 244.005px 357.225px;" id="el4lrwa9v20sm" class="animable"></path><polygon points="156.47 361.78 143 361.78 139.28 371.51 153.21 371.51 156.47 361.78" style="fill: rgb(38, 50, 56); transform-origin: 147.875px 366.645px;" id="elv7gmo1888f" class="animable"></polygon><path d="M153.57,372h-15l4.1-10.73h14.51ZM140,371h12.85l2.92-8.73H143.34Z" style="fill: rgb(255, 255, 255); transform-origin: 147.875px 366.635px;" id="eln7oleuqmnn8" class="animable"></path><polygon points="159.51 352.67 146.47 352.67 143 361.78 156.47 361.78 159.51 352.67" style="fill: rgb(38, 50, 56); transform-origin: 151.255px 357.225px;" id="eloe0x3v8botm" class="animable"></polygon><path d="M156.82,362.28H142.27l3.86-10.11H160.2Zm-13.1-1H156.1l2.71-8.11h-12Z" style="fill: rgb(255, 255, 255); transform-origin: 151.235px 357.225px;" id="elhrhpgemze0s" class="animable"></path><polygon points="169.93 361.78 172.54 352.67 159.51 352.67 156.47 361.78 169.93 361.78" style="fill: rgb(38, 50, 56); transform-origin: 164.505px 357.225px;" id="el3282vg8xqny" class="animable"></polygon><path d="M170.31,362.28H155.77l3.38-10.11h14Zm-13.15-1h12.4l2.32-8.11h-12Z" style="fill: rgb(255, 255, 255); transform-origin: 164.46px 357.225px;" id="elo3n0sy27we" class="animable"></path><polygon points="135.29 381.94 131.01 393.15 145.98 393.15 149.73 381.94 135.29 381.94" style="fill: rgb(38, 50, 56); transform-origin: 140.37px 387.545px;" id="elaoy2vkodusi" class="animable"></polygon><path d="M146.34,393.65H130.28L135,381.44h15.47Zm-14.61-1h13.89L149,382.44H135.64Z" style="fill: rgb(255, 255, 255); transform-origin: 140.375px 387.545px;" id="elid9922vf7ap" class="animable"></path><polygon points="153.21 371.51 139.28 371.51 135.29 381.94 149.73 381.94 153.21 371.51" style="fill: rgb(38, 50, 56); transform-origin: 144.25px 376.725px;" id="elkfkia07v5gb" class="animable"></polygon><path d="M150.09,382.44H134.56L138.93,371h15Zm-14.07-1h13.35l3.15-9.43h-12.9Z" style="fill: rgb(255, 255, 255); transform-origin: 144.245px 376.72px;" id="elh20uf2szd18" class="animable"></path><polygon points="149.73 381.94 145.98 393.15 160.95 393.15 164.16 381.94 149.73 381.94" style="fill: rgb(38, 50, 56); transform-origin: 155.07px 387.545px;" id="eltyfif581g8n" class="animable"></polygon><path d="M161.33,393.65h-16l4.08-12.21h15.45Zm-14.66-1h13.9l2.93-10.21H150.09Z" style="fill: rgb(255, 255, 255); transform-origin: 155.095px 387.545px;" id="el27hcibpko8z" class="animable"></path><polygon points="210.34 361.78 211.64 352.67 198.61 352.67 196.87 361.78 210.34 361.78" style="fill: rgb(38, 50, 56); transform-origin: 204.255px 357.225px;" id="el25ef3t2av13" class="animable"></polygon><path d="M210.78,362.28H196.27l1.92-10.11h14Zm-13.3-1h12.43l1.15-8.11H199Z" style="fill: rgb(255, 255, 255); transform-origin: 204.23px 357.225px;" id="elqz880rtqclf" class="animable"></path><polygon points="208.95 371.51 210.34 361.78 196.87 361.78 195.02 371.51 208.95 371.51" style="fill: rgb(38, 50, 56); transform-origin: 202.68px 366.645px;" id="el2p84n8ntou3" class="animable"></polygon><path d="M209.39,372h-15l2.05-10.73h14.46Zm-13.77-1h12.9l1.25-8.73H197.29Z" style="fill: rgb(255, 255, 255); transform-origin: 202.645px 366.635px;" id="elx31dfhluql" class="animable"></path><polygon points="195.02 371.51 196.87 361.78 183.4 361.78 181.08 371.51 195.02 371.51" style="fill: rgb(38, 50, 56); transform-origin: 188.975px 366.645px;" id="el4d69bqxvf0u" class="animable"></polygon><path d="M195.43,372h-15L183,361.28h14.47Zm-13.71-1H194.6l1.67-8.73H183.8Z" style="fill: rgb(255, 255, 255); transform-origin: 188.95px 366.64px;" id="el5qnv22a3i55" class="animable"></path><polygon points="222.89 371.51 223.81 361.78 210.34 361.78 208.95 371.51 222.89 371.51" style="fill: rgb(38, 50, 56); transform-origin: 216.38px 366.645px;" id="elmxfd9l0ot9a" class="animable"></polygon><path d="M223.34,372h-15l1.53-10.73h14.45Zm-13.81-1h12.9l.83-8.73H210.78Z" style="fill: rgb(255, 255, 255); transform-origin: 216.33px 366.635px;" id="el9rig6dq3yk" class="animable"></path><polygon points="169.93 361.78 156.47 361.78 153.21 371.51 167.15 371.51 169.93 361.78" style="fill: rgb(38, 50, 56); transform-origin: 161.57px 366.645px;" id="elf5tk5i64o7n" class="animable"></polygon><path d="M167.52,372h-15l3.58-10.73h14.5Zm-13.61-1h12.86l2.5-8.73H156.82Z" style="fill: rgb(255, 255, 255); transform-origin: 161.56px 366.635px;" id="elvmhtqckye9f" class="animable"></path><polygon points="337.38 381.94 351.81 381.94 348.31 371.51 334.37 371.51 337.38 381.94" style="fill: rgb(38, 50, 56); transform-origin: 343.09px 376.725px;" id="elc136fj71ay" class="animable"></polygon><path d="M352.51,382.44H337L333.71,371h15Zm-14.76-1h13.37L348,372H335Z" style="fill: rgb(255, 255, 255); transform-origin: 343.11px 376.72px;" id="el6ec2lu1k6ya" class="animable"></path><polygon points="181.08 371.51 183.4 361.78 169.93 361.78 167.15 371.51 181.08 371.51" style="fill: rgb(38, 50, 56); transform-origin: 175.275px 366.645px;" id="elddn629vv2kt" class="animable"></polygon><path d="M181.48,372h-15l3.08-10.73H184Zm-13.67-1h12.88l2.08-8.73H170.31Z" style="fill: rgb(255, 255, 255); transform-origin: 175.24px 366.635px;" id="eld2auaelw4tk" class="animable"></path><polygon points="153.21 371.51 149.73 381.94 164.16 381.94 167.15 371.51 153.21 371.51" style="fill: rgb(38, 50, 56); transform-origin: 158.44px 376.725px;" id="el0mvdfr2pxa0m" class="animable"></polygon><path d="M164.54,382.44H149L152.85,371h15Zm-14.12-1h13.36l2.7-9.43H153.57Z" style="fill: rgb(255, 255, 255); transform-origin: 158.425px 376.72px;" id="elvz4gdjs01ff" class="animable"></path><polygon points="306.5 371.51 304.63 361.78 291.16 361.78 292.57 371.51 306.5 371.51" style="fill: rgb(38, 50, 56); transform-origin: 298.83px 366.645px;" id="el1ssvwnrjiod" class="animable"></polygon><path d="M307.11,372h-15l-1.55-10.73H305ZM293,371h12.9l-1.69-8.73H291.74Z" style="fill: rgb(255, 255, 255); transform-origin: 298.835px 366.635px;" id="elf2tyrz478ma" class="animable"></path><polygon points="292.57 371.51 291.16 361.78 277.69 361.78 278.63 371.51 292.57 371.51" style="fill: rgb(38, 50, 56); transform-origin: 285.13px 366.645px;" id="elr7vc8g4ic3" class="animable"></polygon><path d="M293.14,372h-15l-1-10.73h14.45Zm-14.06-1H292l-1.26-8.73H278.24Z" style="fill: rgb(255, 255, 255); transform-origin: 285.14px 366.635px;" id="el8o7mvy0u8t6" class="animable"></path><polygon points="334.37 371.51 331.57 361.78 318.1 361.78 320.44 371.51 334.37 371.51" style="fill: rgb(38, 50, 56); transform-origin: 326.235px 366.645px;" id="elq943r6n9iri" class="animable"></polygon><path d="M335,372H320l-2.58-10.73h14.48Zm-14.21-1h12.88l-2.52-8.73H318.73Z" style="fill: rgb(255, 255, 255); transform-origin: 326.21px 366.635px;" id="el4458o39bfli" class="animable"></path><polygon points="250.76 371.51 250.75 361.78 237.28 361.78 236.82 371.51 250.76 371.51" style="fill: rgb(38, 50, 56); transform-origin: 243.79px 366.645px;" id="el3f7eucw54q7" class="animable"></polygon><path d="M251.26,372h-15l.5-10.73h14.45Zm-13.91-1h12.91v-8.73H237.76Z" style="fill: rgb(255, 255, 255); transform-origin: 243.76px 366.635px;" id="elpxnjhvgc3cl" class="animable"></path><polygon points="278.63 371.51 277.69 361.78 264.22 361.78 264.69 371.51 278.63 371.51" style="fill: rgb(38, 50, 56); transform-origin: 271.425px 366.645px;" id="ell397v94uutg" class="animable"></polygon><path d="M279.18,372h-15l-.53-10.73h14.45Zm-14-1h12.91l-.84-8.73H264.75Z" style="fill: rgb(255, 255, 255); transform-origin: 271.415px 366.635px;" id="el7i8uug4tqoe" class="animable"></path><polygon points="264.69 371.51 264.22 361.78 250.75 361.78 250.76 371.51 264.69 371.51" style="fill: rgb(38, 50, 56); transform-origin: 257.72px 366.645px;" id="eleitgz3mdv55" class="animable"></polygon><path d="M265.22,372h-15V361.28H264.7Zm-14-1h12.91l-.43-8.73H251.25Z" style="fill: rgb(255, 255, 255); transform-origin: 257.72px 366.64px;" id="elxh06qjj9ot" class="animable"></path><polygon points="236.82 371.51 237.28 361.78 223.81 361.78 222.89 371.51 236.82 371.51" style="fill: rgb(38, 50, 56); transform-origin: 230.085px 366.645px;" id="elhbaqa58gxel" class="animable"></polygon><path d="M237.3,372h-15l1-10.73h14.45Zm-13.86-1h12.91l.41-8.73H224.27Z" style="fill: rgb(255, 255, 255); transform-origin: 230.025px 366.635px;" id="eljaet29cebl" class="animable"></path><polygon points="278.63 371.51 279.64 381.94 294.07 381.94 292.57 371.51 278.63 371.51" style="fill: rgb(38, 50, 56); transform-origin: 286.35px 376.725px;" id="el1g9uej5dssc" class="animable"></polygon><path d="M294.65,382.44H279.18L278.08,371H293Zm-14.56-1H293.5L292.13,372H279.18Z" style="fill: rgb(255, 255, 255); transform-origin: 286.365px 376.72px;" id="elb1htl9lhbgj" class="animable"></path><polygon points="292.57 371.51 294.07 381.94 308.51 381.94 306.5 371.51 292.57 371.51" style="fill: rgb(38, 50, 56); transform-origin: 300.54px 376.725px;" id="eljhb0vp0wg0s" class="animable"></polygon><path d="M309.11,382.44H293.64L292,371h14.92Zm-14.6-1H307.9L306.09,372H293.14Z" style="fill: rgb(255, 255, 255); transform-origin: 300.555px 376.72px;" id="el821er88rwr7" class="animable"></path><polygon points="167.15 371.51 164.16 381.94 178.59 381.94 181.08 371.51 167.15 371.51" style="fill: rgb(38, 50, 56); transform-origin: 172.62px 376.725px;" id="el84dqouvk6tp" class="animable"></polygon><path d="M179,382.44H163.5L166.77,371h14.95Zm-14.17-1H178.2l2.25-9.43H167.52Z" style="fill: rgb(255, 255, 255); transform-origin: 172.61px 376.72px;" id="el9xgtrwg4t8" class="animable"></path><polygon points="306.5 371.51 308.51 381.94 322.94 381.94 320.44 371.51 306.5 371.51" style="fill: rgb(38, 50, 56); transform-origin: 314.72px 376.725px;" id="eludsqrlymbr" class="animable"></polygon><path d="M323.58,382.44H308.1L305.9,371h14.93Zm-14.66-1h13.39L320,372H307.11Z" style="fill: rgb(255, 255, 255); transform-origin: 314.74px 376.72px;" id="elpm9v596gt2k" class="animable"></path><polygon points="250.76 371.51 250.77 381.94 265.2 381.94 264.69 371.51 250.76 371.51" style="fill: rgb(38, 50, 56); transform-origin: 257.98px 376.725px;" id="elpst8ua8jnwd" class="animable"></polygon><path d="M265.73,382.44H250.27V371h14.91Zm-14.46-1h13.41l-.46-9.43h-13Z" style="fill: rgb(255, 255, 255); transform-origin: 258px 376.72px;" id="elvsyjsq1acj" class="animable"></path><polygon points="320.44 371.51 322.94 381.94 337.38 381.94 334.37 371.51 320.44 371.51" style="fill: rgb(38, 50, 56); transform-origin: 328.91px 376.725px;" id="elcqgkr95rbua" class="animable"></polygon><path d="M338,382.44H322.55L319.8,371h14.95Zm-14.7-1h13.37L334,372H321.07Z" style="fill: rgb(255, 255, 255); transform-origin: 328.9px 376.72px;" id="elubygty89pe" class="animable"></path><polygon points="264.69 371.51 265.2 381.94 279.64 381.94 278.63 371.51 264.69 371.51" style="fill: rgb(38, 50, 56); transform-origin: 272.165px 376.725px;" id="elx48oev3ht4" class="animable"></polygon><path d="M280.19,382.44H264.73L264.17,371h14.91Zm-14.51-1h13.41l-.91-9.43h-13Z" style="fill: rgb(255, 255, 255); transform-origin: 272.18px 376.72px;" id="elvjpva8fsktp" class="animable"></path><polygon points="195.02 371.51 193.03 381.94 207.47 381.94 208.95 371.51 195.02 371.51" style="fill: rgb(38, 50, 56); transform-origin: 200.99px 376.725px;" id="elhgkhhob0toq" class="animable"></polygon><path d="M207.9,382.44H192.43L194.6,371h14.93Zm-14.27-1H207l1.35-9.43H195.43Z" style="fill: rgb(255, 255, 255); transform-origin: 200.98px 376.72px;" id="elkl2sgqqsnam" class="animable"></path><polygon points="181.08 371.51 178.59 381.94 193.03 381.94 195.02 371.51 181.08 371.51" style="fill: rgb(38, 50, 56); transform-origin: 186.805px 376.725px;" id="el33yrggqdppt" class="animable"></polygon><path d="M193.44,382.44H178L180.69,371h14.93Zm-14.21-1h13.39l1.79-9.43H181.48Z" style="fill: rgb(255, 255, 255); transform-origin: 186.81px 376.72px;" id="eltx6z87ct83" class="animable"></path><polygon points="236.82 371.51 236.34 381.94 250.77 381.94 250.76 371.51 236.82 371.51" style="fill: rgb(38, 50, 56); transform-origin: 243.555px 376.725px;" id="elnemc5slc40m" class="animable"></polygon><path d="M251.27,382.44H235.81l.54-11.43h14.91Zm-14.41-1h13.41V372h-13Z" style="fill: rgb(255, 255, 255); transform-origin: 243.54px 376.725px;" id="elp1rmw195woi" class="animable"></path><polygon points="222.89 371.51 221.9 381.94 236.34 381.94 236.82 371.51 222.89 371.51" style="fill: rgb(38, 50, 56); transform-origin: 229.36px 376.725px;" id="elwdicg4fmut" class="animable"></polygon><path d="M236.81,382.44H221.35L222.43,371h14.92Zm-14.36-1h13.41l.44-9.43h-13Z" style="fill: rgb(255, 255, 255); transform-origin: 229.35px 376.72px;" id="eliqy4yd3ycsj" class="animable"></path><polygon points="208.95 371.51 207.47 381.94 221.9 381.94 222.89 371.51 208.95 371.51" style="fill: rgb(38, 50, 56); transform-origin: 215.18px 376.725px;" id="el0djko91ibmtn" class="animable"></polygon><path d="M222.35,382.44H206.89L208.52,371h14.92Zm-14.31-1h13.4l.9-9.43h-13Z" style="fill: rgb(255, 255, 255); transform-origin: 215.165px 376.72px;" id="elrz82e8xu9il" class="animable"></path><polygon points="320.44 371.51 318.1 361.78 304.63 361.78 306.5 371.51 320.44 371.51" style="fill: rgb(38, 50, 56); transform-origin: 312.535px 366.645px;" id="els0ymn1h7s5" class="animable"></polygon><path d="M321.07,372h-15L304,361.28h14.47Zm-14.16-1H319.8l-2.1-8.73H305.23Z" style="fill: rgb(255, 255, 255); transform-origin: 312.535px 366.64px;" id="el5y3sljd94wl" class="animable"></path><polygon points="159.51 352.67 162.62 343.35 150.03 343.35 146.47 352.67 159.51 352.67" style="fill: rgb(38, 50, 56); transform-origin: 154.545px 348.01px;" id="elquja2t4hmnc" class="animable"></polygon><path d="M159.87,353.17H145.75l3.94-10.32h13.63Zm-12.67-1h12l2.78-8.32H150.38Z" style="fill: rgb(255, 255, 255); transform-origin: 154.535px 348.01px;" id="el2kxgxyrkfgm" class="animable"></path><polygon points="146.47 352.67 134.44 352.67 130.56 361.78 143 361.78 146.47 352.67" style="fill: rgb(38, 50, 56); transform-origin: 138.515px 357.225px;" id="ela9p2kpi5ay" class="animable"></polygon><path d="M143.34,362.28H129.81l4.3-10.11H147.2Zm-12-1h11.33l3.1-8.11h-11Z" style="fill: rgb(255, 255, 255); transform-origin: 138.505px 357.225px;" id="el56oeklc3xof" class="animable"></path><polygon points="150.03 343.35 138.41 343.35 134.44 352.67 146.47 352.67 150.03 343.35" style="fill: rgb(38, 50, 56); transform-origin: 142.235px 348.01px;" id="elxaspm7ys19" class="animable"></polygon><path d="M146.82,353.17H133.69l4.39-10.32h12.68Zm-11.62-1h10.93l3.18-8.32H138.75Z" style="fill: rgb(255, 255, 255); transform-origin: 142.225px 348.01px;" id="eln7jktn4blpc" class="animable"></path><polygon points="143 361.78 130.56 361.78 126.41 371.51 139.28 371.51 143 361.78" style="fill: rgb(38, 50, 56); transform-origin: 134.705px 366.645px;" id="elc5xmyrd9idm" class="animable"></polygon><path d="M139.62,372h-14l4.57-10.73h13.49Zm-12.45-1h11.76l3.34-8.73H130.89Z" style="fill: rgb(255, 255, 255); transform-origin: 134.65px 366.635px;" id="el8x9rkkng0vx" class="animable"></path><polygon points="139.28 371.51 126.41 371.51 121.97 381.94 135.29 381.94 139.28 371.51" style="fill: rgb(38, 50, 56); transform-origin: 130.625px 376.725px;" id="elclz8142w27t" class="animable"></polygon><path d="M135.64,382.44H121.21L126.08,371H140Zm-12.92-1H135l3.6-9.43H126.74Z" style="fill: rgb(255, 255, 255); transform-origin: 130.605px 376.72px;" id="eldva7f4lbkrb" class="animable"></path><polygon points="135.29 381.94 121.97 381.94 117.19 393.15 131.01 393.15 135.29 381.94" style="fill: rgb(38, 50, 56); transform-origin: 126.24px 387.545px;" id="eloxjb28zy78" class="animable"></polygon><path d="M131.35,393.65H116.43l5.21-12.21H136Zm-13.4-1h12.71l3.9-10.21H122.3Z" style="fill: rgb(255, 255, 255); transform-origin: 126.215px 387.545px;" id="eln3tbdokric" class="animable"></path><polygon points="358.51 361.78 362.24 371.51 374.57 371.51 370.42 361.78 358.51 361.78" style="fill: rgb(38, 50, 56); transform-origin: 366.54px 366.645px;" id="elgc1z1vulzo4" class="animable"></polygon><path d="M375.33,372H361.9l-4.12-10.73h13Zm-12.74-1h11.22l-3.72-8.73H359.23Z" style="fill: rgb(255, 255, 255); transform-origin: 366.555px 366.635px;" id="eldcg4lg5phs" class="animable"></path><polygon points="366.25 381.94 379.02 381.94 374.57 371.51 362.24 371.51 366.25 381.94" style="fill: rgb(38, 50, 56); transform-origin: 370.63px 376.725px;" id="el6mu043zr8zt" class="animable"></polygon><path d="M379.77,382.44H365.9L361.52,371H374.9Zm-13.18-1h11.67l-4-9.43H363Z" style="fill: rgb(255, 255, 255); transform-origin: 370.645px 376.72px;" id="elph60lpk1gf" class="animable"></path><polygon points="370.55 393.15 383.79 393.15 379.02 381.94 366.25 381.94 370.55 393.15" style="fill: rgb(38, 50, 56); transform-origin: 375.02px 387.545px;" id="elbx8oe8fn2d" class="animable"></polygon><path d="M384.55,393.65H370.21l-4.69-12.21h13.83Zm-13.66-1H383l-4.35-10.21H367Z" style="fill: rgb(255, 255, 255); transform-origin: 375.035px 387.545px;" id="el560ngmx70u9" class="animable"></path><polygon points="263.78 352.67 263.32 343.35 250.73 343.35 250.74 352.67 263.78 352.67" style="fill: rgb(38, 50, 56); transform-origin: 257.255px 348.01px;" id="ela72qer48tac" class="animable"></polygon><path d="M264.3,353.17H250.24V342.85H263.8Zm-13.06-1h12l-.41-8.32H251.23Z" style="fill: rgb(255, 255, 255); transform-origin: 257.27px 348.01px;" id="elrwavy7titi8" class="animable"></path><polygon points="358.51 361.78 370.42 361.78 366.54 352.67 355.01 352.67 358.51 361.78" style="fill: rgb(38, 50, 56); transform-origin: 362.715px 357.225px;" id="el42aicpp9gkn" class="animable"></polygon><path d="M371.18,362.28h-13l-3.88-10.11h12.59Zm-12.33-1h10.81l-3.45-8.11H355.74Z" style="fill: rgb(255, 255, 255); transform-origin: 362.74px 357.225px;" id="elumd6k8zp4op" class="animable"></path><polygon points="351.81 381.94 366.25 381.94 362.24 371.51 348.31 371.51 351.81 381.94" style="fill: rgb(38, 50, 56); transform-origin: 357.28px 376.725px;" id="elgz2cyk4lll" class="animable"></polygon><path d="M367,382.44H351.45L347.61,371h15Zm-14.81-1h13.35L361.9,372H349Z" style="fill: rgb(255, 255, 255); transform-origin: 357.305px 376.72px;" id="elac882u8v24c" class="animable"></path><polygon points="172.54 352.67 175.21 343.35 162.62 343.35 159.51 352.67 172.54 352.67" style="fill: rgb(38, 50, 56); transform-origin: 167.36px 348.01px;" id="elltsijph97e" class="animable"></polygon><path d="M172.92,353.17H158.81l3.45-10.32h13.61Zm-12.72-1h12l2.39-8.32H163Z" style="fill: rgb(255, 255, 255); transform-origin: 167.34px 348.01px;" id="elcaw63eozwtd" class="animable"></path><polygon points="341.98 352.67 345.04 361.78 358.51 361.78 355.01 352.67 341.98 352.67" style="fill: rgb(38, 50, 56); transform-origin: 350.245px 357.225px;" id="elyzc0g0ii3u" class="animable"></polygon><path d="M359.23,362.28H344.68l-3.4-10.11h14.07Zm-13.83-1h12.38l-3.11-8.11h-12Z" style="fill: rgb(255, 255, 255); transform-origin: 350.255px 357.225px;" id="el4da7fz6plp4" class="animable"></path><polygon points="366.54 352.67 362.57 343.35 351.43 343.35 355.01 352.67 366.54 352.67" style="fill: rgb(38, 50, 56); transform-origin: 358.985px 348.01px;" id="elfaod8ybp2ub" class="animable"></polygon><path d="M367.3,353.17H354.67l-4-10.32H362.9Zm-11.95-1h10.43l-3.54-8.32H352.16Z" style="fill: rgb(255, 255, 255); transform-origin: 358.985px 348.01px;" id="elhp0syq4jfo9" class="animable"></path><polygon points="355.01 352.67 351.43 343.35 338.85 343.35 341.98 352.67 355.01 352.67" style="fill: rgb(38, 50, 56); transform-origin: 346.93px 348.01px;" id="ela2yz8ero1eb" class="animable"></polygon><path d="M355.74,353.17H341.62l-3.47-10.32h13.63Zm-13.4-1h11.94l-3.19-8.32H339.54Z" style="fill: rgb(255, 255, 255); transform-origin: 346.945px 348.01px;" id="elqonjpyvhkn" class="animable"></path><polygon points="308.51 381.94 310.67 393.15 325.64 393.15 322.94 381.94 308.51 381.94" style="fill: rgb(38, 50, 56); transform-origin: 317.075px 387.545px;" id="elvobx9xex3dr" class="animable"></polygon><path d="M326.27,393.65h-16l-2.35-12.21h15.44Zm-15.19-1H325l-2.45-10.21H309.11Z" style="fill: rgb(255, 255, 255); transform-origin: 317.095px 387.545px;" id="elhd4u0a10on4" class="animable"></path><polygon points="355.58 393.15 370.55 393.15 366.25 381.94 351.81 381.94 355.58 393.15" style="fill: rgb(38, 50, 56); transform-origin: 361.18px 387.545px;" id="el2gynqy2s0ma" class="animable"></polygon><path d="M371.28,393.65H355.22l-4.1-12.21h15.47Zm-15.34-1h13.88l-3.92-10.21H352.51Z" style="fill: rgb(255, 255, 255); transform-origin: 361.2px 387.545px;" id="elbusubdz1eio" class="animable"></path><polygon points="341.98 352.67 338.85 343.35 326.26 343.35 328.94 352.67 341.98 352.67" style="fill: rgb(38, 50, 56); transform-origin: 334.12px 348.01px;" id="elpy68wm2rohn" class="animable"></polygon><path d="M342.67,353.17h-14.1l-3-10.32h13.62Zm-13.35-1h12l-2.79-8.32H326.92Z" style="fill: rgb(255, 255, 255); transform-origin: 334.12px 348.01px;" id="elmw87ux2cf6" class="animable"></path><polygon points="337.38 381.94 340.61 393.15 355.58 393.15 351.81 381.94 337.38 381.94" style="fill: rgb(38, 50, 56); transform-origin: 346.48px 387.545px;" id="el4cehtl3eyr7" class="animable"></polygon><path d="M356.27,393.65h-16l-3.52-12.21h15.46Zm-15.29-1h13.9l-3.43-10.21H338Z" style="fill: rgb(255, 255, 255); transform-origin: 346.51px 387.545px;" id="elrz673w3vl18" class="animable"></path><polygon points="322.94 381.94 325.64 393.15 340.61 393.15 337.38 381.94 322.94 381.94" style="fill: rgb(38, 50, 56); transform-origin: 331.775px 387.545px;" id="el7ol9abj3i3a" class="animable"></polygon><path d="M341.27,393.65h-16l-2.93-12.21h15.44Zm-15.24-1h13.91L337,382.44H323.58Z" style="fill: rgb(255, 255, 255); transform-origin: 331.805px 387.545px;" id="elyplg6aie4k" class="animable"></path><polygon points="348.31 371.51 362.24 371.51 358.51 361.78 345.04 361.78 348.31 371.51" style="fill: rgb(38, 50, 56); transform-origin: 353.64px 366.645px;" id="elw3jgij11hep" class="animable"></polygon><path d="M363,372H348l-3.61-10.73h14.51Zm-14.3-1h12.85l-3.36-8.73H345.73Z" style="fill: rgb(255, 255, 255); transform-origin: 353.695px 366.635px;" id="el6o7udqn5fqt" class="animable"></path><polygon points="224.68 352.67 225.56 343.35 212.97 343.35 211.64 352.67 224.68 352.67" style="fill: rgb(38, 50, 56); transform-origin: 218.6px 348.01px;" id="eld49t92blipj" class="animable"></polygon><path d="M225.13,353.17H211.06l1.48-10.32h13.57Zm-12.91-1h12l.79-8.32h-11.6Z" style="fill: rgb(255, 255, 255); transform-origin: 218.585px 348.01px;" id="ela8vxnpq8s3s" class="animable"></path><polygon points="328.94 352.67 326.26 343.35 313.67 343.35 315.91 352.67 328.94 352.67" style="fill: rgb(38, 50, 56); transform-origin: 321.305px 348.01px;" id="el4ol52isb755" class="animable"></polygon><path d="M329.61,353.17H315.52L313,342.85h13.59Zm-13.31-1h12l-2.4-8.32H314.31Z" style="fill: rgb(255, 255, 255); transform-origin: 321.305px 348.01px;" id="elsmpkjmfzqyi" class="animable"></path><polygon points="211.64 352.67 212.97 343.35 200.38 343.35 198.61 352.67 211.64 352.67" style="fill: rgb(38, 50, 56); transform-origin: 205.79px 348.01px;" id="elxqll7vsj75" class="animable"></polygon><path d="M212.08,353.17H198l2-10.32h13.58Zm-12.87-1h12l1.19-8.32H200.8Z" style="fill: rgb(255, 255, 255); transform-origin: 205.79px 348.01px;" id="eltqg2p0sc7eh" class="animable"></path><polygon points="250.74 352.67 250.73 343.35 238.15 343.35 237.71 352.67 250.74 352.67" style="fill: rgb(38, 50, 56); transform-origin: 244.225px 348.01px;" id="elnpd8b247kb" class="animable"></polygon><path d="M251.24,353.17H237.19l.48-10.32h13.56Zm-13-1h12v-8.32H238.62Z" style="fill: rgb(255, 255, 255); transform-origin: 244.215px 348.01px;" id="elco6xuu1nt79" class="animable"></path><polygon points="198.61 352.67 200.38 343.35 187.8 343.35 185.57 352.67 198.61 352.67" style="fill: rgb(38, 50, 56); transform-origin: 192.975px 348.01px;" id="el275spjtoogg" class="animable"></polygon><path d="M199,353.17H184.94l2.46-10.32H201Zm-12.81-1h12l1.59-8.32H188.19Z" style="fill: rgb(255, 255, 255); transform-origin: 192.97px 348.01px;" id="el1231j7d3bfx9" class="animable"></path><polygon points="185.57 352.67 187.8 343.35 175.21 343.35 172.54 352.67 185.57 352.67" style="fill: rgb(38, 50, 56); transform-origin: 180.17px 348.01px;" id="elkdcma1c01l" class="animable"></polygon><path d="M186,353.17H171.88l3-10.32h13.6Zm-12.77-1h12l2-8.32H175.59Z" style="fill: rgb(255, 255, 255); transform-origin: 180.18px 348.01px;" id="ele5vlhr9kdok" class="animable"></path><polygon points="237.71 352.67 238.15 343.35 225.56 343.35 224.68 352.67 237.71 352.67" style="fill: rgb(38, 50, 56); transform-origin: 231.415px 348.01px;" id="elhcdozifdbm" class="animable"></polygon><path d="M238.19,353.17H224.13l1-10.32h13.57Zm-13-1h12l.39-8.32H226Z" style="fill: rgb(255, 255, 255); transform-origin: 231.415px 348.01px;" id="elx0qi014pgal" class="animable"></path><polygon points="315.91 352.67 313.67 343.35 301.08 343.35 302.88 352.67 315.91 352.67" style="fill: rgb(38, 50, 56); transform-origin: 308.495px 348.01px;" id="elbp7c8k4zl0o" class="animable"></polygon><path d="M316.54,353.17H302.46l-2-10.32h13.59Zm-13.25-1h12l-2-8.32H301.69Z" style="fill: rgb(255, 255, 255); transform-origin: 308.5px 348.01px;" id="elo291u7ef5ji" class="animable"></path><polygon points="302.88 352.67 301.08 343.35 288.5 343.35 289.84 352.67 302.88 352.67" style="fill: rgb(38, 50, 56); transform-origin: 295.69px 348.01px;" id="elbwd1hfil3w6" class="animable"></polygon><path d="M303.48,353.17H289.41l-1.49-10.32H301.5Zm-13.2-1h12l-1.6-8.32h-11.6Z" style="fill: rgb(255, 255, 255); transform-origin: 295.7px 348.01px;" id="ell34kagu3ta9" class="animable"></path><polygon points="276.81 352.67 275.91 343.35 263.32 343.35 263.78 352.67 276.81 352.67" style="fill: rgb(38, 50, 56); transform-origin: 270.065px 348.01px;" id="els40w0c88h6" class="animable"></polygon><path d="M277.36,353.17H263.3l-.5-10.32h13.56Zm-13.11-1h12l-.81-8.32h-11.6Z" style="fill: rgb(255, 255, 255); transform-origin: 270.08px 348.01px;" id="el1631sbvhryxi" class="animable"></path><polygon points="308.51 381.94 294.07 381.94 279.64 381.94 265.2 381.94 250.77 381.94 236.34 381.94 221.9 381.94 207.47 381.94 193.03 381.94 178.59 381.94 164.16 381.94 160.95 393.15 175.92 393.15 190.89 393.15 205.87 393.15 220.84 393.15 235.81 393.15 250.78 393.15 265.75 393.15 280.72 393.15 295.69 393.15 310.67 393.15 308.51 381.94" style="fill: rgb(38, 50, 56); transform-origin: 235.81px 387.545px;" id="elf3axw3it3cm" class="animable"></polygon><path d="M311.27,393.65h-151l3.49-12.21H308.92Zm-149.66-1H310.06l-2-10.21H164.54Z" style="fill: rgb(255, 255, 255); transform-origin: 235.77px 387.545px;" id="elznevbpe199" class="animable"></path><polygon points="289.84 352.67 288.5 343.35 275.91 343.35 276.81 352.67 289.84 352.67" style="fill: rgb(38, 50, 56); transform-origin: 282.875px 348.01px;" id="elhg81h41gxbm" class="animable"></polygon><path d="M290.42,353.17H276.36l-1-10.32h13.57Zm-13.16-1h12l-1.21-8.32h-11.6Z" style="fill: rgb(255, 255, 255); transform-origin: 282.89px 348.01px;" id="el10186dlg9nzf" class="animable"></path></g><g id="freepik--Character--inject-10" class="animable" style="transform-origin: 264.567px 239.835px;"><g style="clip-path: url(&quot;#freepik--clip-path-6--inject-10&quot;); transform-origin: 264.567px 239.835px;" id="el72fa5n6f1mi" class="animable"><ellipse cx="267.12" cy="230.23" rx="26.67" ry="33.95" style="fill: rgb(38, 50, 56); transform-origin: 267.12px 230.23px;" id="el5idj6p7eby" class="animable"></ellipse><path d="M267.12,264.67c-15,0-27.18-15.45-27.18-34.44s12.19-34.45,27.18-34.45,27.17,15.45,27.17,34.45S282.1,264.67,267.12,264.67Zm0-67.89c-14.44,0-26.18,15-26.18,33.45s11.74,33.44,26.18,33.44,26.17-15,26.17-33.44S281.55,196.78,267.12,196.78Z" style="fill: rgb(38, 50, 56); transform-origin: 267.115px 230.225px;" id="el4xpom09k9z6" class="animable"></path><path d="M207,316.69c-2.45,0-5.23-2.17-6.71-3.51-2.08-1.89-4.23-4.54-4.23-5.72,0-1.69,20-62,22.31-68.85a.5.5,0,0,1,.35-.33.51.51,0,0,1,.46.11l7.57,6.91a.5.5,0,0,1,.16.43l-7.46,65.52a.5.5,0,0,1-.24.37c-.31.19-7.61,4.63-11.82,5.05Zm12.08-77c-6.3,19-21.85,66-22,67.83,0,.57,1.52,2.8,3.9,4.95s4.75,3.39,6.33,3.24c3.61-.36,10-4.05,11.19-4.78l7.41-65Z" style="fill: rgb(38, 50, 56); transform-origin: 211.487px 277.477px;" id="elc8evtv2d61q" class="animable"></path><polygon points="263.05 229.91 218.81 238.76 225.89 325.92 312.17 325.92 323.67 235.22 271.01 229.47 263.05 229.91" style="fill: #2E7D9D; transform-origin: 271.24px 277.695px;" id="elhd9iksxnhrs" class="animable"></polygon><path d="M312.17,326.42H225.89a.49.49,0,0,1-.49-.46l-7.09-87.16a.5.5,0,0,1,.4-.53L263,229.42H263l8-.45,52.73,5.76a.52.52,0,0,1,.34.18.51.51,0,0,1,.1.38L312.67,326A.5.5,0,0,1,312.17,326.42Zm-85.81-1h85.37l11.38-89.75L271,230l-7.85.44-43.77,8.76Z" style="fill: rgb(38, 50, 56); transform-origin: 271.242px 277.695px;" id="ellhmvdx4736t" class="animable"></path><g style="clip-path: url(&quot;#freepik--clip-path-7--inject-10&quot;); transform-origin: 270px 300.13px;" id="elxqvyugn7le" class="animable"><g id="el7ylds94lgtu"><polygon points="225.89 325.92 312.17 325.92 314.34 308.85 314.18 308.02 293.36 312.56 302.44 274.34 252.48 296.29 240.37 308.4 247.94 308.4 225.66 323.06 225.89 325.92" style="opacity: 0.3; transform-origin: 270px 300.13px;" class="animable" id="elvobaz801aya"></polygon></g></g><path d="M258.35,225s-7.18,3.93-9,7.46S240,262.21,240,262.21l12.39,2.66-11.94,5.75,18.07,51.76,28.76-1.77L306,266.19l-11.51-4.86,10.18-4.43s-9.73-18.58-15-26.54S258.35,225,258.35,225Z" style="fill: #2E7D9D; transform-origin: 273px 273.487px;" id="el7k6rn40oa6d" class="animable"></path><path d="M258.56,322.88a.5.5,0,0,1-.47-.33L240,270.78a.5.5,0,0,1,.26-.61l10.63-5.12-11-2.35a.52.52,0,0,1-.33-.23.51.51,0,0,1-.05-.4c.31-1.07,7.62-26.29,9.39-29.83s8.86-7.51,9.16-7.68a.41.41,0,0,1,.19-.05c1.07-.11,26.3-2.55,31.71,5.57,5.27,7.89,15,26.41,15.07,26.59a.47.47,0,0,1,0,.4.46.46,0,0,1-.27.29l-9.11,4,10.43,4.41a.51.51,0,0,1,.28.63l-18.65,54.42a.5.5,0,0,1-.44.33l-28.76,1.77Zm-17.46-52,17.81,51,28-1.72,18.39-53.67-11.07-4.68a.5.5,0,0,1-.31-.46.51.51,0,0,1,.3-.46l9.69-4.21c-1.56-3-10-18.88-14.77-26-4.92-7.38-28.91-5.3-30.68-5.14-.82.46-7.08,4-8.66,7.2s-8.09,25.46-9.17,29.15l11.87,2.54a.5.5,0,0,1,.39.43.52.52,0,0,1-.28.51Z" style="fill: rgb(38, 50, 56); transform-origin: 272.938px 273.501px;" id="el4rl9ur5ug39" class="animable"></path><polygon points="257.23 326.81 256.86 235.67 280.75 233.45 287.76 325.92 257.23 326.81" style="fill: rgb(255, 255, 255); transform-origin: 272.31px 280.13px;" id="elebkaawh28iv" class="animable"></polygon><path d="M257.23,327.31a.52.52,0,0,1-.35-.14.53.53,0,0,1-.15-.36l-.37-91.14a.49.49,0,0,1,.45-.5L280.7,233a.46.46,0,0,1,.37.11.52.52,0,0,1,.18.35l7,92.47a.51.51,0,0,1-.13.37.48.48,0,0,1-.36.16l-30.52.89Zm.13-91.19.37,90.17,29.49-.85L280.29,234Z" style="fill: rgb(38, 50, 56); transform-origin: 272.305px 280.173px;" id="elakj8ne5hbc" class="animable"></path><path d="M253.32,211.77s3.09,17.26,3.54,21.68,11.87,35.85,15.29,30.72c3.73-5.59,8.16-23.19,9-27.18s.89-21.23.89-21.23S270.57,223.72,253.32,211.77Z" style="fill: rgb(255, 255, 255); transform-origin: 267.68px 238.252px;" id="elekn4caxxv7f" class="animable"></path><path d="M271.25,265.24a1.73,1.73,0,0,1-.38-.05c-4.7-1.17-14.08-27.42-14.51-31.69s-3.5-21.46-3.54-21.64a.5.5,0,0,1,.78-.5c16.78,11.62,28.08,4.06,28.19,4a.51.51,0,0,1,.52,0,.52.52,0,0,1,.27.45c0,.7,0,17.35-.9,21.34-1,4.34-5.33,21.68-9.11,27.35A1.57,1.57,0,0,1,271.25,265.24ZM254,212.85c.7,4,3,16.78,3.33,20.55.43,4.31,9.91,29.86,13.76,30.82.18,0,.39,0,.63-.32,3.65-5.49,8.07-23,9-27,.75-3.37.86-16.72.87-20.26C278.71,218.11,268.31,222.24,254,212.85Z" style="fill: rgb(38, 50, 56); transform-origin: 267.696px 238.254px;" id="eldcp0qgjjvk7" class="animable"></path><g style="clip-path: url(&quot;#freepik--clip-path-8--inject-10&quot;); transform-origin: 267.7px 222.858px;" id="el69fwr2j3urh" class="animable"><path d="M281.9,227.23c.18-5.66.18-11.47.18-11.47s-11.51,8-28.76-4c0,0,1.27,7.11,2.3,13.37,2.36,3,6.85,7.77,12.39,8.66C273.7,234.71,278.3,231.69,281.9,227.23Z" style="fill: #2E7D9D; transform-origin: 267.7px 222.858px;" id="elte8kl1cyhu" class="animable"></path><g id="el4vepz30p3ia"><path d="M281.9,227.23c.18-5.66.18-11.47.18-11.47s-11.51,8-28.76-4c0,0,1.27,7.11,2.3,13.37,2.36,3,6.85,7.77,12.39,8.66C273.7,234.71,278.3,231.69,281.9,227.23Z" style="fill: rgb(255, 255, 255); opacity: 0.5; transform-origin: 267.7px 222.858px;" class="animable" id="eley0byb3hbs8"></path></g></g><path d="M291.37,194.52s4.86-6.2,4.86.88-4.86,8-4.86,8Z" style="fill: rgb(255, 255, 255); transform-origin: 293.8px 197.704px;" id="el8uu4taedpi9" class="animable"></path><path d="M291.37,203.87a.47.47,0,0,1-.32-.12.46.46,0,0,1-.18-.38v-8.85a.5.5,0,0,1,.1-.31c.43-.54,2.63-3.2,4.31-2.62,1,.34,1.45,1.59,1.45,3.81,0,7.41-5.22,8.45-5.27,8.46Zm.5-9.18v8c1.21-.48,3.86-2.13,3.86-7.29,0-2.34-.54-2.78-.77-2.86C294.22,192.29,292.73,193.64,291.87,194.69Z" style="fill: rgb(38, 50, 56); transform-origin: 293.8px 197.689px;" id="elb875hs6bqq5" class="animable"></path><path d="M243.14,179.92s5.75,26.07,5.75,29.64c0,7.51,14.16,15.93,20.35,17.7s21.24-11.95,22.13-15.49,1.32-34.51-.45-40.7S279,160.89,272.34,160.89,246.24,164.43,243.14,179.92Z" style="fill: rgb(255, 255, 255); transform-origin: 267.641px 194.153px;" id="el3texcg0keec" class="animable"></path><path d="M270.46,227.92a4.79,4.79,0,0,1-1.35-.18c-6-1.72-20.72-10.22-20.72-18.18,0-3.47-5.68-29.27-5.74-29.53a.74.74,0,0,1,0-.21c3.17-15.86,23-19.43,29.69-19.43s17.2,4,19.06,10.54,1.32,37.49.45,41c-.65,2.61-7.94,9.82-14.5,13.61C274.57,227.11,272.26,227.92,270.46,227.92Zm-26.81-48c.45,2.05,5.74,26.15,5.74,29.65,0,7.16,13.89,15.47,20,17.22,1.65.47,4.23-.27,7.47-2.14,6.5-3.75,13.49-10.84,14-13,.83-3.33,1.33-34.26-.44-40.44-1.71-6-11.86-9.82-18.1-9.82C265.87,161.39,246.76,164.8,243.65,179.91Z" style="fill: rgb(38, 50, 56); transform-origin: 267.646px 194.155px;" id="elgwi9ph3rvrl" class="animable"></path><g style="clip-path: url(&quot;#freepik--clip-path-9--inject-10&quot;); transform-origin: 267.651px 194.143px;" id="el9si3oyzyz8i" class="animable"><path d="M272.34,160.89c-6.63,0-26.1,3.54-29.2,19,0,0,3.44,15.6,5,24.32,0-4,.7-11.66,5-15,5.94-4.62,15.85-5.29,21.46-7.93s6.93-9.57,6.93-9.57.33,12.21,3,15.19,5.29,5,5.62,10.23,1.32,10.56-1.32,14.86-13.54,12.54-18.49,14.19c-.76.26-1.5.48-2.2.69.39.14.77.27,1.12.37,6.2,1.77,21.24-11.95,22.13-15.49s1.32-34.51-.45-40.7S279,160.89,272.34,160.89Z" style="fill: #2E7D9D; transform-origin: 267.651px 194.143px;" id="el2v026ybl4n9" class="animable"></path><path d="M263.15,224.64c-2.41-2.43-9-9.16-12-12.63a22,22,0,0,1-2.32-3.18c0,.29,0,.55,0,.73C248.89,215.11,256.61,221.15,263.15,224.64Z" style="fill: #2E7D9D; transform-origin: 255.99px 216.735px;" id="eldn7eg3vqms" class="animable"></path><g id="el96jl7fjzobh"><g style="opacity: 0.5; transform-origin: 267.651px 194.143px;" class="animable" id="elsxwr1lfpmni"><path d="M272.34,160.89c-6.63,0-26.1,3.54-29.2,19,0,0,3.44,15.6,5,24.32,0-4,.7-11.66,5-15,5.94-4.62,15.85-5.29,21.46-7.93s6.93-9.57,6.93-9.57.33,12.21,3,15.19,5.29,5,5.62,10.23,1.32,10.56-1.32,14.86-13.54,12.54-18.49,14.19c-.76.26-1.5.48-2.2.69.39.14.77.27,1.12.37,6.2,1.77,21.24-11.95,22.13-15.49s1.32-34.51-.45-40.7S279,160.89,272.34,160.89Z" style="fill: rgb(255, 255, 255); transform-origin: 267.651px 194.143px;" id="el4johnmfwdut" class="animable"></path><path d="M263.15,224.64c-2.41-2.43-9-9.16-12-12.63a22,22,0,0,1-2.32-3.18c0,.29,0,.55,0,.73C248.89,215.11,256.61,221.15,263.15,224.64Z" style="fill: rgb(255, 255, 255); transform-origin: 255.99px 216.735px;" id="el3yhjdihvpkx" class="animable"></path></g></g></g><path d="M266.05,195.93c0,1.24-.55,2.24-1.24,2.24s-1.25-1-1.25-2.24.56-2.24,1.25-2.24S266.05,194.69,266.05,195.93Z" style="fill: rgb(38, 50, 56); transform-origin: 264.805px 195.93px;" id="ellc2hfxgltje" class="animable"></path><path d="M280.62,195.93c0,1.24-.56,2.24-1.25,2.24s-1.25-1-1.25-2.24.56-2.24,1.25-2.24S280.62,194.69,280.62,195.93Z" style="fill: rgb(38, 50, 56); transform-origin: 279.37px 195.93px;" id="elggq4lpeu29l" class="animable"></path><path d="M273.85,205.4a.48.48,0,0,1-.46-.32.5.5,0,0,1,.27-.65c2-.78,4.82-2.32,5-3.28.08-.37-.07-.5-1.34-.78a5,5,0,0,1-2.51-1.1c-1.49-1.49-.27-5.67-.12-6.14a.5.5,0,0,1,1,.29c-.48,1.56-.94,4.34-.13,5.15a4.26,4.26,0,0,0,2,.82c1,.23,2.39.54,2.1,2-.36,1.84-4.74,3.67-5.61,4A.46.46,0,0,1,273.85,205.4Z" style="fill: rgb(38, 50, 56); transform-origin: 276.526px 199.082px;" id="elkms9fr4cjps" class="animable"></path><path d="M269.42,212.06a6,6,0,0,1-5.28-2.57.49.49,0,0,1,.14-.69.5.5,0,0,1,.69.14c2.4,3.61,8,1.49,8,1.47a.5.5,0,1,1,.37.93A12.14,12.14,0,0,1,269.42,212.06Z" style="fill: rgb(38, 50, 56); transform-origin: 268.855px 210.394px;" id="elew70a5mk7xs" class="animable"></path><path d="M260.24,192.45a.57.57,0,0,1-.18,0,.5.5,0,0,1-.29-.65,5.35,5.35,0,0,1,2.68-2.77,5.86,5.86,0,0,1,4.61.16.5.5,0,1,1-.37.93,4.9,4.9,0,0,0-3.84-.18,4.44,4.44,0,0,0-2.15,2.22A.48.48,0,0,1,260.24,192.45Z" style="fill: rgb(38, 50, 56); transform-origin: 263.557px 190.545px;" id="ellq99ivdqua" class="animable"></path><path d="M281.61,190.81a.53.53,0,0,1-.4-.19c-1-1.25-1.91-1.86-2.81-1.82a3.14,3.14,0,0,0-2.13,1.42.51.51,0,0,1-.69.16.49.49,0,0,1-.16-.69,4.09,4.09,0,0,1,2.92-1.89c1.28-.07,2.49.68,3.66,2.21a.5.5,0,0,1-.09.7A.49.49,0,0,1,281.61,190.81Z" style="fill: rgb(38, 50, 56); transform-origin: 278.722px 189.303px;" id="eldsp1y4vf1y5" class="animable"></path><path d="M293.14,164.43c-4.38-5-9-4.7-11.76-3.62-3.74-6.3-16.1-11.3-32-5.23-18.58,7.08-16.37,26.11-15.48,29.65s7.08,12.83,11.06,13.27c0,0,3.54-3.1,3.54-6.19s8.41-9.29,16.81-11.95c5.29-1.67,11.1-4.74,14.46-8.66a13.75,13.75,0,0,0,1.91,7.33c2.66,4,6.64,6.2,6.64,7.53s2.21,6.19,4,6.19,1.77-7.08,2.21-10.18S299.33,171.51,293.14,164.43Z" style="fill: rgb(38, 50, 56); transform-origin: 264.878px 175.667px;" id="elibumth5y1bp" class="animable"></path><path d="M244.91,199h-.06c-4.35-.49-10.59-10.09-11.49-13.65-.05-.22-4.94-22.33,15.8-30.23,15.31-5.84,28-1.77,32.43,5.08,2.26-.76,7.2-1.5,11.92,3.9h0c5.17,5.91,3.21,12.4,2,16.29a18.23,18.23,0,0,0-.59,2.25c-.11.75-.19,1.76-.28,2.82-.38,4.71-.76,7.79-2.43,7.79-2.2,0-4.48-5.28-4.48-6.69,0-.42-1-1.36-2-2.26a27.52,27.52,0,0,1-4.54-5,13.22,13.22,0,0,1-2-6.38c-3.18,3.23-8.25,6.14-13.86,7.91-8.48,2.68-16.46,8.73-16.46,11.47,0,3.28-3.56,6.43-3.71,6.57A.5.5,0,0,1,244.91,199Zm18.34-45.65a38.7,38.7,0,0,0-13.74,2.7c-19.93,7.6-15.23,28.84-15.18,29.06.88,3.52,6.76,12.14,10.42,12.86.68-.64,3.2-3.2,3.2-5.66,0-3.47,8.66-9.74,17.16-12.43,5.95-1.87,11.27-5.06,14.23-8.51a.51.51,0,0,1,.56-.14.5.5,0,0,1,.32.47,13.24,13.24,0,0,0,1.83,7.06,26.38,26.38,0,0,0,4.39,4.8c1.4,1.29,2.33,2.14,2.33,3,0,1.29,2.16,5.69,3.48,5.69.88,0,1.27-4.81,1.44-6.87.08-1.08.17-2.1.28-2.88a18.63,18.63,0,0,1,.62-2.4c1.18-3.92,3-9.85-1.83-15.34h0c-4.44-5.07-8.92-4.36-11.2-3.48a.5.5,0,0,1-.61-.22C278.6,157.12,272.21,153.35,263.25,153.35Z" style="fill: rgb(38, 50, 56); transform-origin: 264.863px 175.66px;" id="el77jq5iy5sa" class="animable"></path><path d="M241.19,187.45h-.09a.5.5,0,0,1-.4-.58c.29-1.55,1.38-2.87,3.34-4.06a.5.5,0,0,1,.51.86c-1.69,1-2.63,2.13-2.87,3.39A.49.49,0,0,1,241.19,187.45Z" style="fill: rgb(255, 255, 255); transform-origin: 242.74px 185.097px;" id="elodu4zcd41s8" class="animable"></path><path d="M247.52,182.2a.51.51,0,0,1-.47-.32.5.5,0,0,1,.29-.64,84.35,84.35,0,0,1,10.62-3c2.68-.62,5.22-1.22,7.33-1.89,7.92-2.52,12.36-9.42,12.41-9.48a.49.49,0,0,1,.69-.16.5.5,0,0,1,.15.69,26,26,0,0,1-13,9.91c-2.14.68-4.7,1.28-7.4,1.91a84.3,84.3,0,0,0-10.49,2.9A.57.57,0,0,1,247.52,182.2Z" style="fill: rgb(255, 255, 255); transform-origin: 262.819px 174.415px;" id="elq0z316po08" class="animable"></path><path d="M239.7,173.28a.47.47,0,0,1-.28-.09.5.5,0,0,1-.14-.69c1-1.55,3.7-1.44,7.73-1.28a79.07,79.07,0,0,0,9.81-.06c9.09-.73,17.21-6.2,17.29-6.26a.5.5,0,0,1,.69.14.49.49,0,0,1-.13.69c-.34.23-8.42,5.68-17.77,6.43a79.06,79.06,0,0,1-9.93.06c-3.56-.14-6.13-.25-6.86.84A.49.49,0,0,1,239.7,173.28Z" style="fill: rgb(255, 255, 255); transform-origin: 257.044px 169.049px;" id="elxytwmjdsqif" class="animable"></path><path d="M293.42,178.5h0a.5.5,0,0,1-.48-.52,16.92,16.92,0,0,0-.27-3.69.49.49,0,0,1,.39-.59.5.5,0,0,1,.59.4,18.41,18.41,0,0,1,.29,3.92A.5.5,0,0,1,293.42,178.5Z" style="fill: rgb(255, 255, 255); transform-origin: 293.304px 176.095px;" id="eldk7jv18nrl9" class="animable"></path><path d="M292.6,172.69a.49.49,0,0,1-.47-.34,12.69,12.69,0,0,0-7.8-7.67.51.51,0,0,1-.35-.62.5.5,0,0,1,.62-.34,13.47,13.47,0,0,1,8.47,8.3.5.5,0,0,1-.31.64A.45.45,0,0,1,292.6,172.69Z" style="fill: rgb(255, 255, 255); transform-origin: 288.531px 168.195px;" id="elsnsvvvczsb" class="animable"></path><path d="M260.44,218.08a8,8,0,0,1-3.77-.78c-3.81-2-10.58-11-10.86-11.42a.5.5,0,1,1,.8-.6c.07.09,6.91,9.23,10.53,11.14s10.41-.75,10.48-.78a.5.5,0,1,1,.36.94A24.5,24.5,0,0,1,260.44,218.08Z" style="fill: rgb(38, 50, 56); transform-origin: 257.008px 211.583px;" id="el9pv8ebl5j6t" class="animable"></path><path d="M270.28,216.19c0,.91-1.12,1.66-2.49,1.66s-2.49-.75-2.49-1.66,1.11-1.66,2.49-1.66S270.28,215.27,270.28,216.19Z" style="fill: rgb(38, 50, 56); transform-origin: 267.79px 216.19px;" id="elv6yj4jo2y3h" class="animable"></path><path d="M242.31,192.92s-8.21-21.26,0-33.94c0,0-12.69,13.05-1.49,36.93Z" style="fill: rgb(255, 255, 255); transform-origin: 239.256px 177.445px;" id="elfl1ea13c97r" class="animable"></path><path d="M248,199.81c.75,5-.61,9.32-3.05,9.69s-5-3.38-5.76-8.37.62-9.32,3.05-9.69S247.29,194.82,248,199.81Z" style="fill: rgb(255, 255, 255); transform-origin: 243.594px 200.47px;" id="el8a5xqs27oph" class="animable"></path><path d="M244.65,210c-2.61,0-5.16-3.73-5.92-8.81a15.51,15.51,0,0,1,.35-6.81c.63-2,1.74-3.25,3.12-3.45,2.74-.41,5.53,3.44,6.33,8.78a15.66,15.66,0,0,1-.35,6.81c-.64,2-1.74,3.25-3.12,3.45A2.83,2.83,0,0,1,244.65,210Zm-2-18.1a1.23,1.23,0,0,0-.27,0c-1,.14-1.8,1.15-2.31,2.76a14.54,14.54,0,0,0-.31,6.36c.69,4.62,3.06,8.27,5.19,7.94,1-.14,1.81-1.15,2.32-2.76a14.69,14.69,0,0,0,.31-6.36C246.87,195.44,244.66,191.92,242.61,191.92Z" style="fill: rgb(38, 50, 56); transform-origin: 243.628px 200.45px;" id="els8zq37i2j9a" class="animable"></path><g id="eln1u99jymzj7"><ellipse cx="242.22" cy="200.33" rx="3.96" ry="9.13" style="fill: rgb(255, 255, 255); transform-origin: 242.22px 200.33px; transform: rotate(-8.55deg);" class="animable" id="eljvzp0o6e9r"></ellipse></g><path d="M243.31,209.88c-1.14,0-2.31-.87-3.32-2.48a17.06,17.06,0,0,1-2.18-6.4c-.81-5.35.51-9.82,3-10.19s5,3.52,5.85,8.86a17.28,17.28,0,0,1-.2,6.76c-.54,2-1.53,3.24-2.79,3.43Zm-2.2-18.1-.17,0c-1.62.24-2.9,4-2.14,9a16.22,16.22,0,0,0,2,6c.88,1.39,1.84,2.12,2.67,2s1.55-1.11,2-2.7a16.17,16.17,0,0,0,.18-6.35C244.92,195,242.72,191.78,241.11,191.78Z" style="fill: rgb(38, 50, 56); transform-origin: 242.237px 200.333px;" id="el8ey3af1o8k" class="animable"></path><polygon points="323.67 235.22 335.2 326.37 312.17 325.92 323.67 235.22" style="fill: #2E7D9D; transform-origin: 323.685px 280.795px;" id="el3h9eebym7ko" class="animable"></polygon><path d="M335.2,326.87h0l-23-.45a.5.5,0,0,1-.37-.17.5.5,0,0,1-.11-.39l11.49-90.7a.5.5,0,0,1,.5-.44h0a.5.5,0,0,1,.49.44l11.53,91.14a.48.48,0,0,1-.12.4A.5.5,0,0,1,335.2,326.87Zm-22.46-1.44,21.89.43-11-86.66Z" style="fill: rgb(38, 50, 56); transform-origin: 323.725px 280.796px;" id="elqu4b4locb0h" class="animable"></path><g style="clip-path: url(&quot;#freepik--clip-path-10--inject-10&quot;); transform-origin: 323.685px 302.515px;" id="elay0tqlcnrw6" class="animable"><g id="ely8yknj3v66e"><polygon points="329.95 284.93 317.96 292.13 318.16 278.66 312.17 325.92 335.2 326.37 333.31 311.48 323.26 311.81 332.18 302.54 332.11 301.93 319.85 306.13 330.94 292.7 329.95 284.93" style="opacity: 0.3; transform-origin: 323.685px 302.515px;" class="animable" id="elr9gkj2a2vtd"></polygon></g></g><path d="M241.28,208.34s3.4-1.19,4.14.12,1.6,7,1.58,7.81-.3,1.55-1.84,1-4-5.56-4-5.56Z" style="fill: rgb(255, 255, 255); transform-origin: 244.08px 212.652px;" id="el9a233ntbxhu" class="animable"></path><path d="M246.07,218a3.19,3.19,0,0,1-1.08-.22c-1.64-.61-3.84-4.94-4.26-5.81a.59.59,0,0,1,0-.23l.1-3.36a.5.5,0,0,1,.33-.46c.64-.22,3.84-1.25,4.74.35.79,1.39,1.68,7.23,1.65,8.07a1.75,1.75,0,0,1-.62,1.43A1.45,1.45,0,0,1,246.07,218Zm-4.39-6.36c.93,1.87,2.69,4.84,3.65,5.2.69.25.93.14,1,.1s.18-.29.19-.63c0-.69-.83-6.32-1.52-7.55-.33-.6-2-.37-3.21,0Z" style="fill: rgb(38, 50, 56); transform-origin: 244.136px 212.696px;" id="elk4jnjcfc2qk" class="animable"></path><path d="M226.4,226.38s3.15-20.25,3.22-22.45,3-4,4.4-4.54,9.4-.28,10.25-.25,4.27-.15,4.24,1-.33,1.64-3.19,2.1-9.7.82-9.7.82l-1.79,2.7,8.49,1.62s2,.88,1.64,2.25-1.35,7.38-1.37,8.2-.9,1.35-2.93,2.67a10.33,10.33,0,0,1-4,1.53s.16,4.13-1,4.64l-2.89,1.29-.4,23.63-13.05-1.48Z" style="fill: rgb(255, 255, 255); transform-origin: 233.415px 225.321px;" id="elr82zmkzs7xj" class="animable"></path><path d="M231.36,252h-.06l-13-1.48a.51.51,0,0,1-.37-.23.5.5,0,0,1,0-.43l8.08-23.64c.16-1,3.14-20.25,3.2-22.34.07-2.52,3.28-4.49,4.73-5s7.76-.36,10.43-.28h.45c1.66,0,3.33.05,4,.73a1,1,0,0,1,.29.73c0,1.58-.82,2.13-3.61,2.59-2.58.42-8.22.74-9.5.81l-1.23,1.86,7.75,1.48.11,0c.09,0,2.34,1.07,1.92,2.82-.35,1.47-1.34,7.38-1.36,8.11,0,1-.93,1.63-2.89,2.9l-.26.17a11.14,11.14,0,0,1-3.79,1.53c0,1.36-.1,4.14-1.3,4.68l-2.59,1.16-.4,23.31a.52.52,0,0,1-.17.37A.5.5,0,0,1,231.36,252ZM219,249.64,230.87,251l.39-23.08a.5.5,0,0,1,.3-.44l2.88-1.29c.5-.23.77-2.38.7-4.17a.5.5,0,0,1,.44-.52,9.77,9.77,0,0,0,3.81-1.45l.27-.17c1.71-1.12,2.41-1.59,2.43-2.09,0-.92,1.09-7,1.39-8.31.2-.84-1-1.52-1.31-1.65l-8.43-1.61a.51.51,0,0,1-.37-.3.52.52,0,0,1,0-.47l1.78-2.7a.53.53,0,0,1,.4-.22c.06,0,6.84-.35,9.64-.81s2.75-.89,2.77-1.63c-.09-.15-.63-.43-3.22-.43h-.54c-4-.12-9.07-.13-10.06.22-1.35.48-4,2.22-4.07,4.09-.07,2.2-3.09,21.68-3.22,22.51,0,0,0,.06,0,.08Zm7.41-23.26h0Z" style="fill: rgb(38, 50, 56); transform-origin: 233.496px 225.26px;" id="elz827wig5tzj" class="animable"></path><path d="M243.28,211.23h-.09l-10.3-1.85a.5.5,0,0,1,.18-1l10.3,1.86a.5.5,0,0,1-.09,1Z" style="fill: rgb(38, 50, 56); transform-origin: 238.149px 209.807px;" id="el98e5yq1z1m8" class="animable"></path><path d="M242.11,215.85H242l-8.48-2.06a.5.5,0,0,1,.23-1l8.49,2.06a.48.48,0,0,1,.36.6A.49.49,0,0,1,242.11,215.85Z" style="fill: rgb(38, 50, 56); transform-origin: 237.87px 214.314px;" id="el22eribrrr3s" class="animable"></path><path d="M235.64,222.48a.48.48,0,0,1-.42-.23c-.36-.56-1.17-1.93-.9-2.68a.8.8,0,0,1,.53-.5c.79-.24,2.63-.71,2.63-.71l.25,1s-1.64.42-2.47.66a5.55,5.55,0,0,0,.8,1.72.5.5,0,0,1-.15.69A.56.56,0,0,1,235.64,222.48Z" style="fill: rgb(38, 50, 56); transform-origin: 235.998px 220.421px;" id="elzw5tx8mev5" class="animable"></path><path d="M219.49,237.87l14.1,5.32s-9.82,61.64-12.18,66.48-7.88,10.46-15,11.14-12.27-7-12.48-15.07S219.49,237.87,219.49,237.87Z" style="fill: #2E7D9D; transform-origin: 213.759px 279.361px;" id="elyjrxv6gmtgq" class="animable"></path><path d="M205.5,321.35a9.92,9.92,0,0,1-6.63-2.63c-3.24-2.88-5.34-7.84-5.47-13-.22-8.05,24.58-65.64,25.63-68.09a.5.5,0,0,1,.64-.26l14.1,5.31a.49.49,0,0,1,.32.54c-.4,2.52-9.86,61.78-12.24,66.62-2.54,5.2-8.3,10.75-15.43,11.43C206.12,321.34,205.81,321.35,205.5,321.35Zm14.26-82.84c-2.34,5.46-25.56,59.75-25.36,67.22.12,4.85,2.09,9.54,5.14,12.24a8.77,8.77,0,0,0,6.79,2.34c6.74-.64,12.2-5.92,14.63-10.86,2.21-4.51,11.22-60.6,12.08-65.94Z" style="fill: rgb(38, 50, 56); transform-origin: 213.747px 279.342px;" id="el2revxo3ntav" class="animable"></path><g style="clip-path: url(&quot;#freepik--clip-path-11--inject-10&quot;); transform-origin: 211.08px 298.206px;" id="elcmdxqnlue8" class="animable"><g id="elfymdzkdcqyw"><path d="M207.82,289.48a64,64,0,0,1-10.73,4.3c-1.27,3.69-2.24,6.82-2.76,9.06L201,302a74.4,74.4,0,0,0,14-3s-11,6.81-20.81,7.95l-.23,0c.65,7.58,5.61,14.54,12.41,13.89,7.15-.68,12.66-6.31,15-11.14,1.16-2.38,4.12-18.44,6.83-34.17A117,117,0,0,1,207.82,289.48Z" style="opacity: 0.3; transform-origin: 211.08px 298.206px;" class="animable" id="elwwx2k53qgf"></path></g></g></g></g><g id="freepik--Gears--inject-10" class="animable" style="transform-origin: 244.015px 191.315px;"><path d="M358.73,132v-2.74a1.46,1.46,0,0,0-1.46-1.46h-2.11a12.82,12.82,0,0,0-1.62-3.9l1.49-1.5a1.47,1.47,0,0,0,0-2.07l-1.93-1.93a1.47,1.47,0,0,0-2.07,0l-1.5,1.49a12.82,12.82,0,0,0-3.9-1.62v-2.11a1.46,1.46,0,0,0-1.46-1.46h-2.74a1.46,1.46,0,0,0-1.46,1.46v2.11a12.82,12.82,0,0,0-3.9,1.62l-1.5-1.49a1.47,1.47,0,0,0-2.07,0l-1.93,1.93a1.47,1.47,0,0,0,0,2.07l1.49,1.5a12.56,12.56,0,0,0-1.61,3.9h-2.12a1.46,1.46,0,0,0-1.46,1.46V132a1.46,1.46,0,0,0,1.46,1.46h2.12a12.56,12.56,0,0,0,1.61,3.9l-1.49,1.5a1.47,1.47,0,0,0,0,2.07l1.93,1.93a1.47,1.47,0,0,0,2.07,0l1.5-1.49A12.56,12.56,0,0,0,340,143v2.12a1.46,1.46,0,0,0,1.46,1.46h2.74a1.46,1.46,0,0,0,1.46-1.46V143a12.56,12.56,0,0,0,3.9-1.61l1.5,1.49a1.47,1.47,0,0,0,2.07,0L355,141a1.47,1.47,0,0,0,0-2.07l-1.49-1.5a12.82,12.82,0,0,0,1.62-3.9h2.11A1.46,1.46,0,0,0,358.73,132Zm-15.29,4.86A6.26,6.26,0,1,1,349,131.3,6.27,6.27,0,0,1,343.44,136.89Z" style="fill: rgb(38, 50, 56); transform-origin: 342.801px 130.64px;" id="elva04pc4g9m" class="animable"></path><path d="M102.73,251.46V249.4a1.11,1.11,0,0,0-1.11-1.11H100a9.63,9.63,0,0,0-1.22-2.94l1.13-1.12a1.1,1.1,0,0,0,0-1.56l-1.46-1.46a1.1,1.1,0,0,0-1.56,0l-1.13,1.12a9.41,9.41,0,0,0-2.94-1.21v-1.6a1.1,1.1,0,0,0-1.1-1.1H89.69a1.11,1.11,0,0,0-1.11,1.1v1.6a9.41,9.41,0,0,0-2.94,1.21l-1.13-1.12a1.1,1.1,0,0,0-1.56,0l-1.45,1.46a1.09,1.09,0,0,0,0,1.56l1.12,1.12a9.63,9.63,0,0,0-1.22,2.94H79.81a1.11,1.11,0,0,0-1.1,1.11v2.06a1.1,1.1,0,0,0,1.1,1.1H81.4a9.43,9.43,0,0,0,1.22,2.94l-1.12,1.13a1.09,1.09,0,0,0,0,1.56L83,259.65a1.1,1.1,0,0,0,1.56,0l1.13-1.13a9.43,9.43,0,0,0,2.94,1.22v1.59a1.11,1.11,0,0,0,1.11,1.11h2.06a1.11,1.11,0,0,0,1.1-1.11v-1.59a9.43,9.43,0,0,0,2.94-1.22l1.13,1.13a1.1,1.1,0,0,0,1.56,0l1.46-1.46a1.1,1.1,0,0,0,0-1.56l-1.13-1.13a9.43,9.43,0,0,0,1.22-2.94h1.59A1.11,1.11,0,0,0,102.73,251.46ZM91.2,255.12a4.72,4.72,0,1,1,4.21-4.21A4.72,4.72,0,0,1,91.2,255.12Z" style="fill: rgb(38, 50, 56); transform-origin: 90.72px 250.43px;" id="elyva75h3njsg" class="animable"></path><path d="M409.32,224v-2.06a1.11,1.11,0,0,0-1.11-1.11h-1.59a9.43,9.43,0,0,0-1.22-2.94l1.13-1.12a1.1,1.1,0,0,0,0-1.56l-1.46-1.46a1.1,1.1,0,0,0-1.56,0l-1.13,1.12a9.67,9.67,0,0,0-2.94-1.22V212a1.1,1.1,0,0,0-1.1-1.1h-2.07a1.1,1.1,0,0,0-1.1,1.1v1.59a9.67,9.67,0,0,0-2.94,1.22l-1.13-1.12a1.1,1.1,0,0,0-1.56,0l-1.45,1.46a1.09,1.09,0,0,0,0,1.56l1.12,1.12a9.43,9.43,0,0,0-1.22,2.94H386.4a1.11,1.11,0,0,0-1.1,1.11V224a1.1,1.1,0,0,0,1.1,1.1H388a9.43,9.43,0,0,0,1.22,2.94l-1.12,1.13a1.09,1.09,0,0,0,0,1.56l1.45,1.46a1.1,1.1,0,0,0,1.56,0l1.13-1.13a9.43,9.43,0,0,0,2.94,1.22v1.59a1.11,1.11,0,0,0,1.1,1.11h2.07a1.11,1.11,0,0,0,1.1-1.11v-1.59a9.43,9.43,0,0,0,2.94-1.22l1.13,1.13a1.1,1.1,0,0,0,1.56,0l1.46-1.46a1.1,1.1,0,0,0,0-1.56L405.4,228a9.43,9.43,0,0,0,1.22-2.94h1.59A1.11,1.11,0,0,0,409.32,224Zm-11.53,3.66a4.72,4.72,0,1,1,4.21-4.21A4.72,4.72,0,0,1,397.79,227.64Z" style="fill: rgb(38, 50, 56); transform-origin: 397.31px 222.94px;" id="elktk3srj88td" class="animable"></path><path d="M240.79,89.8V88.74a.56.56,0,0,0-.57-.56h-.81a5,5,0,0,0-.63-1.51l.58-.57a.57.57,0,0,0,0-.8l-.75-.75a.56.56,0,0,0-.79,0l-.58.58a5,5,0,0,0-1.51-.63v-.81a.57.57,0,0,0-.56-.57h-1.06a.57.57,0,0,0-.56.57v.81a4.93,4.93,0,0,0-1.51.63l-.58-.58a.57.57,0,0,0-.8,0l-.74.75a.57.57,0,0,0,0,.8l.57.57a5,5,0,0,0-.62,1.51h-.82a.56.56,0,0,0-.56.56V89.8a.57.57,0,0,0,.56.57h.82a4.85,4.85,0,0,0,.62,1.5l-.57.58a.57.57,0,0,0,0,.8l.74.75a.57.57,0,0,0,.8,0l.58-.58a4.67,4.67,0,0,0,1.51.62v.82a.56.56,0,0,0,.56.56h1.06a.56.56,0,0,0,.56-.56V94a4.77,4.77,0,0,0,1.51-.62l.58.58a.56.56,0,0,0,.79,0l.75-.75a.57.57,0,0,0,0-.8l-.58-.58a4.87,4.87,0,0,0,.63-1.5h.81A.57.57,0,0,0,240.79,89.8Zm-5.9,1.88A2.42,2.42,0,1,1,237,89.52,2.43,2.43,0,0,1,234.89,91.68Z" style="fill: rgb(38, 50, 56); transform-origin: 234.64px 89.27px;" id="eljgcw467hrba" class="animable"></path><path d="M112.15,159.82h-6.8v6.8h6.8Zm-5.42,1.38h4v4.05h-4Z" style="fill: rgb(38, 50, 56); transform-origin: 108.75px 163.22px;" id="eln2db4c8pcdo" class="animable"></path><path d="M386.83,292.71H380v6.8h6.8Zm-5.43,1.38h4.05v4.05H381.4Z" style="fill: rgb(38, 50, 56); transform-origin: 383.415px 296.11px;" id="ele3rr2x0xsjj" class="animable"></path><path d="M284.81,97.92H278v6.8h6.8Zm-5.43,1.37h4.05v4h-4.05Z" style="fill: rgb(38, 50, 56); transform-origin: 281.405px 101.32px;" id="elsx45n0177hj" class="animable"></path><path d="M108.15,268.41h-6.8v6.81h6.8Zm-5.43,1.38h4v4h-4Z" style="fill: rgb(38, 50, 56); transform-origin: 104.75px 271.815px;" id="elqjwr3ht75w" class="animable"></path><g id="elu3p67db8k1"><path d="M306.7,145a4.09,4.09,0,1,0,4.08,4.09A4.09,4.09,0,0,0,306.7,145Zm0,6.54a2.45,2.45,0,1,1,2.45-2.45A2.45,2.45,0,0,1,306.7,151.5Z" style="fill: rgb(38, 50, 56); opacity: 0.9; transform-origin: 306.69px 149.09px;" class="animable" id="el7o8czz74wy9"></path></g></g><g id="freepik--speech-bubble--inject-10" class="animable" style="transform-origin: 186.45px 134.24px;"><path d="M234,164.18l-9.16-12.68a6.36,6.36,0,0,0,6.34-6.34V110.64a6.37,6.37,0,0,0-6.34-6.34h-79.6a6.36,6.36,0,0,0-6.34,6.34v34.52a6.35,6.35,0,0,0,6.34,6.34h68.83Z" style="fill: rgb(38, 50, 56); transform-origin: 186.45px 134.24px;" id="elwbcf7fbjl9i" class="animable"></path><path d="M165.35,126.49a3.88,3.88,0,1,0-3.88,3.88A3.88,3.88,0,0,0,165.35,126.49Z" style="fill: #2E7D9D; transform-origin: 161.47px 126.49px;" id="eloj4yfi1v8jr" class="animable"></path><path d="M188.24,126.49a3.88,3.88,0,1,0-3.87,3.88A3.87,3.87,0,0,0,188.24,126.49Z" style="fill: #2E7D9D; transform-origin: 184.36px 126.49px;" id="ellf1w199hk6o" class="animable"></path><path d="M211.14,126.49a3.88,3.88,0,1,0-3.88,3.88A3.88,3.88,0,0,0,211.14,126.49Z" style="fill: #2E7D9D; transform-origin: 207.26px 126.49px;" id="el082v1xdglay" class="animable"></path></g><defs><clipPath id="freepik--clip-path--inject-10"><path d="M219.49,237.87l14.1,5.32s-9.82,61.64-12.18,66.48-7.88,10.46-15,11.14-12.27-7-12.48-15.07S219.49,237.87,219.49,237.87Z" style="fill:#92E3A9"></path></clipPath><clipPath id="freepik--clip-path-2--inject-10"><polygon points="263.05 229.91 218.81 238.76 225.89 325.92 312.17 325.92 323.67 235.22 271.01 229.47 263.05 229.91" style="fill:#92E3A9"></polygon></clipPath><clipPath id="freepik--clip-path-3--inject-10"><path d="M253.32,211.77s3.09,17.26,3.54,21.68,11.87,35.85,15.29,30.72c3.73-5.59,8.16-23.19,9-27.18s.89-21.23.89-21.23S270.57,223.72,253.32,211.77Z" style="fill:#fff"></path></clipPath><clipPath id="freepik--clip-path-4--inject-10"><path d="M243.14,179.92s5.75,26.07,5.75,29.64c0,7.51,14.16,15.93,20.35,17.7s21.24-11.95,22.13-15.49,1.32-34.51-.45-40.7S279,160.89,272.34,160.89,246.24,164.43,243.14,179.92Z" style="fill:#fff"></path></clipPath><clipPath id="freepik--clip-path-5--inject-10"><polygon points="323.67 235.22 335.2 326.37 312.17 325.92 323.67 235.22" style="fill:#92E3A9"></polygon></clipPath><clipPath id="freepik--clip-path-6--inject-10"><rect x="161.67" y="142.09" width="176.26" height="182.14" style="fill:none"></rect></clipPath><clipPath id="freepik--clip-path-7--inject-10"><path d="M312.17,326.42H225.89a.49.49,0,0,1-.49-.46l-7.09-87.16a.5.5,0,0,1,.4-.53L263,229.42H263l8-.45,52.73,5.76a.52.52,0,0,1,.34.18.51.51,0,0,1,.1.38L312.67,326A.5.5,0,0,1,312.17,326.42Zm-85.81-1h85.37l11.38-89.75L271,230l-7.85.44-43.77,8.76Z" style="fill:#263238;clip-path:url(#freepik--clip-path-2--inject-10)"></path></clipPath><clipPath id="freepik--clip-path-8--inject-10"><path d="M271.25,265.24a1.73,1.73,0,0,1-.38-.05c-4.7-1.17-14.08-27.42-14.51-31.69s-3.5-21.46-3.54-21.64a.5.5,0,0,1,.78-.5c16.78,11.62,28.08,4.06,28.19,4a.51.51,0,0,1,.52,0,.52.52,0,0,1,.27.45c0,.7,0,17.35-.9,21.34-1,4.34-5.33,21.68-9.11,27.35A1.57,1.57,0,0,1,271.25,265.24ZM254,212.85c.7,4,3,16.78,3.33,20.55.43,4.31,9.91,29.86,13.76,30.82.18,0,.39,0,.63-.32,3.65-5.49,8.07-23,9-27,.75-3.37.86-16.72.87-20.26C278.71,218.11,268.31,222.24,254,212.85Z" style="fill:#263238;clip-path:url(#freepik--clip-path-3--inject-10)"></path></clipPath><clipPath id="freepik--clip-path-9--inject-10"><path d="M270.46,227.92a4.79,4.79,0,0,1-1.35-.18c-6-1.72-20.72-10.22-20.72-18.18,0-3.47-5.68-29.27-5.74-29.53a.74.74,0,0,1,0-.21c3.17-15.86,23-19.43,29.69-19.43s17.2,4,19.06,10.54,1.32,37.49.45,41c-.65,2.61-7.94,9.82-14.5,13.61C274.57,227.11,272.26,227.92,270.46,227.92Zm-26.81-48c.45,2.05,5.74,26.15,5.74,29.65,0,7.16,13.89,15.47,20,17.22,1.65.47,4.23-.27,7.47-2.14,6.5-3.75,13.49-10.84,14-13,.83-3.33,1.33-34.26-.44-40.44-1.71-6-11.86-9.82-18.1-9.82C265.87,161.39,246.76,164.8,243.65,179.91Z" style="fill:#263238;clip-path:url(#freepik--clip-path-4--inject-10)"></path></clipPath><clipPath id="freepik--clip-path-10--inject-10"><path d="M335.2,326.87h0l-23-.45a.5.5,0,0,1-.37-.17.5.5,0,0,1-.11-.39l11.49-90.7a.5.5,0,0,1,.5-.44h0a.5.5,0,0,1,.49.44l11.53,91.14a.48.48,0,0,1-.12.4A.5.5,0,0,1,335.2,326.87Zm-22.46-1.44,21.89.43-11-86.66Z" style="fill:#263238;clip-path:url(#freepik--clip-path-5--inject-10)"></path></clipPath><clipPath id="freepik--clip-path-11--inject-10"><path d="M205.5,321.35a9.92,9.92,0,0,1-6.63-2.63c-3.24-2.88-5.34-7.84-5.47-13-.22-8.05,24.58-65.64,25.63-68.09a.5.5,0,0,1,.64-.26l14.1,5.31a.49.49,0,0,1,.32.54c-.4,2.52-9.86,61.78-12.24,66.62-2.54,5.2-8.3,10.75-15.43,11.43C206.12,321.34,205.81,321.35,205.5,321.35Zm14.26-82.84c-2.34,5.46-25.56,59.75-25.36,67.22.12,4.85,2.09,9.54,5.14,12.24a8.77,8.77,0,0,0,6.79,2.34c6.74-.64,12.2-5.92,14.63-10.86,2.21-4.51,11.22-60.6,12.08-65.94Z" style="fill:#263238;clip-path:url(#freepik--clip-path--inject-10)"></path></clipPath></defs><defs>     <filter id="active" height="200%">         <feMorphology in="SourceAlpha" result="DILATED" operator="dilate" radius="2"></feMorphology>                <feFlood flood-color="#32DFEC" flood-opacity="1" result="PINK"></feFlood>        <feComposite in="PINK" in2="DILATED" operator="in" result="OUTLINE"></feComposite>        <feMerge>            <feMergeNode in="OUTLINE"></feMergeNode>            <feMergeNode in="SourceGraphic"></feMergeNode>        </feMerge>    </filter>    <filter id="hover" height="200%">        <feMorphology in="SourceAlpha" result="DILATED" operator="dilate" radius="2"></feMorphology>                <feFlood flood-color="#ff0000" flood-opacity="0.5" result="PINK"></feFlood>        <feComposite in="PINK" in2="DILATED" operator="in" result="OUTLINE"></feComposite>        <feMerge>            <feMergeNode in="OUTLINE"></feMergeNode>            <feMergeNode in="SourceGraphic"></feMergeNode>        </feMerge>            <feColorMatrix type="matrix" values="0   0   0   0   0                0   1   0   0   0                0   0   0   0   0                0   0   0   1   0 "></feColorMatrix>    </filter></defs></svg>