<svg class="animated" id="freepik_stories-speed-test" xmlns="http://www.w3.org/2000/svg" viewBox="0 0 500 500" version="1.1" xmlns:xlink="http://www.w3.org/1999/xlink" xmlns:svgjs="http://svgjs.com/svgjs"><style>svg#freepik_stories-speed-test:not(.animated) .animable {opacity: 0;}svg#freepik_stories-speed-test.animated #freepik--background-complete--inject-69 {animation: 1s 1 forwards cubic-bezier(.36,-0.01,.5,1.38) zoomIn;animation-delay: 0s;}svg#freepik_stories-speed-test.animated #freepik--Table--inject-69 {animation: 1s 1 forwards cubic-bezier(.36,-0.01,.5,1.38) slideRight;animation-delay: 0s;}svg#freepik_stories-speed-test.animated #freepik--Device--inject-69 {animation: 1s 1 forwards cubic-bezier(.36,-0.01,.5,1.38) slideDown;animation-delay: 0s;}svg#freepik_stories-speed-test.animated #freepik--Icon--inject-69 {animation: 1s 1 forwards cubic-bezier(.36,-0.01,.5,1.38) slideDown,1.5s Infinite  linear floating;animation-delay: 0s,1s;}svg#freepik_stories-speed-test.animated #freepik--Character--inject-69 {animation: 1s 1 forwards cubic-bezier(.36,-0.01,.5,1.38) lightSpeedLeft;animation-delay: 0s;}svg#freepik_stories-speed-test.animated #freepik--Speedometer--inject-69 {animation: 1s 1 forwards ease-in slideUp,1.5s Infinite  linear shake;animation-delay: 0s,1s;}            @keyframes zoomIn {                0% {                    opacity: 0;                    transform: scale(0.5);                }                100% {                    opacity: 1;                    transform: scale(1);                }            }                    @keyframes slideRight {                0% {                    opacity: 0;                    transform: translateX(30px);                }                100% {                    opacity: 1;                    transform: translateX(0);                }            }                    @keyframes slideDown {                0% {                    opacity: 0;                    transform: translateY(-30px);                }                100% {                    opacity: 1;                    transform: translateY(0);                }            }                    @keyframes floating {                0% {                    opacity: 1;                    transform: translateY(0px);                }                50% {                    transform: translateY(-10px);                }                100% {                    opacity: 1;                    transform: translateY(0px);                }            }                    @keyframes lightSpeedLeft {              from {                transform: translate3d(-50%, 0, 0) skewX(20deg);                opacity: 0;              }              60% {                transform: skewX(-10deg);                opacity: 1;              }              80% {                transform: skewX(2deg);              }              to {                opacity: 1;                transform: translate3d(0, 0, 0);              }            }                    @keyframes slideUp {                0% {                    opacity: 0;                    transform: translateY(30px);                }                100% {                    opacity: 1;                    transform: inherit;                }            }                    @keyframes shake {                10%, 90% {                    transform: translate3d(-1px, 0, 0);                  }                  20%, 80% {                    transform: translate3d(2px, 0, 0);                  }                  30%, 50%, 70% {                    transform: translate3d(-4px, 0, 0);                  }                  40%, 60% {                    transform: translate3d(4px, 0, 0);                  }            }        </style><g id="freepik--background-complete--inject-69" class="animable" style="transform-origin: 246.72px 176.95px;"><path d="M415.59,336.33l14-.28,6.89-.11c2.29-.05,4.57,0,6.86-.06l-.45.45-.05-11.72.5.5L429.45,325c-4.62,0-9.24-.11-13.86-.16l.27-.27c0,1.92-.09,3.85-.13,5.8Zm0,0-.15-5.8c0-2-.11-3.93-.13-5.92v-.27h.28c4.62-.06,9.24-.16,13.86-.17l13.87-.06h.5v.5l-.06,11.72v.45h-.44c-2.34,0-4.68,0-7,0l-7-.11Z" style="fill: rgb(235, 235, 235); transform-origin: 429.565px 330.445px;" id="elj7naar4yitl" class="animable"></path><path d="M431.06,351.1l14-.27,6.89-.12c2.29,0,4.57,0,6.86,0l-.45.44,0-11.71.5.49-13.87-.06c-4.62,0-9.24-.11-13.86-.16l.27-.27c0,1.91-.09,3.84-.13,5.8Zm0,0-.15-5.8c0-1.95-.11-3.93-.13-5.91v-.27h.28c4.62-.05,9.24-.16,13.86-.16l13.87-.06h.5v.51l-.05,11.71v.45h-.44c-2.34,0-4.68,0-7-.06l-7-.11Z" style="fill: rgb(235, 235, 235); transform-origin: 445.035px 345.235px;" id="elu3ldz4umhof" class="animable"></path><path d="M115.68,196.36l14-.28,6.89-.11c2.29,0,4.57,0,6.86-.05l-.45.44-.05-11.72.5.5-13.87-.06c-4.62,0-9.24-.11-13.86-.16l.27-.28c0,1.92-.09,3.85-.13,5.8Zm0,0-.14-5.8c-.05-1.95-.12-3.93-.14-5.92v-.27h.28c4.62-.05,9.24-.16,13.86-.16l13.87-.07h.5v.5l0,11.72v.45h-.44c-2.34,0-4.68,0-7-.06l-7-.11Z" style="fill: rgb(235, 235, 235); transform-origin: 129.655px 190.475px;" id="el4snvvu8eqy" class="animable"></path><path d="M131.4,211.14l14-.28,6.89-.11c2.29-.05,4.57,0,6.86-.06l-.45.45-.05-11.72.5.5-13.87-.06c-4.62,0-9.24-.11-13.87-.17l.28-.27c0,1.92-.09,3.85-.13,5.8Zm0,0-.14-5.8c0-2-.11-3.93-.13-5.92v-.27h.27c4.63-.05,9.25-.16,13.87-.17l13.87-.06h.5v.5l-.06,11.72v.45h-.44c-2.34,0-4.68,0-7-.06l-7-.11Z" style="fill: rgb(235, 235, 235); transform-origin: 145.385px 205.255px;" id="eloskgquy59ja" class="animable"></path><path d="M41.21,351.1l14-.27,6.89-.12c2.3,0,4.58,0,6.86,0l-.44.44-.06-11.71.5.49-13.86-.06c-4.63,0-9.25-.11-13.87-.16l.27-.27c0,1.91-.08,3.84-.13,5.8Zm0,0-.14-5.8c0-1.95-.11-3.93-.13-5.91v-.27h.27c4.62-.05,9.24-.16,13.87-.16l13.86-.06h.51v.51l0,11.71v.45h-.45c-2.33,0-4.67,0-7-.06l-7-.11Z" style="fill: rgb(235, 235, 235); transform-origin: 55.195px 345.235px;" id="elb9e0pyh17v6" class="animable"></path><path d="M56.68,73.85l14-.28,6.89-.11c2.3,0,4.58,0,6.86,0l-.44.44-.06-11.72.5.5-13.86-.06c-4.62,0-9.25-.11-13.87-.17l.27-.27c0,1.92-.08,3.85-.13,5.8Zm0,0-.14-5.8c0-2-.11-3.93-.13-5.92v-.27h.27c4.62,0,9.25-.16,13.87-.16l13.86-.07h.51v.5l0,11.72v.45h-.45c-2.33,0-4.67,0-7-.06l-7-.11Z" style="fill: rgb(235, 235, 235); transform-origin: 70.665px 67.965px;" id="elo0spcurxb3k" class="animable"></path><path d="M41.21,88.63l14-.28,6.89-.11c2.3,0,4.58,0,6.86-.06l-.44.45-.06-11.72.5.5-13.86-.06c-4.63,0-9.25-.12-13.87-.17l.27-.27c0,1.92-.08,3.85-.13,5.8Zm0,0-.14-5.8c0-2-.11-3.93-.13-5.92v-.27h.27c4.62-.06,9.24-.16,13.87-.17l13.86-.06h.51v.5l0,11.72v.45h-.45c-2.33,0-4.67,0-7,0l-7-.11Z" style="fill: rgb(235, 235, 235); transform-origin: 55.195px 82.745px;" id="elr7olh6c8yz" class="animable"></path><path d="M431.06,73.85l14-.28,6.89-.11c2.29,0,4.57,0,6.86,0l-.45.44,0-11.72.5.5-13.87-.06c-4.62,0-9.24-.11-13.86-.17l.27-.27c0,1.92-.09,3.85-.13,5.8Zm0,0-.15-5.8c0-2-.11-3.93-.13-5.92v-.27h.28c4.62,0,9.24-.16,13.86-.16l13.87-.07h.5v.5l-.05,11.72v.45h-.44c-2.34,0-4.68,0-7-.06l-7-.11Z" style="fill: rgb(235, 235, 235); transform-origin: 445.035px 67.965px;" id="elfdl7sveoes6" class="animable"></path><path d="M147.13,196.36l14-.28L168,196c2.29,0,4.57,0,6.86-.05l-.45.44,0-11.72.5.5L161,185.08c-4.62,0-9.25-.11-13.87-.16l.28-.28c0,1.92-.09,3.85-.14,5.8Zm0,0-.14-5.8c0-1.95-.11-3.93-.13-5.92v-.27h.27c4.62-.05,9.25-.16,13.87-.16l13.87-.07h.5v.5l-.05,11.72v.45h-.44c-2.34,0-4.68,0-7-.06l-7-.11Z" style="fill: rgb(235, 235, 235); transform-origin: 161.115px 190.475px;" id="elb76wqgauce8" class="animable"></path><rect x="215.19" y="69.85" width="67.59" height="81.99" style="fill: rgb(235, 235, 235); transform-origin: 248.985px 110.845px;" id="elrz8rhsv1wg" class="animable"></rect><rect x="222.91" y="77.34" width="52.15" height="67.02" style="fill: rgb(255, 255, 255); transform-origin: 248.985px 110.85px;" id="elntm98a6v1bd" class="animable"></rect><rect x="222.91" y="77.34" width="2.03" height="67.02" style="fill: rgb(199, 199, 199); transform-origin: 223.925px 110.85px;" id="ellffqfazw0xt" class="animable"></rect><rect x="282.78" y="69.85" width="2.03" height="81.99" style="fill: rgb(199, 199, 199); transform-origin: 283.795px 110.845px;" id="elfujxg1n3so" class="animable"></rect><g id="elhpq4wcrnds"><rect x="250.15" y="92.84" width="12.3" height="36.63" style="fill: rgb(235, 235, 235); transform-origin: 256.3px 111.155px; transform: rotate(180deg);" class="animable"></rect></g><path d="M268.31,105H234.52v-19h33.79Zm-32.79-1h31.79v-17H235.52Z" style="fill: rgb(235, 235, 235); transform-origin: 251.415px 95.5px;" id="elde1wht7b8wb" class="animable"></path><rect x="215.19" y="271.91" width="67.59" height="81.99" style="fill: rgb(235, 235, 235); transform-origin: 248.985px 312.905px;" id="elumq6302x17" class="animable"></rect><rect x="222.91" y="279.39" width="52.15" height="67.02" style="fill: rgb(255, 255, 255); transform-origin: 248.985px 312.9px;" id="eloucwr2a60k" class="animable"></rect><rect x="222.91" y="279.39" width="2.03" height="67.02" style="fill: rgb(199, 199, 199); transform-origin: 223.925px 312.9px;" id="elc0jib06d5r6" class="animable"></rect><rect x="282.78" y="271.91" width="2.03" height="81.99" style="fill: rgb(199, 199, 199); transform-origin: 283.795px 312.905px;" id="elhfptobv3hxi" class="animable"></rect><rect x="240.39" y="294.89" width="12.3" height="36.63" style="fill: rgb(235, 235, 235); transform-origin: 246.54px 313.205px;" id="elcjuul32zif" class="animable"></rect><path d="M268.31,307.08H234.52V288.13h33.79Zm-32.79-1h31.79V289.13H235.52Z" style="fill: rgb(235, 235, 235); transform-origin: 251.415px 297.605px;" id="ely6rptce0bek" class="animable"></path><rect x="215.19" y="171.25" width="67.59" height="81.99" style="fill: rgb(235, 235, 235); transform-origin: 248.985px 212.245px;" id="ellz2skzf9rqs" class="animable"></rect><rect x="222.91" y="178.74" width="52.15" height="67.02" style="fill: rgb(255, 255, 255); transform-origin: 248.985px 212.25px;" id="el0nne9596vewj" class="animable"></rect><rect x="222.91" y="178.74" width="2.03" height="67.02" style="fill: rgb(199, 199, 199); transform-origin: 223.925px 212.25px;" id="elpd0c08eby3b" class="animable"></rect><rect x="282.78" y="171.25" width="2.03" height="81.99" style="fill: rgb(199, 199, 199); transform-origin: 283.795px 212.245px;" id="elzhi27xob6f" class="animable"></rect><rect x="243.93" y="196.06" width="10.53" height="26.63" style="fill: rgb(235, 235, 235); transform-origin: 249.195px 209.375px;" id="elybia4gefhma" class="animable"></rect><path d="M266.06,231.11h-29.3V211.75h29.3Zm-28.3-1h27.3V212.75h-27.3Z" style="fill: rgb(219, 219, 219); transform-origin: 251.41px 221.43px;" id="elc8e87myeffo" class="animable"></path><rect x="294.93" y="253.76" width="139.71" height="94.15" style="fill: rgb(255, 255, 255); transform-origin: 364.785px 300.835px;" id="elaytt491oaow" class="animable"></rect><path d="M435.14,348.4H294.43V253.26H435.14Zm-139.71-1H434.14V254.26H295.43Z" style="fill: rgb(235, 235, 235); transform-origin: 364.785px 300.83px;" id="elia6wf0fxwvr" class="animable"></path><path d="M302.74,258.84a2,2,0,1,1-1.95-1.95A2,2,0,0,1,302.74,258.84Z" style="fill: rgb(55, 71, 79); transform-origin: 300.741px 258.889px;" id="elix75l22qzfl" class="animable"></path><path d="M310.71,258.84a1.95,1.95,0,1,1-1.95-1.95A1.95,1.95,0,0,1,310.71,258.84Z" style="fill: rgb(235, 235, 235); transform-origin: 308.76px 258.84px;" id="eljzr0dyj59yp" class="animable"></path><path d="M318.69,258.84a2,2,0,1,1-2-1.95A2,2,0,0,1,318.69,258.84Z" style="fill: rgb(46, 125, 157); transform-origin: 316.691px 258.89px;" id="eluael91ix5gh" class="animable"></path><rect x="294.93" y="263.34" width="139.71" height="1" style="fill: rgb(235, 235, 235); transform-origin: 364.785px 263.84px;" id="el24fxelkvixf" class="animable"></rect><rect x="75.06" width="1" height="106.08" style="fill: rgb(199, 199, 199); transform-origin: 75.56px 53.04px;" id="el2ak18c5j29c" class="animable"></rect><polygon points="116.96 145.99 113.63 153.31 37.48 153.31 34.16 145.99 66.58 123.55 84.54 123.55 116.96 145.99" style="fill: rgb(235, 235, 235); transform-origin: 75.56px 138.43px;" id="elg66q31owsu9" class="animable"></polygon><polygon points="86.79 101.92 84.54 123.55 66.58 123.55 64.33 101.92 86.79 101.92" style="fill: rgb(219, 219, 219); transform-origin: 75.56px 112.735px;" id="ell1b6kpwb5u" class="animable"></polygon><polygon points="116.95 145.99 113.62 153.31 37.47 153.31 34.15 145.99 116.95 145.99" style="fill: rgb(219, 219, 219); transform-origin: 75.55px 149.65px;" id="elbifiq83lmb" class="animable"></polygon><rect x="153.95" width="1" height="62.46" style="fill: rgb(199, 199, 199); transform-origin: 154.45px 31.23px;" id="el9novbw1jt7s" class="animable"></rect><polygon points="195.85 102.37 192.52 109.69 116.37 109.69 113.05 102.37 145.47 79.93 163.43 79.93 195.85 102.37" style="fill: rgb(235, 235, 235); transform-origin: 154.45px 94.81px;" id="el3rnrb66036t" class="animable"></polygon><polygon points="165.68 58.31 163.43 79.93 145.47 79.93 143.22 58.31 165.68 58.31" style="fill: rgb(219, 219, 219); transform-origin: 154.45px 69.12px;" id="el9c76nk2h6i6" class="animable"></polygon><polygon points="195.85 102.37 192.52 109.69 116.37 109.69 113.05 102.37 195.85 102.37" style="fill: rgb(219, 219, 219); transform-origin: 154.45px 106.03px;" id="el8q0m35t55q7" class="animable"></polygon></g><g id="freepik--Table--inject-69" class="animable" style="transform-origin: 250px 410.85px;"><polygon points="36.71 410.85 90.03 410.61 143.35 410.52 250 410.35 356.64 410.52 409.97 410.61 463.29 410.85 409.97 411.1 356.64 411.19 250 411.35 143.35 411.18 90.03 411.1 36.71 410.85" style="fill: rgb(38, 50, 56); transform-origin: 250px 410.85px;" id="el2537knbaqpj" class="animable"></polygon></g><g id="freepik--Device--inject-69" class="animable" style="transform-origin: 353.445px 363.555px;"><polygon points="306.41 410.85 445.69 410.85 456.48 316.26 317.19 316.26 306.41 410.85" style="fill: rgb(166, 166, 166); transform-origin: 381.445px 363.555px;" id="el6xy2jy2sqir" class="animable"></polygon><polygon points="314 404.51 439.55 404.51 448.89 322.6 323.34 322.6 314 404.51" style="fill: rgb(255, 255, 255); transform-origin: 381.445px 363.555px;" id="elsxhmrkd50a" class="animable"></polygon><g id="elqcud09bitc"><rect x="265.54" y="404.51" width="179.18" height="6.34" style="fill: rgb(166, 166, 166); transform-origin: 355.13px 407.68px; transform: rotate(180deg);" class="animable"></rect></g><g id="el4s01oqqerhb"><rect x="250.41" y="404.51" width="155.39" height="6.34" style="fill: rgb(199, 199, 199); transform-origin: 328.105px 407.68px; transform: rotate(180deg);" class="animable"></rect></g><polygon points="322.88 326.58 323.34 322.6 448.89 322.6 448.43 326.58 322.88 326.58" style="fill: rgb(38, 50, 56); transform-origin: 385.885px 324.59px;" id="elhp1j5wdnr0c" class="animable"></polygon><path d="M326.63,324.59a1.09,1.09,0,0,1-1,1,.83.83,0,0,1-.78-1,1.08,1.08,0,0,1,1-1A.83.83,0,0,1,326.63,324.59Z" style="fill: rgb(46, 125, 157); transform-origin: 325.74px 324.59px;" id="elowdfft5sarl" class="animable"></path><path d="M330.26,324.59a1.09,1.09,0,0,1-1,1,.83.83,0,0,1-.78-1,1.08,1.08,0,0,1,1-1A.83.83,0,0,1,330.26,324.59Z" style="fill: rgb(255, 255, 255); transform-origin: 329.37px 324.59px;" id="elej1saggr1d" class="animable"></path><path d="M333.89,324.59a1.08,1.08,0,0,1-1,1,.82.82,0,0,1-.78-1,1.07,1.07,0,0,1,1-1A.82.82,0,0,1,333.89,324.59Z" style="fill: rgb(219, 219, 219); transform-origin: 333px 324.59px;" id="ely6rvvxxwhsd" class="animable"></path><path d="M346.42,341.07H346l-.12.82a.25.25,0,0,1-.24.21.19.19,0,0,1-.18-.21l.32-2.22a.24.24,0,0,1,.23-.21h.68a.68.68,0,0,1,.69.81A1,1,0,0,1,346.42,341.07Zm-.4-.41h.46a.48.48,0,0,0,.45-.39.34.34,0,0,0-.34-.39h-.46Z" style="fill: rgb(199, 199, 199); transform-origin: 346.426px 340.78px;" id="el6531pnrc8xl" class="animable"></path><path d="M348,341.89a.27.27,0,0,1-.24.21.19.19,0,0,1-.18-.21l.31-2.19h0a.29.29,0,0,1,.11-.18.2.2,0,0,1,.28.05l1,1.68.22-1.55a.24.24,0,0,1,.23-.2.18.18,0,0,1,.18.2l-.31,2.19a.25.25,0,0,1-.23.21.18.18,0,0,1-.15-.08s0,0,0,0l-1-1.67Z" style="fill: rgb(199, 199, 199); transform-origin: 348.745px 340.792px;" id="el9ztqsz2nlrk" class="animable"></path><path d="M350.38,340.75a1.64,1.64,0,0,1,1.58-1.36,1.21,1.21,0,0,1,.82.29.21.21,0,0,1,0,.3.23.23,0,0,1-.31,0,.85.85,0,0,0-.57-.21,1.12,1.12,0,0,0-.72.28,1,1,0,0,0-.37.66.77.77,0,0,0,.19.64.8.8,0,0,0,.64.28,1.27,1.27,0,0,0,.54-.14l.07-.52h-.54a.18.18,0,0,1-.18-.21.24.24,0,0,1,.24-.22h.75a.18.18,0,0,1,.19.22l-.12.83a.14.14,0,0,1,0,.06v0h0a.14.14,0,0,1-.08.09,1.57,1.57,0,0,1-.9.3A1.16,1.16,0,0,1,350.38,340.75Z" style="fill: rgb(199, 199, 199); transform-origin: 351.608px 340.716px;" id="elywzjhnha14e" class="animable"></path><path d="M348,349.11a2,2,0,0,1,.44,1.58,2.63,2.63,0,0,1-.89,1.59,2.59,2.59,0,0,1-1.68.66,2,2,0,0,1-1.49-.66.56.56,0,0,1,.83-.73,1,1,0,0,0,.81.36,1.38,1.38,0,0,0,.91-.36,1.43,1.43,0,0,0,.49-.86,1.06,1.06,0,0,0-1.05-1.22.39.39,0,0,1-.35-.17h0a.53.53,0,0,1,.09-.73l1.05-.94h-1.46a.43.43,0,0,1-.44-.51.61.61,0,0,1,.58-.51h2.66a.44.44,0,0,1,.45.51.51.51,0,0,1-.1.24.69.69,0,0,1-.11.13l-1.3,1.17A1.68,1.68,0,0,1,348,349.11Z" style="fill: rgb(46, 125, 157); transform-origin: 346.625px 349.775px;" id="elk2pa8ebz0vh" class="animable"></path><path d="M354,350.3v0l-.3,2.15a.58.58,0,0,1-.55.47.41.41,0,0,1-.42-.47l.3-2.15v0a.79.79,0,0,0-.8-.91,1.1,1.1,0,0,0-1,.93l-.3,2.15a.11.11,0,0,0,0,.06v0s0,0,0,.05v.05a.61.61,0,0,1-.49.28h-.09a.42.42,0,0,1-.32-.47l.3-2.15h0l.2-1.4a.57.57,0,0,1,.55-.49.38.38,0,0,1,.39.27,2.15,2.15,0,0,1,1-.27,1.61,1.61,0,0,1,1.33.62,2.13,2.13,0,0,1,1.5-.62,1.6,1.6,0,0,1,1.61,1.89l-.3,2.15a.56.56,0,0,1-.54.47.41.41,0,0,1-.42-.47l.3-2.15a.79.79,0,0,0-.78-.93A1.12,1.12,0,0,0,354,350.3Z" style="fill: rgb(46, 125, 157); transform-origin: 353.481px 350.66px;" id="el4i45fp9yvoa" class="animable"></path><path d="M358.39,351.65a.5.5,0,0,1,.69-.07,1.43,1.43,0,0,0,.94.4,1.37,1.37,0,0,0,.64-.17.46.46,0,0,0,.2-.27.15.15,0,0,0,0-.1s0-.06-.1-.1a1.9,1.9,0,0,0-.69-.26h0a2.86,2.86,0,0,1-.75-.23,1.22,1.22,0,0,1-.55-.53,1,1,0,0,1-.07-.56,1.53,1.53,0,0,1,.67-1,2.23,2.23,0,0,1,1.16-.33,2,2,0,0,1,1.28.5.46.46,0,0,1,.05.66.5.5,0,0,1-.68.13,1.34,1.34,0,0,0-.79-.33,1,1,0,0,0-.56.16.35.35,0,0,0-.18.21.17.17,0,0,0,0,.07.24.24,0,0,0,.09.09,1.77,1.77,0,0,0,.63.22h0a3,3,0,0,1,.81.27,1.07,1.07,0,0,1,.56.53,1,1,0,0,1,.09.6,1.54,1.54,0,0,1-.71,1,2.3,2.3,0,0,1-1.23.36,2.23,2.23,0,0,1-1.52-.62A.48.48,0,0,1,358.39,351.65Z" style="fill: rgb(46, 125, 157); transform-origin: 360.119px 350.665px;" id="elowpkkl49gv" class="animable"></path><path d="M340.72,383.18a.93.93,0,0,1-.94-1.09l.19-1.34a.24.24,0,0,1,.23-.21.18.18,0,0,1,.19.21l-.19,1.34a.57.57,0,0,0,.57.67.79.79,0,0,0,.77-.67l.19-1.34a.25.25,0,0,1,.24-.21.18.18,0,0,1,.18.21l-.19,1.34A1.3,1.3,0,0,1,340.72,383.18Z" style="fill: rgb(199, 199, 199); transform-origin: 340.959px 381.86px;" id="eloper4ha7irj" class="animable"></path><path d="M343.71,382.15h-.46l-.11.82a.27.27,0,0,1-.24.21.18.18,0,0,1-.18-.21l.31-2.22a.25.25,0,0,1,.24-.21h.67a.69.69,0,0,1,.7.81A1,1,0,0,1,343.71,382.15Zm-.4-.42h.46a.46.46,0,0,0,.45-.38.33.33,0,0,0-.34-.39h-.46Z" style="fill: rgb(199, 199, 199); transform-origin: 343.684px 381.86px;" id="eluer4dxzgodn" class="animable"></path><path d="M344.91,383l.32-2.22a.23.23,0,0,1,.23-.21.17.17,0,0,1,.18.21l-.28,2h1a.18.18,0,0,1,.18.21.27.27,0,0,1-.24.21h-1.23A.18.18,0,0,1,344.91,383Z" style="fill: rgb(199, 199, 199); transform-origin: 345.726px 381.885px;" id="eltmamrh5f97c" class="animable"></path><path d="M349.26,380.87a1.19,1.19,0,0,1,.24.95,1.57,1.57,0,0,1-.51.95,1.42,1.42,0,0,1-1,.41,1.07,1.07,0,0,1-.86-.41,1.18,1.18,0,0,1-.24-.95,1.63,1.63,0,0,1,.5-.95,1.47,1.47,0,0,1,1-.41A1.06,1.06,0,0,1,349.26,380.87Zm-.19.95a.86.86,0,0,0-.16-.66.69.69,0,0,0-.56-.27.93.93,0,0,0-.64.27,1,1,0,0,0-.35.66.82.82,0,0,0,.16.66.7.7,0,0,0,.57.27,1,1,0,0,0,.64-.27A1.14,1.14,0,0,0,349.07,381.82Z" style="fill: rgb(199, 199, 199); transform-origin: 348.195px 381.82px;" id="elpj8l85fy55" class="animable"></path><path d="M351.34,382.55h-.92l-.25.5a.27.27,0,0,1-.22.13h-.07a.2.2,0,0,1-.08-.28l1.14-2.22a.27.27,0,0,1,.22-.13.17.17,0,0,1,.18.13l.52,2.22a.27.27,0,0,1-.16.28h-.07a.17.17,0,0,1-.18-.13Zm-.1-.41-.19-.81-.42.81Z" style="fill: rgb(199, 199, 199); transform-origin: 350.817px 381.865px;" id="el1avnesj4gf8" class="animable"></path><path d="M352.36,383l.32-2.22a.24.24,0,0,1,.23-.21h.45a1.11,1.11,0,0,1,1.13,1.31,1.57,1.57,0,0,1-1.5,1.33h-.45A.19.19,0,0,1,352.36,383Zm.45-.21h.24a1.08,1.08,0,0,0,1-.91.76.76,0,0,0-.77-.89h-.23Z" style="fill: rgb(199, 199, 199); transform-origin: 353.434px 381.89px;" id="elv19zfizfbg" class="animable"></path><path d="M341,388.2l-.75,5.33a.59.59,0,0,1-.57.49.41.41,0,0,1-.43-.49l.62-4.45-.39.21a.54.54,0,0,1-.26.07.41.41,0,0,1-.39-.25.54.54,0,0,1,.26-.68l1.2-.66,0,0,.05,0h.29a.06.06,0,0,1,0,0h0l.05,0,0,0,0,0s0,0,0,0l0,0,0,0v0s0,0,0,0a.09.09,0,0,1,0,0,.06.06,0,0,1,0,0,.43.43,0,0,0,0,.05,0,0,0,0,0,0,.06Z" style="fill: rgb(46, 125, 157); transform-origin: 339.896px 390.895px;" id="el2f3m9r8zbdz" class="animable"></path><path d="M341.91,389.89a2.6,2.6,0,0,1,2.5-2.19,1.85,1.85,0,0,1,1.91,2s0,0,0,0c0,.17,0,.34-.05.51a5.84,5.84,0,0,1-.58,1.85,3.87,3.87,0,0,1-1.38,1.55,2.88,2.88,0,0,1-1.42.42.42.42,0,0,1-.45-.48A.62.62,0,0,1,343,393a1.89,1.89,0,0,0,.88-.25,2.31,2.31,0,0,0,.66-.63c.06-.08.1-.16.15-.24a2.25,2.25,0,0,1-.89.18A1.86,1.86,0,0,1,341.91,389.89Zm1,0a1,1,0,0,0,1,1.19,1.41,1.41,0,0,0,1.35-1.19,1,1,0,0,0-1-1.19A1.42,1.42,0,0,0,342.91,389.89Z" style="fill: rgb(46, 125, 157); transform-origin: 344.105px 390.865px;" id="el8v5tptqdpxq" class="animable"></path><path d="M351.65,391.87A2.55,2.55,0,0,1,349.2,394a1.84,1.84,0,0,1-1.87-2.15,2.58,2.58,0,0,1,1.22-1.8,1.31,1.31,0,0,1-.17-.89,1.78,1.78,0,0,1,1.71-1.48,1.26,1.26,0,0,1,1.27,1.48,1.61,1.61,0,0,1-.42.89A1.87,1.87,0,0,1,351.65,391.87Zm-1,0a1,1,0,0,0-1-1.17,1.42,1.42,0,0,0-1.35,1.17,1,1,0,0,0,1,1.17A1.4,1.4,0,0,0,350.67,391.87Zm-1.3-2.69a.44.44,0,0,0,.44.52.62.62,0,0,0,.57-.52.43.43,0,0,0-.43-.5A.59.59,0,0,0,349.37,389.18Z" style="fill: rgb(46, 125, 157); transform-origin: 349.492px 390.84px;" id="elxlzdf08ttre" class="animable"></path><path d="M359.43,388.2l-.75,5.33a.61.61,0,0,1-.58.49.42.42,0,0,1-.43-.49l.54-3.81-1.56,1.81a.54.54,0,0,1-.43.21h0a.44.44,0,0,1-.39-.21l-1-1.81-.54,3.81a.59.59,0,0,1-.57.49.42.42,0,0,1-.43-.49l.75-5.33a.59.59,0,0,1,.57-.5h0a.4.4,0,0,1,.37.21l1.45,2.49,2.15-2.49a.54.54,0,0,1,.43-.21h0A.44.44,0,0,1,359.43,388.2Z" style="fill: rgb(46, 125, 157); transform-origin: 356.359px 390.86px;" id="elsvx3wie9sc" class="animable"></path><path d="M361,391.77h0l.51-3.57a.57.57,0,0,1,.55-.49.42.42,0,0,1,.43.49l-.24,1.7a2.39,2.39,0,0,1,1.27-.38,1.89,1.89,0,0,1,1.87,2.26,2.66,2.66,0,0,1-2.51,2.25,1.91,1.91,0,0,1-1.17-.39.58.58,0,0,1-.53.39.41.41,0,0,1-.42-.49Zm1,0a1.14,1.14,0,0,0,.23.9,1,1,0,0,0,.8.37,1.36,1.36,0,0,0,.9-.37,1.49,1.49,0,0,0,.49-.9,1.16,1.16,0,0,0-.23-.91,1,1,0,0,0-.8-.37,1.34,1.34,0,0,0-.9.37A1.49,1.49,0,0,0,362,391.77Z" style="fill: rgb(46, 125, 157); transform-origin: 363.089px 390.87px;" id="el4ojek6ogzcn" class="animable"></path><path d="M366.49,395.23l.49-3.45h0l.25-1.79a.57.57,0,0,1,.55-.47.41.41,0,0,1,.44.37,2.55,2.55,0,0,1,1.28-.37,1.9,1.9,0,0,1,1.87,2.26,2.64,2.64,0,0,1-2.5,2.24,1.83,1.83,0,0,1-1.16-.37l-.22,1.59a.61.61,0,0,1-.59.49A.42.42,0,0,1,366.49,395.23Zm1.48-3.46a1.07,1.07,0,0,0,.23.91,1,1,0,0,0,.8.38,1.34,1.34,0,0,0,.9-.38,1.53,1.53,0,0,0,.48-.91,1.26,1.26,0,0,0-.22-.91,1,1,0,0,0-.8-.37,1.34,1.34,0,0,0-.91.37A1.53,1.53,0,0,0,368,391.77Z" style="fill: rgb(46, 125, 157); transform-origin: 368.943px 392.624px;" id="elo9zs6x3zb5a" class="animable"></path><path d="M372.59,392.73a.49.49,0,0,1,.69-.07,1.48,1.48,0,0,0,.94.4,1.38,1.38,0,0,0,.64-.18.41.41,0,0,0,.2-.27.13.13,0,0,0,0-.09s0-.06-.1-.11a1.75,1.75,0,0,0-.69-.25h0a3.29,3.29,0,0,1-.75-.23,1.22,1.22,0,0,1-.55-.53,1,1,0,0,1-.07-.57,1.53,1.53,0,0,1,.67-1,2.14,2.14,0,0,1,1.16-.33A2,2,0,0,1,376,390a.47.47,0,0,1,0,.67.5.5,0,0,1-.68.13,1.38,1.38,0,0,0-.79-.34,1,1,0,0,0-.56.17.36.36,0,0,0-.18.2.19.19,0,0,0,0,.08.34.34,0,0,0,.09.09,1.62,1.62,0,0,0,.63.21h0a3.34,3.34,0,0,1,.81.26,1.09,1.09,0,0,1,.56.54,1,1,0,0,1,.09.59,1.54,1.54,0,0,1-.71,1.05,2.22,2.22,0,0,1-2.75-.26A.48.48,0,0,1,372.59,392.73Z" style="fill: rgb(46, 125, 157); transform-origin: 374.277px 391.755px;" id="ele5iwdaq5bc" class="animable"></path><path d="M342.56,362.28l.31-2.23a.25.25,0,0,1,.24-.2h.44a1.11,1.11,0,0,1,1.13,1.31,1.56,1.56,0,0,1-1.5,1.32h-.44A.17.17,0,0,1,342.56,362.28Zm.45-.21h.23a1.09,1.09,0,0,0,1-.91.77.77,0,0,0-.77-.9h-.24Z" style="fill: rgb(199, 199, 199); transform-origin: 343.628px 361.165px;" id="el26lzv3idewt" class="animable"></path><path d="M347.59,360.17a1.2,1.2,0,0,1,.24,1,1.57,1.57,0,0,1-.51.95,1.41,1.41,0,0,1-1,.4,1.09,1.09,0,0,1-.87-.4,1.21,1.21,0,0,1-.23-.95,1.58,1.58,0,0,1,.5-1,1.46,1.46,0,0,1,1-.4A1.05,1.05,0,0,1,347.59,360.17Zm-.19,1a.85.85,0,0,0-.16-.66.69.69,0,0,0-.56-.27,1,1,0,0,0-.65.27,1.12,1.12,0,0,0-.35.66.84.84,0,0,0,.17.65.7.7,0,0,0,.57.27,1,1,0,0,0,.64-.27A1.11,1.11,0,0,0,347.4,361.13Z" style="fill: rgb(199, 199, 199); transform-origin: 346.528px 361.145px;" id="eltvurcua2h1" class="animable"></path><path d="M352.05,360.16l-1.23,2.2,0,0h0l0,0h0l0,0h0l0,0h-.17l0,0h0l0,0h0v0h0a0,0,0,0,1,0,0l-.33-1.17-.66,1.17,0,0h0l0,0h0l0,0h0l0,0h-.17l0,0h0l0,0h0l0,0h0l0,0-.62-2.2a.25.25,0,0,1,.15-.27.19.19,0,0,1,.26.11l.49,1.74.65-1.15a.23.23,0,0,1,.21-.13.18.18,0,0,1,.18.13l.32,1.15,1-1.74a.24.24,0,0,1,.3-.11A.19.19,0,0,1,352.05,360.16Z" style="fill: rgb(199, 199, 199); transform-origin: 350.669px 361.116px;" id="ell87txtfi9a9" class="animable"></path><path d="M352.84,362.28a.24.24,0,0,1-.23.2.17.17,0,0,1-.18-.2l.31-2.19h0a.27.27,0,0,1,.11-.17.2.2,0,0,1,.28,0l1,1.69.22-1.55a.25.25,0,0,1,.23-.21.19.19,0,0,1,.18.21l-.31,2.19a.25.25,0,0,1-.24.2.17.17,0,0,1-.14-.07v0l-1-1.68Z" style="fill: rgb(199, 199, 199); transform-origin: 353.594px 361.165px;" id="elttubkzw78sl" class="animable"></path><path d="M355.33,362.28l.32-2.23a.24.24,0,0,1,.23-.2.17.17,0,0,1,.18.2l-.28,2h1a.18.18,0,0,1,.18.21.26.26,0,0,1-.24.2h-1.23A.17.17,0,0,1,355.33,362.28Z" style="fill: rgb(199, 199, 199); transform-origin: 356.146px 361.155px;" id="eluuf1g6beueh" class="animable"></path><path d="M359.68,360.17a1.24,1.24,0,0,1,.25,1,1.63,1.63,0,0,1-.52.95,1.41,1.41,0,0,1-1,.4,1.06,1.06,0,0,1-.86-.4,1.22,1.22,0,0,1-.24-.95,1.63,1.63,0,0,1,.5-1,1.46,1.46,0,0,1,1-.4A1.05,1.05,0,0,1,359.68,360.17Zm-.18,1a.89.89,0,0,0-.17-.66.69.69,0,0,0-.56-.27.93.93,0,0,0-.64.27,1,1,0,0,0-.35.66.83.83,0,0,0,.16.65.71.71,0,0,0,.57.27,1,1,0,0,0,.64-.27A1.19,1.19,0,0,0,359.5,361.13Z" style="fill: rgb(199, 199, 199); transform-origin: 358.622px 361.145px;" id="elpdutr8anic" class="animable"></path><path d="M361.76,361.86h-.92l-.25.49a.26.26,0,0,1-.22.13h-.07a.18.18,0,0,1-.08-.27l1.14-2.22a.27.27,0,0,1,.22-.13.17.17,0,0,1,.18.13l.52,2.22a.25.25,0,0,1-.16.27h-.07a.17.17,0,0,1-.18-.13Zm-.1-.41-.19-.81-.42.81Z" style="fill: rgb(199, 199, 199); transform-origin: 361.235px 361.17px;" id="elyty01mq302i" class="animable"></path><path d="M362.79,362.28l.31-2.23a.24.24,0,0,1,.23-.2h.45a1.11,1.11,0,0,1,1.13,1.31,1.56,1.56,0,0,1-1.5,1.32H363A.17.17,0,0,1,362.79,362.28Zm.44-.21h.24a1.09,1.09,0,0,0,1-.91.76.76,0,0,0-.77-.9h-.23Z" style="fill: rgb(199, 199, 199); transform-origin: 363.857px 361.168px;" id="ellhkgpvmn6t" class="animable"></path><path d="M345.35,372.83a.58.58,0,0,1-.56.5h-3.22a.46.46,0,0,1-.35-.16.53.53,0,0,1,.13-.71l3-2.42a1.32,1.32,0,0,0,.51-.87,1,1,0,0,0-.19-.78,1,1,0,0,0-.82-.38,1.32,1.32,0,0,0-.82.3l-.32.25a.48.48,0,0,1-.7,0,.51.51,0,0,1,.14-.7l.31-.25A2.44,2.44,0,0,1,344,367a1.84,1.84,0,0,1,1.86,2.16,2.53,2.53,0,0,1-.94,1.61L343,372.33h1.93A.41.41,0,0,1,345.35,372.83Z" style="fill: rgb(69, 90, 100); transform-origin: 343.512px 370.165px;" id="elrrnrrj27vzj" class="animable"></path><path d="M350.41,369.5a2,2,0,0,1,.43,1.59,2.63,2.63,0,0,1-.88,1.58,2.55,2.55,0,0,1-1.67.66h0a1.9,1.9,0,0,1-1.48-.66.5.5,0,0,1,.1-.72.51.51,0,0,1,.72,0,1,1,0,0,0,.82.36,1.38,1.38,0,0,0,.91-.36,1.42,1.42,0,0,0,.48-.86,1,1,0,0,0-.24-.87,1,1,0,0,0-.81-.35,1.37,1.37,0,0,0-.91.35.52.52,0,0,1-.73,0,1.25,1.25,0,0,1-.08-.12v0a.08.08,0,0,0,0-.05s0,0,0-.06v0a.36.36,0,0,1,0-.15l.6-2.34a.67.67,0,0,1,.27-.36l0,0,0,0a.53.53,0,0,1,.25-.05h2.66a.43.43,0,0,1,.44.51.61.61,0,0,1-.58.51h-2.23l-.23.89a2.7,2.7,0,0,1,.62-.08A1.94,1.94,0,0,1,350.41,369.5Z" style="fill: rgb(69, 90, 100); transform-origin: 348.999px 370.21px;" id="el572lxzbkn7p" class="animable"></path><path d="M356.7,371.14a2.61,2.61,0,0,1-2.5,2.19,1.84,1.84,0,0,1-1.9-2v0c0-.17,0-.34,0-.51a6,6,0,0,1,.58-1.86,3.91,3.91,0,0,1,1.38-1.54,2.88,2.88,0,0,1,1.42-.42.42.42,0,0,1,.45.47.62.62,0,0,1-.56.53,1.89,1.89,0,0,0-.88.25,2.19,2.19,0,0,0-.66.63c-.06.08-.1.16-.15.24a2.25,2.25,0,0,1,.89-.18A1.86,1.86,0,0,1,356.7,371.14Zm-1,0a1,1,0,0,0-1-1.19,1.41,1.41,0,0,0-1.35,1.19,1,1,0,0,0,1,1.19A1.42,1.42,0,0,0,355.7,371.14Z" style="fill: rgb(69, 90, 100); transform-origin: 354.512px 370.165px;" id="ele8jupqb7b36" class="animable"></path><path d="M364.41,367.5l-.75,5.33a.6.6,0,0,1-.57.5.42.42,0,0,1-.43-.5l.54-3.8-1.56,1.81a.59.59,0,0,1-.44.2h0a.44.44,0,0,1-.39-.2l-1-1.81-.53,3.8a.61.61,0,0,1-.58.5.42.42,0,0,1-.42-.5l.74-5.33a.6.6,0,0,1,.57-.49h0a.43.43,0,0,1,.37.2l1.44,2.5,2.15-2.5a.59.59,0,0,1,.44-.2h0A.43.43,0,0,1,364.41,367.5Z" style="fill: rgb(69, 90, 100); transform-origin: 361.343px 370.17px;" id="elhw1h28j0zls" class="animable"></path><path d="M366,371.08h0l.5-3.58a.59.59,0,0,1,.56-.48.41.41,0,0,1,.43.48l-.24,1.7a2.45,2.45,0,0,1,1.26-.38,1.9,1.9,0,0,1,1.88,2.27,2.66,2.66,0,0,1-2.51,2.25,1.91,1.91,0,0,1-1.17-.39.58.58,0,0,1-.54.39.42.42,0,0,1-.42-.49Zm1,0a1.12,1.12,0,0,0,.23.89,1,1,0,0,0,.8.37,1.33,1.33,0,0,0,.9-.37,1.47,1.47,0,0,0,.49-.89,1.11,1.11,0,0,0-.24-.91,1,1,0,0,0-.79-.37,1.32,1.32,0,0,0-.91.37A1.5,1.5,0,0,0,367,371.08Z" style="fill: rgb(69, 90, 100); transform-origin: 368.085px 370.18px;" id="ellunhz20kel9" class="animable"></path><path d="M371.48,374.54l.48-3.45h0l.25-1.79a.57.57,0,0,1,.54-.48.42.42,0,0,1,.45.37,2.62,2.62,0,0,1,1.28-.37,1.91,1.91,0,0,1,1.87,2.27,2.64,2.64,0,0,1-2.51,2.24,1.86,1.86,0,0,1-1.15-.37l-.23,1.59a.6.6,0,0,1-.58.49A.42.42,0,0,1,371.48,374.54Zm1.48-3.46a1.08,1.08,0,0,0,.22.9,1,1,0,0,0,.81.38,1.29,1.29,0,0,0,.9-.38,1.5,1.5,0,0,0,.48-.9,1.25,1.25,0,0,0-.22-.91,1,1,0,0,0-.8-.37,1.29,1.29,0,0,0-.91.37A1.46,1.46,0,0,0,373,371.08Z" style="fill: rgb(69, 90, 100); transform-origin: 373.928px 371.929px;" id="el7gr37frieg9" class="animable"></path><path d="M377.58,372a.48.48,0,0,1,.69-.07,1.44,1.44,0,0,0,.93.39,1.31,1.31,0,0,0,.64-.17.46.46,0,0,0,.2-.27.13.13,0,0,0,0-.09s0-.06-.1-.11a1.82,1.82,0,0,0-.69-.25h0a3.3,3.3,0,0,1-.75-.24,1.2,1.2,0,0,1-.55-.52,1.06,1.06,0,0,1-.08-.57,1.52,1.52,0,0,1,.68-1,2.13,2.13,0,0,1,1.16-.34,2,2,0,0,1,1.28.5.47.47,0,0,1,0,.67.51.51,0,0,1-.69.12,1.38,1.38,0,0,0-.78-.33,1,1,0,0,0-.56.16.37.37,0,0,0-.18.21.13.13,0,0,0,0,.07.18.18,0,0,0,.09.09,1.53,1.53,0,0,0,.63.22h0a2.75,2.75,0,0,1,.81.26,1.19,1.19,0,0,1,.56.53,1.1,1.1,0,0,1,.09.6,1.57,1.57,0,0,1-.72,1.05,2.32,2.32,0,0,1-1.22.36,2.28,2.28,0,0,1-1.52-.62A.48.48,0,0,1,377.58,372Z" style="fill: rgb(69, 90, 100); transform-origin: 379.269px 371.015px;" id="elp988o35cksl" class="animable"></path><path d="M377.1,351.06l.08-.75c2.57-.08,9.34-.3,9.88-.36.85-.11,14.62-1.84,15.88-2.08s14,.14,15.43.18l6.92,1.29-.24.74-6.86-1.28c-3.85-.12-14.19-.4-15.21-.19-1.35.26-15.79,2.07-15.93,2.08C386.36,350.78,377.48,351.05,377.1,351.06Z" style="fill: rgb(46, 125, 157); transform-origin: 401.195px 349.426px;" id="elt3fgpphepe" class="animable"></path><polygon points="386.82 371.9 386.82 371.15 393.54 370.15 403.45 367.31 415.31 367.31 422.84 365.77 422.89 366.51 415.24 368.06 403.4 368.06 393.6 370.88 386.82 371.9" style="fill: rgb(69, 90, 100); transform-origin: 404.855px 368.835px;" id="elfbar297827u" class="animable"></polygon><polygon points="384.06 391.45 384.08 390.7 394.06 389.56 401.93 389.56 406.49 388.83 412.02 386.01 420.17 385.01 420.16 385.76 412.08 386.75 406.57 389.56 401.89 390.31 394 390.31 384.06 391.45" style="fill: rgb(46, 125, 157); transform-origin: 402.115px 388.23px;" id="el3zg5tye8cqw" class="animable"></polygon><polygon points="331.98 369.2 336.68 369.2 337.31 364.71 332.61 364.71 331.98 369.2" style="fill: rgb(69, 90, 100); transform-origin: 334.645px 366.955px;" id="el4yaja3rkfz" class="animable"></polygon><polygon points="337.82 369.2 330.84 369.2 333.75 373.33 337.82 369.2" style="fill: rgb(69, 90, 100); transform-origin: 334.33px 371.265px;" id="elth8t8knuavn" class="animable"></polygon><polygon points="334.33 389.53 329.62 389.53 328.99 394.02 333.7 394.02 334.33 389.53" style="fill: rgb(46, 125, 157); transform-origin: 331.66px 391.775px;" id="elwzjlvwxls3i" class="animable"></polygon><polygon points="328.49 389.53 335.47 389.53 332.56 385.4 328.49 389.53" style="fill: rgb(46, 125, 157); transform-origin: 331.98px 387.465px;" id="elaf5mny0nly9" class="animable"></polygon></g><g id="freepik--Icon--inject-69" class="animable animator-active" style="transform-origin: 433.8px 303.603px;"><g id="freepik--u5Zjqx--inject-69" class="animable" style="transform-origin: 433.8px 303.603px;"><path d="M463.29,295.63l-2.63,2.61-1.5,1.5a35.35,35.35,0,0,0-25.35-10.53c-9.86,0-18.28,3.65-25.4,10.56-.47-.49-.94-1-1.43-1.49l-2.59-2.61a.3.3,0,0,0-.08,0v-.07l.19-.16c1.11-1,2.19-2,3.33-2.94a41,41,0,0,1,17.9-8.34c1.69-.31,3.4-.47,5.1-.68.58-.07,4.35-.08,4.47-.07,1.15.08,2.32.14,3.47.26a39.56,39.56,0,0,1,9.36,2.24,41.31,41.31,0,0,1,12.38,7.19c.95.81,1.85,1.67,2.78,2.5Z" style="fill: rgb(46, 125, 157); transform-origin: 433.8px 291.588px;" id="elsbixjwa8m4b" class="animable"></path><path d="M416.76,308l-4.16-4.12a29.28,29.28,0,0,1,16.92-8.5c9.85-1.33,18.3,1.66,25.46,8.44L450.81,308a24.08,24.08,0,0,0-34.05,0Z" style="fill: rgb(46, 125, 157); transform-origin: 433.79px 301.535px;" id="elaj4gj7kwn2" class="animable"></path><path d="M446.65,312.17l-4.14,4.13a12.31,12.31,0,0,0-17.44,0l-4.13-4.13A18.06,18.06,0,0,1,446.65,312.17Z" style="fill: rgb(46, 125, 157); transform-origin: 433.795px 311.548px;" id="el9addif06yq" class="animable"></path><path d="M437.53,320.06a3.74,3.74,0,1,1-3.74-3.74A3.73,3.73,0,0,1,437.53,320.06Z" style="fill: rgb(46, 125, 157); transform-origin: 433.79px 320.06px;" id="el6vxy9p0ljga" class="animable"></path></g></g><g id="freepik--Character--inject-69" class="animable" style="transform-origin: 164.853px 293.817px;"><path d="M248.68,321.53l-17.63,3.79c-4.56-5.52-10.61-15.68-11.83-31.46-.19-2.61-3.44,13.23,2.88,33.39-18.62,4-43.95,9.43-66.11,14-2.08-8.59-4.4-16.47-4.4-16.47a98,98,0,0,1-.42,17.48c-3,.64-6,1.21-8.85,1.79-1.91-13.59-8.67-36.63-8.67-36.63a120.63,120.63,0,0,1-4,39.14c-14.1,2.73-23.43,4.27-23,3.48,16.7-28.53-1.61-39.65.37-62.36,2.37-27.21,23.86-35.55,19.52-54.82-3.5-15.69-10.9-44,7.87-53.86,0,0,12.85-20.85,40.18-15.91,33.8,6.09,30.58,57.13,34.61,66.62,5.74,13.57,13.42,17.27,21.51,32.45,8.23,15.35,2.85,27.6,4.11,38.83S252.22,320.83,248.68,321.53Z" style="fill: rgb(38, 50, 56); transform-origin: 177.911px 256.29px;" id="elegoybsr0rcv" class="animable"></path><path d="M105.45,346.63a56.06,56.06,0,0,0,4.22-15.12c.7-5.12-.93-9.91-2.87-14.81a156.89,156.89,0,0,1-5.56-15.11,41.77,41.77,0,0,1-1.53-16.54,36.63,36.63,0,0,1,5.84-15.62,98,98,0,0,1,10.16-12.6c3.48-4,7-7.87,9.24-12.51a28.9,28.9,0,0,0,3-15.18,27,27,0,0,1-1.2,16c-2,5.13-5.3,9.58-8.6,13.75a119.86,119.86,0,0,0-9.28,12.61,34.88,34.88,0,0,0-5,14.08,41.33,41.33,0,0,0,1.31,15c1.25,5,3.16,9.89,4.83,15a52.48,52.48,0,0,1,2,7.94,23.68,23.68,0,0,1-.26,8.36A45.51,45.51,0,0,1,105.45,346.63Z" style="fill: rgb(38, 50, 56); transform-origin: 114.054px 287.885px;" id="eletijwjjfjx" class="animable"></path><path d="M195.93,177.77c3.59,5.52,5.74,11.83,7.87,18s3.73,12.58,5.36,18.91l2.5,9.42a48.45,48.45,0,0,0,3.18,8.86c2.68,5.62,7,10.14,11.7,14.67a74.43,74.43,0,0,1,6.75,7.46,45.62,45.62,0,0,1,5.3,8.76,68.46,68.46,0,0,1,3.26,9.58,41.75,41.75,0,0,1,1.34,10.08c.06,3.39-.28,6.68-.48,9.88A49.77,49.77,0,0,0,243,303c.69,6.23,5.1,11.75,10.84,14.82A20.34,20.34,0,0,1,241,303.32a49.42,49.42,0,0,1-1-10c-.05-3.33.17-6.56-.06-9.7a52.22,52.22,0,0,0-5-18.09,45.79,45.79,0,0,0-4.93-7.9,70.31,70.31,0,0,0-6.47-7,99.63,99.63,0,0,1-6.83-7.3,40.57,40.57,0,0,1-5.51-8.67,52.67,52.67,0,0,1-3.15-9.64c-.79-3.21-1.46-6.41-2.12-9.61-1.36-6.39-2.62-12.78-4.14-19.11A94.14,94.14,0,0,0,195.93,177.77Z" style="fill: rgb(38, 50, 56); transform-origin: 224.885px 247.795px;" id="el3h37v4p9wu7" class="animable"></path><path d="M161.28,291.09c24.25,42.89,87,103.32,105.61,93.68,22.82-11.83,25.42-73.16,23.71-86.48-1-8-61.82-4.09-60.24,4.37.93,5,2.84,10.28,1.66,9.63-3.69-2-13.14-11-47.87-36.88C164.81,261,145.23,262.7,161.28,291.09Z" style="fill: rgb(211, 118, 106); transform-origin: 223.191px 326.161px;" id="elw4ypa7qylsd" class="animable"></path><path d="M236.17,348.62c-2.22-5.75-7.18-21.87-3.8-36.88,0-.17.23-.15.22,0-1.34,12.52,2,30.95,3.77,36.76C236.41,348.67,236.23,348.77,236.17,348.62Z" style="fill: rgb(38, 50, 56); transform-origin: 233.797px 330.157px;" id="elua84uj7hq5b" class="animable"></path><path d="M283,260.12c5.78,10.95,8.83,38,7.06,44.76s-47.52,13.52-52.72,8.52S215.6,270,218,257.62,277.06,248.77,283,260.12Z" style="fill: rgb(211, 118, 106); transform-origin: 254.162px 282.48px;" id="el350yfypvrkk" class="animable"></path><path d="M222.88,229.51c-3-4.88-15.57-18.06-19.79-15.38s2.24,13.8,5,18.23c5.73,9.13,8.55,23.75,9.8,30.85S234.26,260,234.26,260,230.72,242.17,222.88,229.51Z" style="fill: rgb(211, 118, 106); transform-origin: 217.979px 239.74px;" id="ell6upr3gewbo" class="animable"></path><path d="M224.54,272.26s1.86,12.58,9,13.83c6.88,1.18,7.45-9.19,7.5-9.94.1.67,2.12,12.19,9.42,12.7,7.6.53,6.37-10,6.29-10.66.3.6,4.34,8.42,10,7.55,9.69-1.51-.1-21.8,2.83-29.18,0,0,13.07,3.54,13.47,3.56,0,0-8.91-19.5-19.09-22.9a6.85,6.85,0,0,0-8.09,2.86s-2.18-6.61-7.92-7.19c-2.94-.3-6,4.16-6,4.16s-2-5.22-7.11-5.42c-4.1-.17-7.11,4.36-7.74,6.22C222.24,252.17,224.54,272.26,224.54,272.26Z" style="fill: rgb(211, 118, 106); transform-origin: 253.523px 260.247px;" id="elei71aelablw" class="animable"></path><path d="M227.74,236.6a.09.09,0,0,0-.17-.06c-4.47,11-6,24.54-3.12,36.17.09.39.75.4.73,0C224.51,260.11,224.92,248.92,227.74,236.6Z" style="fill: rgb(38, 50, 56); transform-origin: 225.364px 254.743px;" id="el19j4y6ucnlq" class="animable"></path><path d="M241.86,236.86c0-.13-.19-.18-.24-.05-4.55,11.41-5.85,26.66-1,39.68.16.44.76.68.61.15C238.68,267.73,239.26,247.94,241.86,236.86Z" style="fill: rgb(38, 50, 56); transform-origin: 239.701px 256.838px;" id="eljifzrf63czk" class="animable"></path><path d="M257.42,279c-4.21-12.66-3.94-25.4-1.78-38.44,0-.17-.21-.2-.27-.06-2.8,6.09-3.31,14.55-3.15,21.16A35.22,35.22,0,0,0,257,279.13C257.1,279.34,257.51,279.25,257.42,279Z" style="fill: rgb(38, 50, 56); transform-origin: 254.813px 259.829px;" id="eljes4fnfgw3" class="animable"></path><path d="M224.54,272.26a39.64,39.64,0,0,0,2.38,6.93,13.44,13.44,0,0,0,4.22,5.6,4.43,4.43,0,0,0,3.08.75,6.46,6.46,0,0,0,3-1.25,7.82,7.82,0,0,0,2.59-5.84l.22-5.37,1.67,5.12a21.82,21.82,0,0,0,3.21,6.37c1.4,1.86,3.29,3.35,5.4,3.5a4.5,4.5,0,0,0,4.86-2.9,13.57,13.57,0,0,0,.54-6.79l-.88-6.31,2.89,5.65a20.74,20.74,0,0,0,3,4.36,8.5,8.5,0,0,0,4.09,2.73,4,4,0,0,0,4.07-1.26,9,9,0,0,0,1.4-4.81,69.93,69.93,0,0,0-.7-11c-.2-1.85-.4-3.71-.51-5.59a13.21,13.21,0,0,1,.53-5.56,14.24,14.24,0,0,0,0,5.52c.25,1.83.59,3.66.93,5.5a60.35,60.35,0,0,1,1.3,11.22,10.44,10.44,0,0,1-1.5,5.82,5.74,5.74,0,0,1-5.94,2.1,10.34,10.34,0,0,1-5.16-3.26,22.46,22.46,0,0,1-3.38-4.8l2-.66a15.75,15.75,0,0,1-.56,8,6.49,6.49,0,0,1-2.86,3.36,7.45,7.45,0,0,1-4.28.83c-3-.29-5.31-2.33-6.84-4.44a23.87,23.87,0,0,1-3.42-7l1.88-.25a9.36,9.36,0,0,1-3.59,7,8,8,0,0,1-3.79,1.36,5.73,5.73,0,0,1-3.88-1.13c-2.16-1.64-3.25-4-4.15-6.32A33.23,33.23,0,0,1,224.54,272.26Z" style="fill: rgb(38, 50, 56); transform-origin: 248.189px 273.426px;" id="eld97a7pe1jmo" class="animable"></path><path d="M233.41,307.36s-40.81-33.06-20.07-42.68c6.16-2.86,34.88-7.24,35.87-1.49,1.28,7.42-10.37,11.49-18.08,12.88,0,0,15.46,9.29,12.2,22C241.29,306,233.41,307.36,233.41,307.36Z" style="fill: rgb(211, 118, 106); transform-origin: 228.385px 283.867px;" id="elhqie292ubzu" class="animable"></path><path d="M211.66,265.59a27.5,27.5,0,0,1,7.36-3.17,60,60,0,0,1,7.84-1.74,92.24,92.24,0,0,1,16.06-1.29,15.56,15.56,0,0,1,4.22.64,5.76,5.76,0,0,1,2.12,1.21,4.05,4.05,0,0,1,.84,1.06,4.34,4.34,0,0,1,.42,1.26,6.73,6.73,0,0,1-.94,4.59,12.6,12.6,0,0,1-3,3.23,24.34,24.34,0,0,1-7.42,3.7A55.94,55.94,0,0,1,231.3,277l.29-1.72a31.81,31.81,0,0,1,4.82,3.83,29.89,29.89,0,0,1,4,4.64,20.51,20.51,0,0,1,2.66,5.49,15.55,15.55,0,0,1,.7,6,17.58,17.58,0,0,0-1.31-5.75,21.61,21.61,0,0,0-3-5,29.25,29.25,0,0,0-4-4.2,30.82,30.82,0,0,0-4.73-3.35l-2.08-1.18,2.37-.54a57.89,57.89,0,0,0,7.54-2.08,23.59,23.59,0,0,0,6.74-3.45c1.89-1.48,3.47-3.65,3.1-5.67-.18-1.8-3.05-2.32-5.54-2.46a76.2,76.2,0,0,0-7.85,0c-2.64.11-5.28.25-7.9.53C221.84,262.71,216.5,263.34,211.66,265.59Z" style="fill: rgb(38, 50, 56); transform-origin: 231.13px 277.314px;" id="el7xj3sc2vshc" class="animable"></path><path d="M191.86,347.16l27.69-48.64s-32.22-26-51.74-35.74c-10.94-5.49-15.35,2.93-12.25,13.55C166.39,313.48,191.86,347.16,191.86,347.16Z" style="fill: rgb(46, 125, 157); transform-origin: 187.071px 304.106px;" id="elaqpk2mdc62n" class="animable"></path><path d="M191.86,347.16l27.69-48.64s-32.22-26-51.74-35.74c-10.94-5.49-15.35,2.93-12.25,13.55C166.39,313.48,191.86,347.16,191.86,347.16Z" style="fill: rgb(46, 125, 157); transform-origin: 187.071px 304.106px;" id="els99f3vsy2va" class="animable"></path><path d="M154.67,268.48a9.28,9.28,0,0,0-.06.93,2.63,2.63,0,0,1,.19,1,2.28,2.28,0,0,1-.16.87c0,.31,0,.64.08,1a3,3,0,0,0,.61-1.83A3.09,3.09,0,0,0,154.67,268.48Zm21.13,11.69a3.07,3.07,0,1,0,3.06,3.05A3.08,3.08,0,0,0,175.8,280.17Zm0,5.61a2.55,2.55,0,1,1,2.52-2.56A2.55,2.55,0,0,1,175.8,285.78ZM192,324.55a3.06,3.06,0,1,0,3.06,3.06A3.06,3.06,0,0,0,192,324.55Zm0,5.58a2.52,2.52,0,0,1-2.53-2.52,2.53,2.53,0,1,1,5.06,0A2.52,2.52,0,0,1,192,330.13Zm-18.44-25.48a3.06,3.06,0,1,0,3.06,3.06A3.06,3.06,0,0,0,173.57,304.65Zm0,5.58a2.53,2.53,0,1,1,0-5.06,2.53,2.53,0,1,1,0,5.06Zm28.23-15a3.07,3.07,0,1,0,0,6.14,3.07,3.07,0,0,0,0-6.14Zm0,5.61a2.54,2.54,0,1,1,2.52-2.52A2.53,2.53,0,0,1,201.8,300.83Z" style="fill: rgb(255, 255, 255); transform-origin: 179.735px 299.575px;" id="eluooeev19lc" class="animable"></path><g id="elyx8bpp7d5e"><path d="M213.27,309.55l-21.41,37.61s-25.47-33.68-36.3-70.83c-1.16-4-1.27-7.63-.38-10.37Z" style="opacity: 0.1; transform-origin: 183.93px 306.56px;" class="animable"></path></g><path d="M210.93,295.86c-4.88,7.13-17.56,26.85-24.12,40.75,0,.08.26.27.31.19,7.2-10.73,20-33.13,24.26-40.66C211.46,296,211,295.73,210.93,295.86Z" style="fill: rgb(38, 50, 56); transform-origin: 199.1px 316.322px;" id="el8r4xo0f4z3w" class="animable"></path><path d="M51,410.3,201.56,410l-8.33-51.79s11.91-14.45,9.66-30.13c-2.47-17.18-33.45-60.72-36-63.18-10.49-9.84-21.59-11.6-32.25-8.05h0C85.32,287.75,51,410.3,51,410.3Z" style="fill: rgb(46, 125, 157); transform-origin: 127.086px 332.731px;" id="elqjp4u4ldrj" class="animable"></path><path d="M198.38,390.2a2.52,2.52,0,0,1-1.94.92,2.55,2.55,0,1,1,0-5.09,2.47,2.47,0,0,1,1.34.39l-.11-.65a2.91,2.91,0,0,0-1.23-.26,3.07,3.07,0,1,0,2.05,5.35ZM168,374.38a3.07,3.07,0,1,0,3.06,3.07A3.07,3.07,0,0,0,168,374.38Zm0,5.61a2.54,2.54,0,1,1,2.54-2.54A2.54,2.54,0,0,1,168,380Zm24-55.44a3.07,3.07,0,1,0,3.07,3.06A3.07,3.07,0,0,0,192,324.55Zm0,5.61a2.55,2.55,0,1,1,2.54-2.55A2.54,2.54,0,0,1,192,330.16ZM81.6,402.08a3.07,3.07,0,1,0,0,6.14,3.07,3.07,0,0,0,0-6.14Zm0,5.61a2.54,2.54,0,1,1,2.52-2.52A2.53,2.53,0,0,1,81.6,407.69ZM112.81,392a3.07,3.07,0,1,0,3,3.07A3.07,3.07,0,0,0,112.81,392Zm0,5.59a2.54,2.54,0,1,1,2.52-2.52A2.54,2.54,0,0,1,112.81,397.6Zm-23.6-83.13a2.09,2.09,0,0,0-.43,0c-.11.2-.22.4-.32.6a2.67,2.67,0,0,1,.75-.11,2.53,2.53,0,1,1-2.39,3.3c-.12.22-.22.42-.32.63a3.06,3.06,0,1,0,2.71-4.46Zm8.63,23.47a3.06,3.06,0,1,0,3,3.05A3.06,3.06,0,0,0,97.84,337.94Zm0,5.58a2.53,2.53,0,1,1,2.52-2.53A2.55,2.55,0,0,1,97.84,343.52Zm25.21-69.34a3.07,3.07,0,0,0,0,6.14,3.07,3.07,0,1,0,0-6.14Zm0,5.61a2.54,2.54,0,1,1,2.56-2.55A2.54,2.54,0,0,1,123.05,279.79Zm3.08,47.56a3.07,3.07,0,1,0,3.07,3.06A3.07,3.07,0,0,0,126.13,327.35Zm0,5.61a2.54,2.54,0,1,1,2.54-2.55A2.54,2.54,0,0,1,126.13,333Zm26.15-65.65a3.07,3.07,0,1,0,3.05,3.08A3.08,3.08,0,0,0,152.28,267.31Zm0,5.6a2.54,2.54,0,1,1,2.52-2.52A2.53,2.53,0,0,1,152.28,272.91Zm23.52,7.26a3.07,3.07,0,1,0,3.06,3.05A3.08,3.08,0,0,0,175.8,280.17Zm0,5.61a2.55,2.55,0,1,1,2.52-2.56A2.55,2.55,0,0,1,175.8,285.78ZM165.46,399a3.07,3.07,0,1,0,3.06,3.06A3.06,3.06,0,0,0,165.46,399Zm0,5.61a2.54,2.54,0,1,1,2.52-2.55A2.54,2.54,0,0,1,165.46,404.63Zm-28-25.59a3.06,3.06,0,1,0,3.05,3A3.06,3.06,0,0,0,137.45,379Zm0,5.59a2.53,2.53,0,1,1,0-5.06,2.53,2.53,0,0,1,0,5.06Zm33.07-42.45a3.07,3.07,0,1,0,3,3.05A3.06,3.06,0,0,0,170.52,342.18Zm0,5.59a2.54,2.54,0,1,1,2.52-2.54A2.54,2.54,0,0,1,170.52,347.77Zm3-43.12a3.06,3.06,0,1,0,3.06,3.06A3.06,3.06,0,0,0,173.57,304.65Zm0,5.58a2.53,2.53,0,1,1,0-5.06,2.53,2.53,0,1,1,0,5.06Zm21.23,44.3a3.06,3.06,0,0,0-1.22,5.86l-.1-.66a2.52,2.52,0,0,1,1.32-4.68,2,2,0,0,1,.61.08c.09-.15.2-.3.3-.47A3,3,0,0,0,194.8,354.53Zm-40-32.78a3.07,3.07,0,1,0,3.06,3.07A3.08,3.08,0,0,0,154.82,321.75Zm0,5.6a2.54,2.54,0,1,1,2.53-2.53A2.53,2.53,0,0,1,154.82,327.35ZM76.15,354.53a3.06,3.06,0,1,0,3.06,3.05A3.07,3.07,0,0,0,76.15,354.53Zm0,5.58a2.53,2.53,0,1,1,2.52-2.53A2.53,2.53,0,0,1,76.15,360.11Zm61.3,47.07a3.06,3.06,0,0,0-3.06,2.92h.53a2.55,2.55,0,0,1,2.53-2.4,2.52,2.52,0,0,1,2.51,2.39h.54A3.06,3.06,0,0,0,137.45,407.18Zm-23.66-47.89a3.06,3.06,0,1,0,3.06,3A3.06,3.06,0,0,0,113.79,359.29Zm0,5.59a2.54,2.54,0,1,1,2.53-2.54A2.54,2.54,0,0,1,113.79,364.88Zm1.52-61.79a3.06,3.06,0,1,0,3.08,3.07A3.07,3.07,0,0,0,115.31,303.09Zm0,5.59a2.53,2.53,0,1,1,0-5.06,2.53,2.53,0,1,1,0,5.06ZM61,381a3.58,3.58,0,0,0-.58.05c-.07.21-.14.4-.2.6a2.54,2.54,0,1,1,.78,5,2.5,2.5,0,0,1-2.11-1.16l-.21.6A3,3,0,0,0,61,387.15,3.07,3.07,0,1,0,61,381ZM94.29,376A3.07,3.07,0,1,0,97.36,379,3.06,3.06,0,0,0,94.29,376Zm0,5.59A2.54,2.54,0,1,1,96.83,379,2.54,2.54,0,0,1,94.29,381.54ZM143,352a3.06,3.06,0,1,0,3.05,3.06A3.08,3.08,0,0,0,143,352Zm0,5.59a2.53,2.53,0,1,1,2.53-2.53A2.54,2.54,0,0,1,143,357.58ZM135.1,256.63a2.47,2.47,0,0,1-1.83,1h0l-.7.49a3,3,0,0,0,.52.05,3.08,3.08,0,0,0,2.79-1.79Zm9.46,34.05a3.07,3.07,0,1,0,3.09,3.05A3.06,3.06,0,0,0,144.56,290.68Zm0,5.61a2.55,2.55,0,1,1,2.56-2.56A2.55,2.55,0,0,1,144.56,296.29Z" style="fill: rgb(255, 255, 255); transform-origin: 128.585px 333.24px;" id="elqdqwd7tll0l" class="animable"></path><path d="M175,350.84a125.69,125.69,0,0,0-18.29,3c-3,.76-5.9,1.66-8.82,2.62-1.46.48-2.92.91-4.39,1.33a19.89,19.89,0,0,1-4.71.89.11.11,0,0,0,0,.22,34.38,34.38,0,0,0,4.54-.08,33.56,33.56,0,0,0,4.32-.82c3-.74,6-1.63,9-2.41,6.1-1.56,12.19-3.13,18.38-4.25C175.37,351.3,175.3,350.81,175,350.84Z" style="fill: rgb(38, 50, 56); transform-origin: 156.968px 354.89px;" id="el4eo85llif6q" class="animable"></path><path d="M190.23,356.3a134.43,134.43,0,0,0-15.28-.74c-2.55,0-5.08.21-7.62.46-1.22.12-2.43.26-3.64.41s-2.64.52-4,.67c-.14,0-.14.23,0,.22,1.26-.11,2.55,0,3.81,0l3.81-.1c2.55-.06,5.09-.1,7.64-.18,5.09-.18,10.16-.3,15.26-.29C190.51,356.72,190.49,356.33,190.23,356.3Z" style="fill: rgb(38, 50, 56); transform-origin: 175.007px 356.438px;" id="el7vzffhiy0m7" class="animable"></path><path d="M116.51,270.36c-38.36,40.21-86.06,124.23-76.62,141,10.5,18.61,65.38-38.29,63.65-41-1.48-2.33,18.07-53.25,32-90.25S126,260.42,116.51,270.36Z" style="fill: rgb(211, 118, 106); transform-origin: 89.2652px 336.307px;" id="elxx4cbb8wai" class="animable"></path><path d="M69.51,318.57l55.08,9.91s13.75-39,16.47-60.69c1.53-12.14-5.61-12.64-14.58-6.19C95.05,284.19,69.51,318.57,69.51,318.57Z" style="fill: rgb(46, 125, 157); transform-origin: 105.389px 292.987px;" id="elhiscky6rsze" class="animable"></path><path d="M89.21,314.47a3.06,3.06,0,1,0,3.07,3A3.06,3.06,0,0,0,89.21,314.47Zm0,5.59a2.53,2.53,0,1,1,2.53-2.54A2.53,2.53,0,0,1,89.21,320.06Zm33.84-45.88a3.07,3.07,0,0,0,0,6.14,3.07,3.07,0,1,0,0-6.14Zm0,5.61a2.54,2.54,0,1,1,2.56-2.55A2.54,2.54,0,0,1,123.05,279.79ZM99,286.21a3,3,0,0,0-1.33.31h0L96.22,288h0a2.87,2.87,0,0,0-.3,1.31A3.07,3.07,0,1,0,99,286.21Zm0,5.61a2.54,2.54,0,1,1,2.55-2.55A2.54,2.54,0,0,1,99,291.82Zm24.88,36.54.64.12a.34.34,0,0,1,.12-.09q.06-.19.27-.78A2.86,2.86,0,0,0,123.86,328.36Zm-8.55-25.27a3.06,3.06,0,1,0,3.08,3.07A3.07,3.07,0,0,0,115.31,303.09Zm0,5.59a2.53,2.53,0,1,1,0-5.06,2.53,2.53,0,1,1,0,5.06Zm17.41-50.53c.11,0,.23,0,.35,0a3,3,0,0,0,1.77-.58A11.66,11.66,0,0,0,132.72,258.15Z" style="fill: rgb(255, 255, 255); transform-origin: 110.51px 293.025px;" id="elvwkoshdj5x" class="animable"></path><path d="M124.22,319.47c-8.34-2.23-31.16-7.62-46.44-9.18-.1,0-.17.34-.08.36,12.52,3.22,37.9,7.83,46.41,9.33C124.27,320,124.38,319.51,124.22,319.47Z" style="fill: rgb(38, 50, 56); transform-origin: 100.978px 315.135px;" id="el1v9ems0tg57" class="animable"></path><path d="M117.87,327.28c2.27.22,4.54.48,6.79.79l-.47.28c1.64-6,3.46-11.94,5.41-17.84S133.65,298.76,136,293c-1.44,6.06-3.18,12-5,18s-3.84,11.83-6,17.66l-.14.35-.34-.07Q121.18,328.15,117.87,327.28Z" style="fill: rgb(38, 50, 56); transform-origin: 126.935px 311.005px;" id="elmgb1eubgkt" class="animable"></path><path d="M132.37,304.86a17,17,0,0,1,1.88-3.47,24.77,24.77,0,0,1,2.49-3.09,7.29,7.29,0,0,1-.65,1.89,13.49,13.49,0,0,1-1,1.72A12.86,12.86,0,0,1,132.37,304.86Z" style="fill: rgb(38, 50, 56); transform-origin: 134.555px 301.58px;" id="ellzy7mlfmk5r" class="animable"></path><path d="M40.89,413c10.4,11.26,34.42,10.39,95.09,13.89,8.4.48,26.48-61.06,17.55-62-11.26-1.24-54-.37-57.19-.13C69,366.73,33.83,405.38,40.89,413Z" style="fill: rgb(211, 118, 106); transform-origin: 97.9598px 395.566px;" id="elxi7qy08jf4" class="animable"></path><path d="M134.19,364.26s23.88-9.1,37.9-10c18.78-1.19,35.49,5.51,42.32,8.74,14.26,6.74,44.08,32.9,38.05,42.81-5.47,9-34.6-19.32-34.6-19.32s34.46,23.93,25.9,33.52-40.52-25.18-40.52-25.18,34.86,25.39,24.46,33.88c-7.85,6.41-38.56-23.44-38.56-23.44s29.8,22,22,29c-8.62,7.68-38.69-18.1-38.69-18.1C149.67,430.47,133,428,121.3,424.76,118.47,424,134.19,364.26,134.19,364.26Z" style="fill: rgb(211, 118, 106); transform-origin: 187.107px 394.91px;" id="el33ouxtjq91f" class="animable"></path><path d="M206.47,377.45c4.15,2.67,8.37,5.34,12.27,8.36s7.69,6.19,11.29,9.57c8.83,8.27,13.06,14.84,12.76,14.46-7.23-8.91-21-20-24.92-23s-7.63-6.23-11.52-9.25C206.26,377.52,206.38,377.39,206.47,377.45Z" style="fill: rgb(38, 50, 56); transform-origin: 224.562px 393.645px;" id="elbgi4astdice" class="animable"></path><path d="M195.3,391.33c5.15,3.63,10.39,7.05,15.39,10.91s9.34,7.93,14,12.1c.36.32.07.41-.31.1-4.85-4-9.64-7.29-14.54-11.22s-9.65-8-14.67-11.77C195.12,391.39,195.22,391.28,195.3,391.33Z" style="fill: rgb(38, 50, 56); transform-origin: 210.005px 402.974px;" id="el6f7516bk4qv" class="animable"></path><path d="M183.56,401.52c8.16,5.15,15.35,11.79,22.26,18.48.34.34,0,.41-.42.09-7.28-6.29-13-11.27-22-18.29C183.24,401.69,183.39,401.41,183.56,401.52Z" style="fill: rgb(38, 50, 56); transform-origin: 194.645px 410.895px;" id="el78a3is3b4ix" class="animable"></path><path d="M70.51,374c4.77-3.05,18.35-10.33,32.12-9.2a.11.11,0,1,1,0,.22c-11.28.52-27.12,6.54-32,9.15C70.5,374.23,70.39,374.06,70.51,374Z" style="fill: rgb(38, 50, 56); transform-origin: 86.5992px 369.432px;" id="elrrv6pcozu18" class="animable"></path><path d="M141.62,265.48c.74,2.55,13.95,18.66,25.72,17.48,3.83-.38,2.64-21.4,2.64-21.4l.27-1.57L174,238l-26.41-15-3.8-2s-.62,6.09-1.32,13.67c0,.36-.07.71-.1,1.08s-.1.84-.13,1.24c-.12,1.13-.24,2.29-.33,3.44-.07.88-.15,1.73-.19,2.66s-.12,1.83-.18,2.75C141,255,141.32,264.39,141.62,265.48Z" style="fill: rgb(211, 118, 106); transform-origin: 157.624px 252.011px;" id="elkw8jfyq7na" class="animable"></path><path d="M142.44,234.63A44.81,44.81,0,0,0,170.25,260L174,238l-26.41-15-3.8-2S143.14,227.05,142.44,234.63Z" style="fill: rgb(38, 50, 56); transform-origin: 158.22px 240.5px;" id="elrm9iv0hoge8" class="animable"></path><path d="M199.18,195.45c11.23,37.52-10,48.48-18.07,50.89-7.34,2.19-32.64,8.72-47.68-27.44s-1.16-53.24,15.38-59.14S188,157.93,199.18,195.45Z" style="fill: rgb(211, 118, 106); transform-origin: 164.691px 202.896px;" id="elkgst5ibpim" class="animable"></path><path d="M189.32,187.67a25.76,25.76,0,0,1-2.57.85,4.34,4.34,0,0,1-2.78.37,1.4,1.4,0,0,1-.86-1.47,3.45,3.45,0,0,1,2.54-2.41,5,5,0,0,1,3.66,0A1.48,1.48,0,0,1,189.32,187.67Z" style="fill: rgb(38, 50, 56); transform-origin: 186.622px 186.818px;" id="elfpr60wikpvs" class="animable"></path><path d="M166.56,202.3c.87-.31,1.63-.74,2.46-1.13a4.35,4.35,0,0,0,2.29-1.62,1.4,1.4,0,0,0-.37-1.66,3.45,3.45,0,0,0-3.5,0,5.06,5.06,0,0,0-2.72,2.45A1.49,1.49,0,0,0,166.56,202.3Z" style="fill: rgb(38, 50, 56); transform-origin: 168.029px 199.892px;" id="elyag18fxvh9" class="animable"></path><path d="M172.8,205.34c-.05-.09-.16.18-.12.28.94,2.5,1.59,5.52-.41,7.13-.06.05,0,.18.07.14C175,211.55,174.09,207.55,172.8,205.34Z" style="fill: rgb(38, 50, 56); transform-origin: 173.151px 209.11px;" id="elsqt19ojsiu" class="animable"></path><path d="M169.65,203.46c-4.17,1.07-1.72,9.33,2.14,8.34S173.14,202.57,169.65,203.46Z" style="fill: rgb(38, 50, 56); transform-origin: 170.605px 207.638px;" id="elhd365ux8h58" class="animable"></path><path d="M168.16,204.38c-.59.68-1,1.71-1.89,2.06s-2-.24-2.9-.88c-.09-.07-.14,0-.11.14.45,1.59,1.54,3,3.3,2.76,1.61-.24,2.31-2,2.23-3.68C168.78,204.47,168.39,204.11,168.16,204.38Z" style="fill: rgb(38, 50, 56); transform-origin: 166.024px 206.386px;" id="elnzb9yak6ttf" class="animable"></path><path d="M186.94,199.93c0-.1.24.07.26.17.66,2.59,1.85,5.44,4.41,5.62.08,0,.11.14,0,.15C188.69,206.29,187.15,202.49,186.94,199.93Z" style="fill: rgb(38, 50, 56); transform-origin: 189.311px 202.901px;" id="el4ymjhqbsi6r" class="animable"></path><path d="M188.46,196.6c4-1.5,6.73,6.67,3,8.06S185.08,197.86,188.46,196.6Z" style="fill: rgb(38, 50, 56); transform-origin: 190.067px 200.618px;" id="elt2oa7jejuad" class="animable"></path><path d="M190.34,196.57c.79.22,1.69.8,2.48.59s1.28-1.34,1.57-2.37c0-.11.12-.06.16,0,.56,1.55.58,3.35-.82,4.15s-2.73-.29-3.62-1.72C190,197,190,196.48,190.34,196.57Z" style="fill: rgb(38, 50, 56); transform-origin: 192.476px 196.968px;" id="eligt826v8bza" class="animable"></path><path d="M179.89,227.11c.77.46,1.6,1.14,2.56,1a6.88,6.88,0,0,0,2.62-1.34.09.09,0,0,1,.14.11,3.58,3.58,0,0,1-2.94,2.22,2.85,2.85,0,0,1-2.6-1.79C179.59,227.15,179.78,227.05,179.89,227.11Z" style="fill: rgb(38, 50, 56); transform-origin: 182.436px 227.923px;" id="el28tpsokrnli" class="animable"></path><path d="M187.69,214.61s1.71,3.64,2.26,5.44c.05.17-.36.38-.95.6,0,0,0,0-.07,0a9,9,0,0,1-9.28-.62.2.2,0,0,1,.19-.34,13.47,13.47,0,0,0,8.49-.17c0-.54-3.13-6.14-2.85-6.25a16.22,16.22,0,0,1,4.36-.34c-3.33-7.69-7.86-14.78-11.06-22.49a.26.26,0,0,1,.44-.26c5.27,7.1,9.29,15.86,12.93,23.71C192.62,214.9,188.51,214.69,187.69,214.61Z" style="fill: rgb(38, 50, 56); transform-origin: 185.476px 205.872px;" id="elzf5etebubq" class="animable"></path><path d="M186.75,220.51a8.62,8.62,0,0,1-2.41,3.64,3.94,3.94,0,0,1-2.19.9c-1.76.12-2.31-1.35-2.44-2.72a9.37,9.37,0,0,1,.07-2.19A11.21,11.21,0,0,0,186.75,220.51Z" style="fill: rgb(38, 50, 56); transform-origin: 183.213px 222.598px;" id="eli92qrboweza" class="animable"></path><path d="M184.34,224.15a3.94,3.94,0,0,1-2.19.9c-1.76.12-2.31-1.35-2.44-2.72C181.51,221.92,183.62,222.52,184.34,224.15Z" style="fill: rgb(255, 153, 186); transform-origin: 182.025px 223.631px;" id="elqdto4wno0ef" class="animable"></path><path d="M202.39,211.88a20.18,20.18,0,0,1,.38,5.2,16.75,16.75,0,0,1-1,5.14c0-1.75.14-3.45.21-5.17S202.18,213.62,202.39,211.88Z" style="fill: rgb(38, 50, 56); transform-origin: 202.286px 217.05px;" id="elc5qycr4bzae" class="animable"></path><path d="M139.46,230.26c7-6.82,4.23-15.95,4.23-15.95a42.45,42.45,0,0,0,11.86-19.22c0,.89.2,7.29.18,10.55,22.45-12.55,23.36-33.91,23.36-33.91,10.56,5.42,13.88,10,15.89,12.2,0,0-5-15.21-16.14-22.86-13.58-9.36-25.43-2.82-25.43-2.82a34.7,34.7,0,0,0-29.56,21.44C114.27,202.33,139.46,230.26,139.46,230.26Z" style="fill: rgb(38, 50, 56); transform-origin: 158.328px 193.144px;" id="el0z5mrtmlulq" class="animable"></path><path d="M172.59,195.52a45.11,45.11,0,0,1-10.72,8.72,0,0,0,1,1,0-.05A38.82,38.82,0,0,0,175.7,187.4a38.13,38.13,0,0,0,2.62-9.16,27.12,27.12,0,0,0-.06-10.47.2.2,0,1,1,.38-.09c.9,3.5,1.7,6.74,1.46,10.36a28.29,28.29,0,0,1-2.52,9.94,31.46,31.46,0,0,1-5,7.54Z" style="fill: rgb(38, 50, 56); transform-origin: 171.007px 185.861px;" id="eldk2zolaiuxo" class="animable"></path><path d="M140.25,220s-10.85-10.24-15.66-6.13,5.07,20.16,11.94,21.21a6.63,6.63,0,0,0,8-5.29Z" style="fill: rgb(211, 118, 106); transform-origin: 133.923px 224.072px;" id="elnau3awastv" class="animable"></path><path d="M127.54,218.4a.09.09,0,0,0,0,.18c4.84.88,8.06,4.54,10.6,8.5-1.68-1.38-3.67-1.91-5.56.13-.1.11,0,.26.17.21a4.07,4.07,0,0,1,4.68.49,19,19,0,0,1,2.83,3.11c.3.36,1,0,.73-.44l-.06-.09C139.86,224.76,133.78,217.71,127.54,218.4Z" style="fill: rgb(38, 50, 56); transform-origin: 134.25px 224.76px;" id="eln9g97a4q9f" class="animable"></path><path d="M173,157.42a61.46,61.46,0,0,0-17-5.31c-6.61-.92-26.45,1.9-31.5,6s-7.66,22.28-7.84,25.15.89,20.27,7.13,24.54,7.22-25.23,17.29-34.89S173,157.42,173,157.42Z" style="fill: rgb(46, 125, 157); transform-origin: 144.821px 180.077px;" id="el9i3di0xy3d" class="animable"></path><g id="el4m4rsmz5q7s"><path d="M173,157.43s-21.88,5.83-31.93,15.49-11.05,39.17-17.29,34.9c-2.75-1.89-4.06-4.65-5.14-9.28,1.43-8.61,5.09-21.95,12.4-31.12,6.84-8.6,18.49-12.84,30.9-14.08A69.43,69.43,0,0,1,173,157.43Z" style="opacity: 0.1; transform-origin: 145.82px 180.79px;" class="animable"></path></g><path d="M125.18,225.22c.66-7.8,8.86-28.59,17.34-40.46s33-18.54,36.46-18.3c8.3.58,9.55,4.6,10.87,3.87s-5.6-8.54-7.92-10-8.57-4.82-12.18-4.77-25.91,2-34.12,11.35-20,35.86-18,42.7c.48,1.64,2.64,2.72,3.3,5.05.87,3.05,1.47,6.58,2.36,8.72C124,225.13,125.12,225.9,125.18,225.22Z" style="fill: rgb(46, 125, 157); transform-origin: 153.711px 190.513px;" id="el9vr9ndzycug" class="animable"></path><path d="M144.5,179.41a38.65,38.65,0,0,1-5.34-4,29.54,29.54,0,0,1-4.56-5c-.09-.14-.31,0-.22.12a21.78,21.78,0,0,0,4.13,5.59,18.67,18.67,0,0,0,5.81,3.7C144.56,179.9,144.71,179.55,144.5,179.41Z" style="fill: rgb(38, 50, 56); transform-origin: 139.479px 175.092px;" id="el4i4ffnpgsr9" class="animable"></path><path d="M125.2,217.43c-.21-.57-.57-1.07-.83-1.62a10.24,10.24,0,0,1-.71-1.94,17.66,17.66,0,0,0-.83-3.8,14.67,14.67,0,0,0-1.8-2.62,5.24,5.24,0,0,1-1.5-3.19.13.13,0,0,0-.26,0c0,2.37,1.53,4.08,2.54,6.07.65,1.28.6,2.72,1,4.07a6.15,6.15,0,0,0,2,3.29C125,217.78,125.28,217.62,125.2,217.43Z" style="fill: rgb(38, 50, 56); transform-origin: 122.242px 210.923px;" id="elqq3dw0cv3o9" class="animable"></path><path d="M128,209c-.73-.9-1.51-1.71-2.15-2.68a25,25,0,0,1-1.64-2.94c-.48-1-.88-2-1.34-3-.54-1.19-1.23-2.32-1.72-3.53-.06-.16-.29,0-.23.12.51,1.26.79,2.6,1.25,3.88a26.33,26.33,0,0,0,1.45,3.2,17.43,17.43,0,0,0,1.81,2.83,8.23,8.23,0,0,0,2.48,2.26A.07.07,0,0,0,128,209Z" style="fill: rgb(38, 50, 56); transform-origin: 124.474px 202.968px;" id="el3h6j34164f" class="animable"></path><path d="M130.94,201.43a22.34,22.34,0,0,1-4.19-4.85c-1.11-1.77-2.12-3.62-3.1-5.46-.07-.13-.29-.05-.24.09a26.57,26.57,0,0,0,2.61,6,13.87,13.87,0,0,0,2,2.49,14.39,14.39,0,0,0,2.79,2C130.89,201.71,131.06,201.54,130.94,201.43Z" style="fill: rgb(38, 50, 56); transform-origin: 127.192px 196.377px;" id="el17s44qx1q8a" class="animable"></path><path d="M134.12,194.17a7.92,7.92,0,0,1-2-2.12c-.66-.88-1.31-1.78-1.92-2.7s-1.21-1.75-1.79-2.63a7.55,7.55,0,0,1-1.37-2.89.13.13,0,0,0-.25,0,7.83,7.83,0,0,0,.85,3.06,21.13,21.13,0,0,0,1.73,3.08,28.15,28.15,0,0,0,2.15,2.74,5.09,5.09,0,0,0,2.49,1.75C134.16,194.54,134.31,194.28,134.12,194.17Z" style="fill: rgb(38, 50, 56); transform-origin: 130.5px 189.105px;" id="elwuh18zh2h9" class="animable"></path><path d="M136.47,184.93c-.71-.72-1.42-1.44-2.08-2.21s-1.27-1.58-1.87-2.39-1.29-1.69-1.86-2.57a.13.13,0,0,0-.23.12,21.62,21.62,0,0,0,1.4,2.86,24.22,24.22,0,0,0,1.85,2.54,25.3,25.3,0,0,0,2.12,2.27,8,8,0,0,0,2.52,1.81c.14,0,.3-.13.21-.26A15.09,15.09,0,0,0,136.47,184.93Z" style="fill: rgb(38, 50, 56); transform-origin: 134.488px 182.529px;" id="elbbu4vw5lu0m" class="animable"></path><path d="M150.54,175.06a34.84,34.84,0,0,0-2.34-2.81,37.62,37.62,0,0,0-8.74-6.73c-.12-.06-.28.1-.17.2,3.66,3.21,7.44,6.27,11.06,9.51C150.48,175.34,150.65,175.19,150.54,175.06Z" style="fill: rgb(38, 50, 56); transform-origin: 144.914px 170.388px;" id="elvscq7e02w6" class="animable"></path><path d="M155.35,168.44a16.2,16.2,0,0,0-2.62-2.55,34.64,34.64,0,0,0-6.63-3.81c-.15-.07-.29.13-.14.22,2,1.37,4,2.71,6,4.2a30.52,30.52,0,0,1,2.76,2.32c.87.83,1.53,1.83,2.36,2.7a.09.09,0,0,0,.16-.09A9,9,0,0,0,155.35,168.44Z" style="fill: rgb(38, 50, 56); transform-origin: 151.574px 166.816px;" id="el3aimyxktrov" class="animable"></path><path d="M161.89,165.46a17.11,17.11,0,0,0-2.42-2.54,19.9,19.9,0,0,0-5.65-3.42c-.14-.06-.24.16-.11.23a39.65,39.65,0,0,1,5.33,4c.83.74,1.62,1.52,2.42,2.29a33.33,33.33,0,0,0,2.34,2.41c.07,0,.15,0,.12-.11A17.61,17.61,0,0,0,161.89,165.46Z" style="fill: rgb(38, 50, 56); transform-origin: 158.788px 163.96px;" id="elr4y3h1asl1f" class="animable"></path><path d="M166.63,161.63c-.81-.68-1.65-1.31-2.5-1.94a9.94,9.94,0,0,0-2.69-1.56c-.15,0-.22.15-.11.24,1.58,1.29,3.14,2.61,4.69,3.94a27.38,27.38,0,0,1,3.6,4.35c0,.06.16,0,.14-.08A9.92,9.92,0,0,0,166.63,161.63Z" style="fill: rgb(38, 50, 56); transform-origin: 165.519px 162.407px;" id="elbo7mqm80zf" class="animable"></path><path d="M172.51,160.45a16.1,16.1,0,0,0-5.17-3.31c-.13-.06-.24.16-.11.23a19.61,19.61,0,0,1,4.69,3.62,27.29,27.29,0,0,1,3.68,4.68c.05.08.2,0,.17-.06A13.27,13.27,0,0,0,172.51,160.45Z" style="fill: rgb(38, 50, 56); transform-origin: 171.473px 161.417px;" id="el2bo9m0ifwo6" class="animable"></path><path d="M180.13,164a9.15,9.15,0,0,0-.65-1.19,13.13,13.13,0,0,0-1.71-2.15,28.39,28.39,0,0,0-4.39-3.47c-.13-.09-.27.13-.13.22a23.55,23.55,0,0,1,4.1,3.56,18.5,18.5,0,0,1,1.64,2.1,12.69,12.69,0,0,1,.68,1.11,7.18,7.18,0,0,0,.63,1.12.14.14,0,0,0,.23-.09A3.59,3.59,0,0,0,180.13,164Z" style="fill: rgb(38, 50, 56); transform-origin: 176.861px 161.251px;" id="el0n6yyhzu8gjr" class="animable"></path><path d="M184.82,164.52a20.16,20.16,0,0,0-1.4-1.77,17.15,17.15,0,0,0-1.61-1.58c-.58-.51-1.19-1-1.75-1.52a.13.13,0,1,0-.16.2,12.78,12.78,0,0,1,1.63,1.66l1.44,1.65,1.44,1.66a19.72,19.72,0,0,0,1.44,1.71.11.11,0,0,0,.17-.12A10.07,10.07,0,0,0,184.82,164.52Z" style="fill: rgb(38, 50, 56); transform-origin: 182.928px 163.078px;" id="el3hijog68p7g" class="animable"></path></g><g id="freepik--Speedometer--inject-69" class="animable" style="transform-origin: 326.146px 197.551px;"><path d="M462.43,181c-5.8,41.26-39.52,75.78-79.39,84.44l-23.92,34.82L345,265.47c-37.43-8.65-61.46-43.17-55.66-84.44,6.72-47.8,50.91-86.55,98.71-86.55S469.15,133.23,462.43,181Z" style="fill: rgb(255, 255, 255); transform-origin: 375.885px 197.37px;" id="el9mg8hi1viy8" class="animable"></path><path d="M462.43,181a95.49,95.49,0,0,1-9.13,29.25,104,104,0,0,1-17.59,25.13,106.94,106.94,0,0,1-24,19.07,99.62,99.62,0,0,1-28.57,11.2l.12-.09-23.86,34.86-.3.43-.19-.48-14.19-34.8.24.21a76.07,76.07,0,0,1-22.28-9A72.26,72.26,0,0,1,304.49,241a73.19,73.19,0,0,1-11.86-20.94A78.2,78.2,0,0,1,288,196.42a91.56,91.56,0,0,1,.42-12.06l.36-3c.13-1,.32-2,.48-3,.29-2,.78-3.95,1.2-5.92a97,97,0,0,1,3.56-11.52c.67-1.9,1.52-3.72,2.29-5.58.42-.91.87-1.81,1.3-2.72s.87-1.81,1.36-2.69a105.75,105.75,0,0,1,6.2-10.33,108.25,108.25,0,0,1,7.39-9.53c.64-.77,1.31-1.52,2-2.24l2.06-2.21c1.44-1.4,2.82-2.86,4.33-4.19a111.9,111.9,0,0,1,9.3-7.66,101,101,0,0,1,44-18.48,91.05,91.05,0,0,1,12-1c2-.09,4,0,6,.08l3,.22,1.5.12,1.49.19a77.64,77.64,0,0,1,23.09,6.49,71.84,71.84,0,0,1,19.78,13.52,71.25,71.25,0,0,1,14.16,19.31c.94,1.77,1.69,3.63,2.49,5.47s1.44,3.74,2,5.67,1.08,3.86,1.57,5.8.84,3.92,1.07,5.91A85,85,0,0,1,462.43,181Zm0,0a85.26,85.26,0,0,0-.06-23.93c-.24-2-.7-3.94-1.09-5.91s-.94-3.89-1.59-5.78-1.31-3.78-2-5.66-1.56-3.68-2.5-5.45A70.91,70.91,0,0,0,441,115.1a71.69,71.69,0,0,0-19.74-13.4,77.41,77.41,0,0,0-23-6.38l-1.48-.19-1.5-.11-3-.21c-2,0-4-.16-6-.06a91.61,91.61,0,0,0-11.93,1,100.7,100.7,0,0,0-43.7,18.53,108.57,108.57,0,0,0-9.21,7.65c-1.49,1.32-2.86,2.78-4.28,4.17l-2,2.2c-.68.72-1.35,1.47-2,2.24a101.37,101.37,0,0,0-13.43,19.75c-.48.87-.91,1.77-1.33,2.67s-.87,1.8-1.28,2.71c-.76,1.84-1.6,3.65-2.25,5.54a94.66,94.66,0,0,0-3.5,11.42c-.4,2-.88,3.89-1.16,5.86-.15,1-.34,2-.47,3l-.34,3a89.69,89.69,0,0,0-.37,11.93,78.57,78.57,0,0,0,4.48,23.36A70.46,70.46,0,0,0,323,256.14a75.33,75.33,0,0,0,22,9l.17,0,.07.16,14.07,34.85-.49-.05,24-34.78.05-.07.08,0a99.56,99.56,0,0,0,28.51-11.06,106.75,106.75,0,0,0,24.05-19,103.86,103.86,0,0,0,17.65-25A95.38,95.38,0,0,0,462.43,181Z" style="fill: rgb(38, 50, 56); transform-origin: 375.609px 197.551px;" id="elgqff7wva6q" class="animable"></path><path d="M301.91,181h74.93l-45.37-52.79C315.92,141.67,304.81,160.36,301.91,181Z" style="fill: rgb(46, 125, 157); transform-origin: 339.375px 154.605px;" id="el7tzoec8seoo" class="animable"></path><g id="el8ex02ss32yi"><path d="M301.91,181h74.93l-45.37-52.79C315.92,141.67,304.81,160.36,301.91,181Z" style="opacity: 0.1; transform-origin: 339.375px 154.605px;" class="animable"></path></g><path d="M331.47,128.25,376.84,181l10.39-74h-1C366.09,107.06,346.66,115.14,331.47,128.25Z" style="fill: rgb(46, 125, 157); transform-origin: 359.35px 144px;" id="el5ta1c5tz313" class="animable"></path><g id="ellirmlwq7h6e"><path d="M331.47,128.25,376.84,181l10.39-74h-1C366.09,107.06,346.66,115.14,331.47,128.25Z" style="opacity: 0.2; transform-origin: 359.35px 144px;" class="animable"></path></g><path d="M387.23,107.07l-10.39,74L436,129.2C424.63,115.74,407.5,107.32,387.23,107.07Z" style="fill: rgb(46, 125, 157); transform-origin: 406.42px 144.07px;" id="elbyabjgzfykn" class="animable"></path><g id="eltrklyzbbg6"><path d="M387.23,107.07l-10.39,74L436,129.2C424.63,115.74,407.5,107.32,387.23,107.07Z" style="opacity: 0.3; transform-origin: 406.42px 144.07px;" class="animable"></path></g><path d="M376.84,181h73c2.83-20.2-2.69-38.49-13.91-51.84Z" style="fill: rgb(46, 125, 157); transform-origin: 413.706px 155.08px;" id="el9wfp5w68ged" class="animable"></path><g id="elixw8ymao2ir"><path d="M376.84,181h73c2.83-20.2-2.69-38.49-13.91-51.84Z" style="opacity: 0.4; transform-origin: 413.706px 155.08px;" class="animable"></path></g><path d="M376.84,181l44.55,51.83c15-13.35,25.63-31.64,28.47-51.83Z" style="fill: rgb(46, 125, 157); transform-origin: 413.35px 206.915px;" id="elu34bfz1isf" class="animable"></path><g id="el9c4bbut7p1p"><path d="M376.84,181l44.55,51.83c15-13.35,25.63-31.64,28.47-51.83Z" style="opacity: 0.5; transform-origin: 413.35px 206.915px;" class="animable"></path></g><path d="M301.91,181c-2.91,20.67,2.94,39.36,14.72,52.78L376.84,181Z" style="fill: rgb(46, 125, 157); transform-origin: 339.006px 207.39px;" id="elxqz864f6ubr" class="animable"></path><g id="elkfie30o1n5e"><ellipse cx="361.3" cy="185.37" rx="55.86" ry="48.73" style="fill: rgb(255, 255, 255); transform-origin: 361.3px 185.37px; transform: rotate(-52.52deg);" class="animable"></ellipse></g><path d="M369.63,185.92c-2.39-2.66-1.87-7.06,1.18-9.82s7.46-2.86,9.85-.2c.36.4,34.59,49.9,34.59,49.9S370,186.3,369.63,185.92Z" style="fill: rgb(38, 50, 56); transform-origin: 391.69px 199.883px;" id="el1hkjlh2t741" class="animable"></path><g id="elyqqrbybb2jp"><ellipse cx="375.88" cy="181.04" rx="11.46" ry="9.96" style="fill: rgb(38, 50, 56); transform-origin: 375.88px 181.04px; transform: rotate(-42.99deg);" class="animable"></ellipse></g><path d="M359.73,236.38a1.36,1.36,0,0,1-1.31,1.15H351a1,1,0,0,1-.81-.38,1.19,1.19,0,0,1,.3-1.63l7-5.59a3.08,3.08,0,0,0,1.16-2,2.41,2.41,0,0,0-.44-1.81,2.27,2.27,0,0,0-1.88-.88,3.14,3.14,0,0,0-1.91.69l-.73.59a1.11,1.11,0,0,1-1.61-.09,1.19,1.19,0,0,1,.31-1.63l.73-.58a5.59,5.59,0,0,1,3.54-1.29,4.33,4.33,0,0,1,3.48,1.64,4.37,4.37,0,0,1,.82,3.36,5.87,5.87,0,0,1-2.17,3.72l-4.44,3.57h4.44A1,1,0,0,1,359.73,236.38Z" style="fill: rgb(38, 50, 56); transform-origin: 355.506px 230.23px;" id="elxqon5imn81o" class="animable"></path><path d="M371.39,228.68a4.55,4.55,0,0,1,1,3.67,6.12,6.12,0,0,1-2,3.65,5.89,5.89,0,0,1-3.87,1.53h0A4.41,4.41,0,0,1,363,236a1.17,1.17,0,0,1,.24-1.67,1.18,1.18,0,0,1,1.67,0,2.33,2.33,0,0,0,1.88.84,3.13,3.13,0,0,0,2.1-.84,3.31,3.31,0,0,0,1.12-2,2.42,2.42,0,0,0-.56-2,2.3,2.3,0,0,0-1.86-.82,3.15,3.15,0,0,0-2.12.82,1.18,1.18,0,0,1-1.67,0c-.07-.09-.12-.19-.19-.28s0-.06,0-.06a.15.15,0,0,0,0-.1c0-.06,0-.11,0-.15s0,0,0,0a1.23,1.23,0,0,1,.05-.35L365,224a1.51,1.51,0,0,1,.64-.84l.09,0,.06,0a1.34,1.34,0,0,1,.56-.12h6.16a1,1,0,0,1,1,1.18,1.39,1.39,0,0,1-1.35,1.17h-5.13l-.54,2.07a5.84,5.84,0,0,1,1.42-.19A4.41,4.41,0,0,1,371.39,228.68Z" style="fill: rgb(38, 50, 56); transform-origin: 368.139px 230.287px;" id="elwuz4s0b1289" class="animable"></path><path d="M385.92,232.48a6,6,0,0,1-5.78,5.05,4.25,4.25,0,0,1-4.39-4.53s0,0,0-.05c0-.39.07-.79.13-1.19a13.11,13.11,0,0,1,1.33-4.27,8.8,8.8,0,0,1,3.19-3.57,6.66,6.66,0,0,1,3.27-1,1,1,0,0,1,1.06,1.1,1.45,1.45,0,0,1-1.3,1.21,4.14,4.14,0,0,0-2,.59,5.15,5.15,0,0,0-1.53,1.46c-.12.17-.23.35-.34.54a5.34,5.34,0,0,1,2.06-.42A4.3,4.3,0,0,1,385.92,232.48Zm-2.32,0a2.34,2.34,0,0,0-2.36-2.76,3.26,3.26,0,0,0-3.12,2.76,2.3,2.3,0,0,0,2.35,2.73A3.24,3.24,0,0,0,383.6,232.48Z" style="fill: rgb(38, 50, 56); transform-origin: 380.866px 230.225px;" id="el9lgqfe74p6v" class="animable"></path><path d="M359.92,243.79,357.13,247a.27.27,0,0,1-.23.12h0a.2.2,0,0,1-.2-.12l-1.88-3.23-.84,6a.31.31,0,0,1-.29.25.21.21,0,0,1-.22-.25l.95-6.76a.28.28,0,0,1,.13-.2l0,0a.26.26,0,0,1,.35.06l2.09,3.6,3.09-3.6a.28.28,0,0,1,.36-.06.21.21,0,0,1,.06.08.35.35,0,0,1,0,.14l-.95,6.76a.31.31,0,0,1-.29.25.21.21,0,0,1-.21-.25Z" style="fill: rgb(38, 50, 56); transform-origin: 356.987px 246.404px;" id="elx5ww8ddcas" class="animable"></path><path d="M362.44,247.61l0-.11v-.1l.62-4.4a.3.3,0,0,1,.29-.25.21.21,0,0,1,.22.25l-.41,2.94a2.83,2.83,0,0,1,2.1-1,2.13,2.13,0,0,1,2.11,2.56,3,3,0,0,1-2.83,2.55,2.09,2.09,0,0,1-1.82-1l-.1.74a.31.31,0,0,1-.3.25.22.22,0,0,1-.21-.25Zm.53-.11a1.7,1.7,0,0,0,1.67,2,2.38,2.38,0,0,0,2.25-2,1.7,1.7,0,0,0-1.67-2.05,2.4,2.4,0,0,0-2.24,2Z" style="fill: rgb(38, 50, 56); transform-origin: 364.761px 246.4px;" id="elacuw73ppzwu" class="animable"></path><path d="M369.34,247.57v-.2l.31-2.18a.3.3,0,0,1,.29-.25.21.21,0,0,1,.22.25l-.1.74a2.8,2.8,0,0,1,2.08-1,2.11,2.11,0,0,1,2.11,2.53,3,3,0,0,1-2.83,2.55,2.05,2.05,0,0,1-1.8-1l-.41,2.92a.29.29,0,0,1-.29.25.21.21,0,0,1-.22-.25Zm.52-.1a1.7,1.7,0,0,0,1.65,2,2.39,2.39,0,0,0,2.25-2,1.68,1.68,0,0,0-1.68-2,2.36,2.36,0,0,0-2.21,1.94Z" style="fill: rgb(38, 50, 56); transform-origin: 371.494px 248.555px;" id="el1q30oou1wb4" class="animable"></path><path d="M375.67,249a.27.27,0,0,1,.36,0,2.38,2.38,0,0,0,1.48.6,1.71,1.71,0,0,0,1-.32.92.92,0,0,0,.48-.62.71.71,0,0,0-.28-.63,2.27,2.27,0,0,0-1-.37h0a2.58,2.58,0,0,1-1.1-.4.92.92,0,0,1-.43-.92,1.53,1.53,0,0,1,.7-1,2.36,2.36,0,0,1,2.74.21.25.25,0,0,1,0,.35.26.26,0,0,1-.35.08,1.93,1.93,0,0,0-1.18-.51,1.68,1.68,0,0,0-1,.29.91.91,0,0,0-.41.58.53.53,0,0,0,.22.51,2.33,2.33,0,0,0,1,.36h0a3.22,3.22,0,0,1,1.18.41,1.12,1.12,0,0,1,.43,1.05,1.57,1.57,0,0,1-.73,1,2.35,2.35,0,0,1-1.33.41,2.73,2.73,0,0,1-1.79-.73A.24.24,0,0,1,375.67,249Z" style="fill: rgb(38, 50, 56); transform-origin: 377.64px 247.539px;" id="elzjj1va85axo" class="animable"></path><path d="M226.89,128.25c6.43-.21,12.86-.31,19.29-.39s12.86-.07,19.3-.11l19.29.11,9.65.14c3.21.08,6.43.13,9.64.25-3.21.11-6.43.16-9.64.24l-9.65.14-19.29.12c-6.44-.05-12.87,0-19.3-.12S233.32,128.45,226.89,128.25Z" style="fill: rgb(38, 50, 56); transform-origin: 265.475px 128.25px;" id="ellzt6wav1kur" class="animable"></path><path d="M219.82,169.14c5.16-.21,10.32-.31,15.48-.39s10.33-.07,15.49-.11,10.32,0,15.49.11l7.74.14c2.58.09,5.16.13,7.74.25-2.58.11-5.16.16-7.74.24l-7.74.14c-5.17.08-10.33.08-15.49.12s-10.33,0-15.49-.12S225,169.34,219.82,169.14Z" style="fill: rgb(38, 50, 56); transform-origin: 250.79px 169.14px;" id="elsvebgaqywjl" class="animable"></path><path d="M189,142.05c6.12-.2,12.23-.3,18.35-.38s12.23-.08,18.35-.12,12.23,0,18.34.12l9.18.14c3.05.08,6.11.13,9.17.24-3.06.11-6.12.16-9.17.25l-9.18.14c-6.11.08-12.23.07-18.34.11s-12.24,0-18.35-.12S195.08,142.26,189,142.05Z" style="fill: rgb(38, 50, 56); transform-origin: 225.695px 142.05px;" id="elz7mvo7w63oj" class="animable"></path><path d="M211.55,160.49c6.11-.21,12.23-.31,18.35-.39s12.23-.07,18.34-.11,12.23,0,18.35.11l9.17.14c3.06.09,6.12.13,9.18.25-3.06.11-6.12.16-9.18.24l-9.17.14c-6.12.08-12.23.08-18.35.12s-12.23,0-18.34-.12S217.66,160.69,211.55,160.49Z" style="fill: rgb(38, 50, 56); transform-origin: 248.245px 160.49px;" id="el1bbx17xqdbs" class="animable"></path><path d="M241.58,154.64c3.57-.21,7.14-.3,10.72-.38s7.14-.11,10.71-.12,7.14,0,10.71.12l5.36.14c1.79.08,3.57.13,5.36.24-1.79.11-3.57.16-5.36.25l-5.36.14c-3.57.09-7.14.1-10.71.11s-7.14,0-10.71-.12S245.15,154.85,241.58,154.64Z" style="fill: rgb(38, 50, 56); transform-origin: 263.01px 154.64px;" id="elc2ysj6zq0e" class="animable"></path></g><defs>     <filter id="active" height="200%">         <feMorphology in="SourceAlpha" result="DILATED" operator="dilate" radius="2"></feMorphology>                <feFlood flood-color="#32DFEC" flood-opacity="1" result="PINK"></feFlood>        <feComposite in="PINK" in2="DILATED" operator="in" result="OUTLINE"></feComposite>        <feMerge>            <feMergeNode in="OUTLINE"></feMergeNode>            <feMergeNode in="SourceGraphic"></feMergeNode>        </feMerge>    </filter>    <filter id="hover" height="200%">        <feMorphology in="SourceAlpha" result="DILATED" operator="dilate" radius="2"></feMorphology>                <feFlood flood-color="#ff0000" flood-opacity="0.5" result="PINK"></feFlood>        <feComposite in="PINK" in2="DILATED" operator="in" result="OUTLINE"></feComposite>        <feMerge>            <feMergeNode in="OUTLINE"></feMergeNode>            <feMergeNode in="SourceGraphic"></feMergeNode>        </feMerge>            <feColorMatrix type="matrix" values="0   0   0   0   0                0   1   0   0   0                0   0   0   0   0                0   0   0   1   0 "></feColorMatrix>    </filter></defs></svg>