<?xml version="1.0" encoding="UTF-8" standalone="no"?>
<svg
   xmlns:dc="http://purl.org/dc/elements/1.1/"
   xmlns:cc="http://creativecommons.org/ns#"
   xmlns:rdf="http://www.w3.org/1999/02/22-rdf-syntax-ns#"
   xmlns:svg="http://www.w3.org/2000/svg"
   xmlns="http://www.w3.org/2000/svg"
   viewBox="0 0 836.22052 184.252"
   id="svg2"
   height="184.252"
   width="836.22052"
   version="1.1">
  <metadata
     id="metadata14">
    <rdf:RDF>
      <cc:Work
         rdf:about="">
        <dc:format>image/svg+xml</dc:format>
        <dc:type
           rdf:resource="http://purl.org/dc/dcmitype/StillImage" />
      </cc:Work>
    </rdf:RDF>
  </metadata>
  <defs
     id="defs12" />
  <path
     id="path4"
     style="fill:#222943;fill-rule:evenodd"
     d="m 0.5071,0.6296 0,184.2525 836.2211,0 0,-184.2525 -836.2211,0 z" />
  <path
     id="path6"
     style="fill:#ffffff;fill-rule:evenodd"
     d="M 76.4388,160.7236 C 64.745,182.5481 40.7582,189.4045 20.2297,178.2941 13.5493,173.5138 8.6851,168.0293 5.6081,161.2298 c 0.394,0.5185 0.9156,0.885 1.4564,1.2461 3.1691,2.1201 6.916,2.1274 10.3711,1.1713 8.1491,-2.2552 14.1475,-13.7194 17.644,-20.2833 13.2556,-32.7932 26.5119,-65.586 39.7687,-98.3798 9.0737,-20.2008 21.2195,-46.7546 47.5114,-43.3732 11.261,1.448 20.0271,8.6874 24.9333,21.9388 -0.4382,-0.4198 -0.9023,-0.783 -1.3941,-1.0829 -7.715,-4.7089 -13.5683,5.8465 -16.3054,11.1623 -3.439,6.6796 -6.0069,14.0618 -8.9317,21.064 l -0.009,0.0175 c -14.5559,36.4811 -28.0899,70.058 -44.2136,106.013 z m 74.4789,-129.9765 42.9587,103.2854 c 2.4415,5.8703 3.7795,10.2289 3.8075,16.6422 0.0684,15.4863 -6.4953,23.1869 -16.6464,28.7482 -10.2081,3.3772 -20.3548,3.0228 -28.6795,-1.7927 -1.2592,-0.7288 -2.5022,-1.5284 -3.7262,-2.3884 l 0.2605,0.0842 c 1.8777,0.5978 3.7443,1.0029 5.5851,1.2217 13.6775,1.6288 25.1966,-5.7634 30.3234,-17.5408 2.1529,-4.947 1.8861,-12.5473 -1.0551,-21.75 -14.2753,-33.652 -28.2294,-67.2406 -42.5047,-100.8926 -1.8275,-4.2758 -3.306,-6.2082 -5.6678,-6.1733 0.6706,-1.0211 1.4221,-2.0262 2.3008,-3.0028 1.1362,-1.2634 1.9795,-2.0758 3.6978,-2.4315 3.6185,-0.7501 7.5022,1.2237 8.911,4.8554 l 0.4349,1.135 z m -13.6979,134.2123 c -4.7285,-4.9181 -8.5005,-10.8244 -11.8244,-16.4685 -8.7398,-14.8376 -13.3317,-32.58 -19.2782,-48.7403 l 14.7631,-37.0003 c 14.7603,29.6974 24.4506,61.717 39.2162,86.3336 1.9517,3.2534 4.5647,6.0407 7.0552,8.8549 2.355,3.0898 5.0491,4.9745 9.4788,5.8102 0.566,0.1066 1.0363,0.1735 1.4439,0.1936 -0.2092,0.2602 -0.3656,0.4518 -0.4368,0.5318 l -0.002,-0.002 c -11.5594,12.0044 -29.3504,11.9939 -40.4155,0.487 z M 2.2986,149.7722 C 1.2818,143.1454 1.8819,136.2574 4.2208,129.623 18.1664,92.9687 33.9191,56.8522 50.3827,20.0744 57.1343,4.9921 76.538,-4.7395 87.3729,9.9437 74.0477,-2.2252 64.2223,14.8391 59.6271,24.6059 52.1246,40.5524 44.9544,56.4996 38.0716,72.4462 30.119,90.8711 22.5473,109.2971 15.2861,127.7226 c -1.1534,4.7344 -1.4907,9.4337 -0.8441,14.0905 0.3234,2.3286 0.8934,4.6468 1.7294,6.9531 0.7132,1.9655 1.5468,3.8066 2.4409,5.8209 0.1545,0.3484 0.3104,0.7019 0.4688,1.0633 0.7983,1.8238 1.1506,2.4639 1.9914,2.7363 -1.4851,1.0831 -3.1349,1.9091 -4.8334,2.3791 -4.1522,1.1489 -6.6671,0.5029 -8.543,-0.8742 -3.6618,-2.6864 -4.7467,-5.8771 -5.3975,-10.1194 z M 74.7164,37.6381 65.5373,20.0276 C 71.4767,11.2365 79.2153,3.2009 88.4307,14.3201 83.1498,21.17 78.7243,30.0518 74.7164,37.6381 Z m 160.0067,-12.6408 58.525,0 39.67,75.9235 39.1561,-75.9235 52.9018,0 0,132.217 -48.8744,0 0.6537,-51.5302 -23.6866,51.5302 -45.9459,0 -23.1562,-50.3751 0.6395,50.3751 -49.883,0 0,-132.217 z m 372.0566,-0.3135 51.1526,0 0,133.6414 -51.1526,0 0,-133.6414 z m -18.123,133.7122 c -38.9721,0 -74.4562,0 -111.5753,0 -26.9785,-0.5434 -40.5207,-9.2664 -41.1631,-25.4358 0,-17.3614 0,-34.7222 0,-52.0835 2.611,-23.2838 35.5351,-25.1354 39.8024,-25.8395 28.607,0 57.2148,0 85.822,0 19.4301,1.7793 34.4248,7.5282 33.5821,27.455 l 0,18.7166 c -1.3031,10.1967 -9.133,13.9464 -19.9301,14.7656 l -87.789,0 c -0.237,5.2345 2.6892,8.5941 8.7789,10.078 l 92.4721,0 0,32.3436 z m -99.1154,-71.9526 50.5378,0 c 2.6101,0 4.7452,2.1089 4.7452,4.6871 l 0,0 c 0,2.5784 -2.1351,4.6882 -4.7452,4.6882 l -50.5378,0 c -2.6101,0 -4.7455,-2.1098 -4.7455,-4.6882 l 0,0 c 0,-2.5782 2.1354,-4.6871 4.7455,-4.6871 z m 210.3171,-31.3648 104.6279,0 c 16.3554,0 29.7261,12.9906 29.7261,28.8711 l 0,45.2274 c 0,15.8802 -13.3707,28.87 -29.7261,28.87 l -104.6279,0 c -16.3547,0 -29.7255,-12.9898 -29.7255,-28.87 l 0,-45.2274 c 0,-15.8805 13.3708,-28.8711 29.7255,-28.8711 z m 27.2121,68.1015 50.5417,0 c 2.4636,0 4.4782,-1.9899 4.4782,-4.4232 l 0,-25.2788 c 0,-2.4332 -2.0146,-4.4243 -4.4782,-4.4243 l -50.5417,0 c -2.4631,0 -4.4788,1.9911 -4.4788,4.4243 l 0,25.2788 c 0,2.4333 2.0157,4.4232 4.4788,4.4232 z" />
  <path
     id="path8"
     style="fill:#ffffff;fill-rule:evenodd"
     d="m 208.0613,163.2416 c 1.5905,0 3.1422,0.4073 4.6596,1.2217 1.5131,0.8189 2.6963,1.9848 3.5407,3.5065 0.8445,1.5173 1.2688,3.1036 1.2688,4.7539 0,1.6331 -0.4158,3.2021 -1.2515,4.7067 -0.8317,1.5089 -2.0021,2.679 -3.5022,3.5107 -1.5046,0.8359 -3.0736,1.2515 -4.7154,1.2515 -1.6416,0 -3.2148,-0.4156 -4.7152,-1.2515 -1.5046,-0.8317 -2.6747,-2.0018 -3.5107,-3.5107 -0.8402,-1.5046 -1.256,-3.0736 -1.256,-4.7067 0,-1.6503 0.4243,-3.2366 1.273,-4.7539 0.849,-1.5217 2.0319,-2.6876 3.5496,-3.5065 1.5131,-0.8144 3.0691,-1.2217 4.6593,-1.2217 z m 0,1.569 c -1.3331,0 -2.6277,0.3429 -3.8877,1.0244 -1.2603,0.6817 -2.2462,1.6591 -2.958,2.9236 -0.7115,1.2688 -1.0672,2.5889 -1.0672,3.9651 0,1.3629 0.3515,2.6706 1.0502,3.9221 0.6988,1.2517 1.6761,2.2291 2.9319,2.9279 1.256,0.6987 2.5634,1.0502 3.9308,1.0502 1.3632,0 2.675,-0.3515 3.9308,-1.0502 1.256,-0.6988 2.2292,-1.6762 2.9236,-2.9279 0.6943,-1.2515 1.0415,-2.5592 1.0415,-3.9221 0,-1.3762 -0.3515,-2.6963 -1.0587,-3.9651 -0.7073,-1.2645 -1.6932,-2.2419 -2.9577,-2.9236 -1.2645,-0.6815 -2.5591,-1.0244 -3.8795,-1.0244 z m -4.1579,13.147 0,-10.1936 3.5022,0 c 1.2002,0 2.0662,0.0901 2.602,0.2786 0.5357,0.1888 0.9601,0.5188 1.2815,0.9859 0.3172,0.4717 0.4759,0.9689 0.4759,1.4961 0,0.7458 -0.2659,1.3933 -0.7973,1.946 -0.5315,0.5531 -1.2388,0.8617 -2.1175,0.9303 0.36,0.15 0.6514,0.33 0.8657,0.54 0.4116,0.4031 0.9133,1.0761 1.5089,2.0234 l 1.2432,1.9933 -2.0103,0 -0.9045,-1.6075 c -0.7115,-1.2603 -1.2819,-2.0534 -1.719,-2.3706 -0.3002,-0.2356 -0.7415,-0.3515 -1.3203,-0.3515 l -0.9644,0 0,4.3296 -1.6461,0 z m 1.6461,-5.7356 1.9976,0 c 0.9516,0 1.603,-0.1457 1.9502,-0.4286 0.3473,-0.2829 0.523,-0.6602 0.523,-1.1316 0,-0.3002 -0.0856,-0.57 -0.2528,-0.8101 -0.1673,-0.2359 -0.3986,-0.4159 -0.6945,-0.5315 -0.2999,-0.1202 -0.8487,-0.1758 -1.6546,-0.1758 l -1.8689,0 0,3.0776 z" />
</svg>
