<?xml version="1.0" encoding="UTF-8"?> <svg xmlns="http://www.w3.org/2000/svg" width="381" height="65" viewBox="0 0 381 65" fill="none"><path d="M146.197 18.1147H135.698L127.488 46.8847H136.12L137.241 42.176H144.318L145.44 46.8847H154.407L146.198 18.1147H146.197ZM143.471 36.1786H138.09L140.803 24.8282L143.472 36.1786H143.471Z" fill="#232120"></path><path d="M24.8559 39.4913H24.3725L19.8123 18.1147H4.87021V46.8853H12.8989V25.3579H13.3874L18.283 46.8853H32.9219V18.1147H24.8559V39.4913Z" fill="#232120"></path><path d="M53.3215 17.5167C44.6761 17.5167 38.6375 23.6778 38.6375 32.5C38.6375 41.3222 44.5383 47.4833 53.3215 47.4833C62.1047 47.4833 68.0433 41.3222 68.0433 32.5C68.0433 23.6778 61.9895 17.5167 53.3215 17.5167ZM59.5662 32.4622C59.5662 37.1912 57.2898 39.903 53.3215 39.903C49.3531 39.903 47.114 37.1912 47.114 32.4622C47.114 27.7331 49.4345 24.9835 53.3215 24.9835C57.2085 24.9835 59.5662 27.7789 59.5662 32.4622Z" fill="#232120"></path><path d="M84.4272 39.4913H83.8828L79.5852 18.1147H70.658L77.9853 46.8853H90.2551L97.3904 18.1147H88.5056L84.4272 39.4913Z" fill="#232120"></path><path d="M114.282 39.4913H113.738L109.441 18.1147H100.513L107.841 46.8853H120.11L127.246 18.1147H118.361L114.282 39.4913Z" fill="#232120"></path><path d="M161.122 18.13H166.564V42.0795H180.022V46.87H161.122V18.13Z" fill="#232120"></path><path d="M186.032 42.0795H193.077V22.8805H186.032V18.13H205.603V22.8805H198.519V42.0795H205.603V46.87H186.032V42.0795Z" fill="#232120"></path><path d="M246.064 18.13H251.505V30.0858H264.721V18.13H270.162V46.87H264.721V34.8368H251.505V46.87H246.064V18.13Z" fill="#232120"></path><path d="M285.124 22.881H275.894V18.1305H299.795V22.881H290.566V46.87H285.124V22.881Z" fill="#232120"></path><path d="M239.27 31.3124H225.169V36.0629H234.02C233.127 39.227 229.967 42.6165 225.514 42.6165C220.034 42.6165 216.394 38.4776 216.394 32.4616C216.394 26.4456 220.073 22.3067 225.514 22.3067C228.886 22.3067 231.837 23.8783 233.562 26.5224L237.24 23.4565C234.788 19.7778 230.648 17.5172 225.514 17.5172C217.007 17.5172 210.876 23.7631 210.876 32.5006C210.876 41.238 216.815 47.4839 225.514 47.4839C229.272 47.4839 232.751 46.2087 234.712 43.0881V47.2981H239.462V31.3135H239.27V31.3124Z" fill="#232120"></path><path d="M352.889 42.5019L335.522 25.145C335.109 24.7339 334.413 24.8632 334.175 25.3946L320.923 54.8784C320.743 55.2805 320.831 55.7515 321.143 56.0621L322.083 56.9978C322.395 57.3084 322.867 57.3931 323.268 57.2113L352.646 43.8499C353.176 43.6087 353.302 42.9119 352.888 42.5013L352.889 42.5019Z" fill="#FCA800"></path><path d="M331.303 20.9186L320.822 10.4452C320.496 10.121 319.969 10.1222 319.644 10.448L315.622 14.4903C315.239 14.8749 315.025 15.395 315.026 15.9371L315.111 49.2159C315.112 49.758 315.328 50.2776 315.713 50.6599L316.939 51.8797C317.299 52.2383 317.908 52.1259 318.115 51.6617L331.476 21.8487C331.617 21.5324 331.549 21.162 331.303 20.9175L331.303 20.9186Z" fill="#FCA800"></path><path d="M375.933 15.7835C375.932 15.2414 375.715 14.7219 375.33 14.3395L363.045 2.6C362.66 2.21768 362.14 2.00365 361.598 2.00478L328.319 2.08949C327.777 2.09062 327.258 2.30747 326.875 2.69205L322.961 6.62707C322.637 6.95291 322.638 7.48037 322.964 7.80508L370.211 54.5661C370.537 54.8903 371.064 54.8891 371.389 54.5633L375.422 50.5097C375.804 50.1251 376.018 49.605 376.017 49.0629L375.933 15.7841V15.7835Z" fill="#FCA800"></path><path d="M357.082 46.7046C356.836 46.4606 356.465 46.3934 356.15 46.5368L326.499 60.0033C326.036 60.2134 325.927 60.8222 326.287 61.1808L327.513 62.4006C327.898 62.7829 328.418 62.9969 328.96 62.9958L362.239 62.9111C362.781 62.9099 363.3 62.6931 363.683 62.3085L367.587 58.3842C367.911 58.0584 367.91 57.5309 367.584 57.2062L357.082 46.704V46.7046Z" fill="#FCA800"></path></svg> 